<?xml version="1.0" encoding="UTF-8" standalone="no"?>
<!DOCTYPE svg PUBLIC "-//W3C//DTD SVG 1.1//EN" "http://www.w3.org/Graphics/SVG/1.1/DTD/svg11.dtd">
<svg xmlns="http://www.w3.org/2000/svg" version="1.1" viewBox="0 0 989 168">
<clipPath id="clipping-path-0">
<path d="
  M 0.00 0.00
  L 989.00 0.00
  L 989.00 168.00
  L 0.00 168.00
  L 0.00 0.00
  Z"/>
</clipPath>
<g stroke-width="2.0" fill="none" stroke-linecap="butt" clip-path="url(#clipping-path-0)">
<path stroke="#ffffff" vector-effect="non-scaling-stroke" d="
  M 122.51 60.67
  A 0.12 0.12 0.0 0 0 122.39 60.55
  L 122.37 60.55
  A 0.12 0.12 0.0 0 0 122.25 60.67
  L 122.25 108.33
  A 0.12 0.12 0.0 0 0 122.37 108.45
  L 122.39 108.45
  A 0.12 0.12 0.0 0 0 122.51 108.33
  L 122.51 60.67"
/>
<path stroke="#fdfeff" stroke-opacity="0.965" vector-effect="non-scaling-stroke" d="
  M 433.76 54.42
  A 0.12 0.12 0.0 0 0 433.64 54.30
  L 433.62 54.30
  A 0.12 0.12 0.0 0 0 433.50 54.42
  L 433.50 124.84
  A 0.12 0.12 0.0 0 0 433.62 124.96
  L 433.64 124.96
  A 0.12 0.12 0.0 0 0 433.76 124.84
  L 433.76 54.42"
/>
<path stroke="#ffffff" vector-effect="non-scaling-stroke" d="
  M 763.51 43.67
  A 0.12 0.12 0.0 0 0 763.39 43.55
  L 763.37 43.55
  A 0.12 0.12 0.0 0 0 763.25 43.67
  L 763.25 72.09
  A 0.12 0.12 0.0 0 0 763.37 72.21
  L 763.39 72.21
  A 0.12 0.12 0.0 0 0 763.51 72.09
  L 763.51 43.67"
/>
</g>
<path fill="#ffffff" d="
  M 570.44 168.00
  Q 567.19 168.00 563.94 168.00
  Q 561.37 153.21 555.50 133.00
  Q 550.60 116.12 543.14 103.09
  Q 543.13 103.07 542.20 101.54
  Q 536.27 91.75 543.03 81.34
  A 0.69 0.69 28.0 0 0 542.72 80.33
  Q 537.76 78.17 536.45 73.70
  Q 535.68 71.07 536.61 65.30
  Q 537.92 57.22 540.44 47.44
  Q 541.27 44.19 543.63 42.67
  Q 548.66 39.42 554.20 38.07
  Q 556.07 37.62 554.56 36.41
  Q 550.34 33.05 549.00 28.00
  Q 547.81 23.53 548.68 18.40
  Q 549.49 13.57 551.85 9.54
  Q 557.55 -0.21 568.87 0.89
  Q 575.20 1.50 579.32 5.11
  Q 582.41 7.81 584.05 11.70
  Q 585.49 15.10 586.15 19.38
  Q 587.76 29.76 579.86 36.93
  Q 579.01 37.69 580.12 37.97
  Q 586.07 39.46 591.19 42.56
  Q 593.55 44.00 594.48 47.44
  Q 597.37 58.18 598.38 69.26
  Q 599.12 77.34 591.81 80.47
  A 0.63 0.63 -30.4 0 0 591.56 81.43
  Q 598.53 90.68 592.60 100.89
  Q 584.98 114.00 580.50 128.50
  Q 574.48 147.99 570.44 168.00
  Z
  M 574.52 80.13
  Q 582.36 76.89 589.95 72.54
  A 2.27 2.27 71.3 0 0 591.07 70.27
  Q 589.76 60.37 586.81 49.64
  A 2.38 2.34 4.2 0 0 585.47 48.11
  Q 582.58 46.88 579.40 45.75
  Q 574.90 44.14 573.43 43.17
  Q 566.78 38.77 573.81 31.81
  Q 575.55 30.09 576.66 28.81
  Q 578.03 27.23 578.33 25.16
  Q 578.99 20.68 577.59 16.53
  Q 576.14 12.21 572.69 9.85
  Q 568.09 6.71 563.16 9.25
  Q 559.21 11.28 557.40 15.66
  Q 555.52 20.21 556.35 25.43
  Q 556.79 28.24 558.97 30.06
  Q 561.00 31.76 562.67 33.82
  Q 564.68 36.30 564.19 39.04
  Q 563.83 41.03 561.77 42.74
  Q 559.68 44.47 557.75 45.00
  Q 553.23 46.23 548.98 48.26
  A 2.04 1.99 85.6 0 0 547.91 49.54
  Q 544.95 60.12 543.67 70.09
  Q 543.46 71.77 544.90 72.64
  Q 552.12 77.02 560.31 80.02
  Q 561.90 80.59 560.26 81.00
  Q 555.88 82.08 552.07 84.31
  Q 548.34 86.49 547.46 89.54
  Q 546.27 93.64 549.19 98.06
  Q 554.63 106.30 559.21 119.51
  Q 563.75 132.60 567.19 145.77
  Q 567.50 146.94 567.75 145.76
  Q 572.35 124.16 582.02 104.40
  Q 582.06 104.32 584.85 99.38
  Q 586.35 96.73 587.26 93.80
  Q 588.61 89.46 585.45 86.30
  Q 583.43 84.27 580.73 83.31
  Q 577.51 82.16 574.50 80.55
  Q 574.06 80.32 574.52 80.13
  Z"
/>
<path fill="#ffffff" d="
  M 95.06 114.94
  Q 99.09 115.33 101.04 112.62
  Q 102.22 110.97 102.35 107.09
  Q 102.55 101.15 102.68 95.20
  A 0.56 0.52 -90.0 0 1 103.19 94.65
  L 113.80 94.54
  A 1.16 1.12 88.1 0 1 114.93 95.64
  Q 115.24 101.83 114.86 107.41
  Q 114.36 114.79 112.12 118.70
  Q 108.02 125.84 98.51 126.83
  Q 82.65 128.47 77.75 115.96
  Q 76.27 112.16 76.15 104.84
  Q 75.84 85.80 76.00 66.75
  Q 76.05 61.14 76.58 57.02
  Q 77.31 51.40 79.81 47.99
  Q 83.65 42.72 90.94 41.44
  Q 95.83 40.57 100.09 41.30
  Q 106.90 42.45 110.70 47.24
  Q 113.70 51.03 114.63 57.89
  Q 115.38 63.36 114.90 69.49
  A 1.09 1.09 2.0 0 1 113.81 70.50
  L 103.08 70.50
  A 0.60 0.60 -89.1 0 1 102.48 69.88
  Q 102.67 63.87 102.15 58.51
  Q 101.79 54.73 98.27 53.59
  Q 94.04 52.21 91.53 54.58
  Q 89.75 56.27 89.48 60.09
  Q 89.29 62.83 89.25 67.00
  Q 89.08 87.26 89.45 107.52
  Q 89.51 110.84 90.43 112.29
  Q 91.89 114.63 95.06 114.94
  Z"
/>
<path fill="#ffffff" d="
  M 161.96 108.67
  A 18.29 18.29 0.0 0 1 143.67 126.96
  L 140.33 126.96
  A 18.29 18.29 0.0 0 1 122.04 108.67
  L 122.04 59.33
  A 18.29 18.29 0.0 0 1 140.33 41.04
  L 143.67 41.04
  A 18.29 18.29 0.0 0 1 161.96 59.33
  L 161.96 108.67
  Z
  M 148.74 59.59
  A 6.57 6.57 0.0 0 0 142.17 53.02
  L 141.83 53.02
  A 6.57 6.57 0.0 0 0 135.26 59.59
  L 135.26 108.41
  A 6.57 6.57 0.0 0 0 141.83 114.98
  L 142.17 114.98
  A 6.57 6.57 0.0 0 0 148.74 108.41
  L 148.74 59.59
  Z
  M 122.51 60.67
  A 0.12 0.12 0.0 0 0 122.39 60.55
  L 122.37 60.55
  A 0.12 0.12 0.0 0 0 122.25 60.67
  L 122.25 108.33
  A 0.12 0.12 0.0 0 0 122.37 108.45
  L 122.39 108.45
  A 0.12 0.12 0.0 0 0 122.51 108.33
  L 122.51 60.67
  Z"
/>
<path fill="#ffffff" d="
  M 714.34 57.64
  Q 716.05 45.04 727.50 41.75
  Q 731.87 40.49 736.92 41.10
  Q 742.05 41.72 745.70 44.02
  Q 750.36 46.97 752.43 52.09
  Q 753.73 55.30 753.84 62.09
  Q 754.15 81.24 754.02 100.40
  Q 754.01 100.51 754.12 104.59
  Q 754.24 109.06 753.10 113.32
  Q 751.89 117.86 749.11 120.95
  Q 742.71 128.05 731.69 126.81
  Q 719.39 125.43 715.61 115.94
  Q 714.00 111.91 714.00 100.36
  Q 714.00 80.77 714.00 62.73
  Q 714.00 60.17 714.34 57.64
  Z
  M 740.74 59.58
  A 6.57 6.57 0.0 0 0 734.17 53.01
  L 733.83 53.01
  A 6.57 6.57 0.0 0 0 727.26 59.58
  L 727.26 108.42
  A 6.57 6.57 0.0 0 0 733.83 114.99
  L 734.17 114.99
  A 6.57 6.57 0.0 0 0 740.74 108.42
  L 740.74 59.58
  Z"
/>
<path fill="#ffffff" d="
  M 212.74 63.56
  L 203.39 125.44
  A 0.65 0.65 -85.9 0 1 202.75 126.00
  L 192.88 126.00
  A 0.81 0.81 -4.6 0 1 192.08 125.32
  L 182.78 63.71
  A 0.47 0.44 -79.9 0 0 182.56 63.37
  Q 182.12 63.07 182.38 63.68
  Q 182.44 63.82 182.44 63.96
  Q 182.55 94.36 182.50 125.45
  A 0.55 0.55 0.8 0 1 181.95 126.00
  L 171.45 126.00
  A 0.52 0.51 -90.0 0 1 170.94 125.48
  L 170.93 42.56
  A 0.56 0.56 -0.0 0 1 171.49 42.00
  L 189.28 42.00
  A 0.63 0.62 -3.7 0 1 189.90 42.54
  L 197.82 99.46
  Q 198.32 103.10 198.83 99.45
  L 206.69 42.95
  A 1.10 1.10 3.9 0 1 207.78 42.00
  L 224.88 42.00
  A 0.87 0.87 0.7 0 1 225.75 42.87
  L 225.75 125.50
  A 0.50 0.50 -45.0 0 1 225.25 126.00
  L 213.92 125.95
  A 0.96 0.95 -89.4 0 1 212.97 124.97
  Q 213.29 108.25 213.10 93.00
  Q 212.87 73.37 213.19 69.31
  Q 213.45 65.96 212.93 63.55
  Q 212.82 63.04 212.74 63.56
  Z"
/>
<path fill="#ffffff" d="
  M 263.39 100.95
  L 271.74 42.56
  A 0.59 0.59 -85.4 0 1 272.32 42.06
  L 290.00 42.01
  A 0.75 0.74 89.6 0 1 290.75 42.76
  L 290.75 125.21
  A 0.79 0.78 -90.0 0 1 289.97 126.00
  L 278.82 125.95
  A 0.52 0.51 -90.0 0 1 278.31 125.43
  L 278.19 63.30
  Q 278.18 62.36 277.75 63.00
  Q 277.63 63.18 277.69 63.51
  Q 277.74 63.80 277.71 63.99
  Q 273.13 94.50 268.42 125.50
  A 0.59 0.58 3.9 0 1 267.84 126.00
  L 257.71 126.00
  A 0.54 0.53 -4.4 0 1 257.18 125.55
  L 247.99 64.68
  Q 247.50 61.44 247.50 64.72
  L 247.50 125.44
  A 0.56 0.56 -0.0 0 1 246.94 126.00
  L 236.56 126.00
  A 0.62 0.62 45.0 0 1 235.94 125.38
  L 236.06 42.57
  A 0.52 0.50 90.0 0 1 236.56 42.05
  L 254.31 42.17
  A 0.59 0.57 86.0 0 1 254.88 42.68
  L 263.24 100.95
  Q 263.31 101.46 263.39 100.95
  Z"
/>
<path fill="#ffffff" d="
  M 299.44 42.45
  A 0.45 0.45 89.7 0 1 299.89 42.00
  L 312.06 42.00
  A 0.69 0.69 45.0 0 1 312.75 42.69
  Q 312.75 73.93 312.75 104.68
  Q 312.75 109.87 313.54 111.71
  Q 315.40 116.04 321.25 114.75
  Q 325.82 113.74 325.85 108.25
  Q 326.00 76.13 326.00 42.75
  A 0.74 0.73 -90.0 0 1 326.73 42.01
  L 338.18 42.05
  A 0.51 0.51 -89.6 0 1 338.69 42.56
  Q 338.78 70.61 338.76 98.66
  Q 338.75 110.88 337.31 115.18
  Q 333.99 125.13 323.34 126.67
  Q 314.26 127.99 307.67 124.00
  Q 302.18 120.67 300.37 114.09
  Q 299.50 110.94 299.51 102.34
  Q 299.54 72.39 299.44 42.45
  Z"
/>
<path fill="#ffffff" d="
  M 377.32 91.44
  L 377.49 42.69
  A 0.70 0.69 -89.6 0 1 378.18 42.00
  L 388.75 42.00
  A 0.69 0.69 45.0 0 1 389.44 42.69
  L 389.31 125.31
  A 0.54 0.50 -90.0 0 1 388.81 125.85
  L 376.19 125.84
  A 0.69 0.64 81.7 0 1 375.56 125.33
  Q 367.82 95.66 360.22 65.96
  Q 360.18 65.80 360.10 65.70
  Q 359.77 65.29 359.77 66.00
  Q 359.80 95.72 359.69 125.44
  A 0.51 0.51 89.6 0 1 359.18 125.95
  L 348.61 125.99
  A 0.61 0.61 -0.7 0 1 348.00 125.38
  L 347.94 42.67
  A 0.67 0.67 -0.4 0 1 348.61 42.00
  L 363.79 42.00
  A 1.08 1.07 82.7 0 1 364.83 42.81
  L 377.19 91.46
  Q 377.32 91.97 377.32 91.44
  Z"
/>
<rect fill="#ffffff" x="399.99" y="42.01" width="13.26" height="83.98" rx="0.27"/>
<path fill="#ffffff" d="
  M 419.43 53.48
  L 419.49 42.55
  A 0.56 0.55 -89.5 0 1 420.04 42.00
  L 459.59 42.00
  A 0.66 0.66 0.2 0 1 460.25 42.66
  L 460.25 53.48
  A 0.52 0.52 -89.9 0 1 459.73 54.00
  L 447.19 54.00
  A 0.69 0.69 45.0 0 0 446.50 54.69
  L 446.44 125.44
  A 0.51 0.51 -0.6 0 1 445.94 125.95
  L 433.76 126.00
  A 0.52 0.51 -90.0 0 1 433.25 125.48
  L 433.25 54.66
  A 0.66 0.66 -0.1 0 0 432.59 54.00
  L 419.94 54.00
  A 0.52 0.51 90.0 0 1 419.43 53.48
  Z
  M 433.76 54.42
  A 0.12 0.12 0.0 0 0 433.64 54.30
  L 433.62 54.30
  A 0.12 0.12 0.0 0 0 433.50 54.42
  L 433.50 124.84
  A 0.12 0.12 0.0 0 0 433.62 124.96
  L 433.64 124.96
  A 0.12 0.12 0.0 0 0 433.76 124.84
  L 433.76 54.42
  Z"
/>
<path fill="#ffffff" d="
  M 485.91 71.91
  Q 486.27 73.16 486.63 71.91
  L 495.10 42.88
  A 1.23 1.23 8.2 0 1 496.28 42.00
  L 507.55 42.00
  A 0.50 0.50 9.2 0 1 508.03 42.66
  Q 500.79 64.59 493.58 86.26
  Q 492.50 89.51 492.43 92.92
  Q 492.12 109.18 492.19 125.44
  A 0.51 0.51 -0.6 0 1 491.69 125.95
  L 479.51 126.00
  A 0.52 0.51 -90.0 0 1 479.00 125.48
  Q 479.00 109.30 479.00 93.51
  Q 479.00 90.25 477.98 87.14
  Q 470.65 64.93 463.25 42.74
  A 0.56 0.56 80.7 0 1 463.78 42.00
  L 476.56 42.00
  A 0.89 0.87 81.5 0 1 477.40 42.63
  L 485.91 71.91
  Z"
/>
<path fill="#ffffff" d="
  M 646.81 77.95
  L 662.58 78.00
  A 0.67 0.66 -0.0 0 1 663.25 78.66
  L 663.25 89.34
  A 0.67 0.66 0.0 0 1 662.58 90.00
  L 646.81 90.06
  A 0.50 0.50 45.0 0 0 646.31 90.56
  L 646.19 125.45
  A 0.50 0.48 -89.4 0 1 645.70 125.95
  L 633.43 125.84
  A 0.54 0.50 -89.5 0 1 632.94 125.30
  L 632.81 42.81
  A 0.81 0.80 90.0 0 1 633.61 42.00
  L 667.23 42.00
  A 0.72 0.67 0.8 0 1 667.95 42.69
  L 667.73 53.39
  A 0.67 0.63 0.9 0 1 667.06 54.00
  L 646.82 54.06
  A 0.51 0.51 0.0 0 0 646.31 54.57
  L 646.31 77.44
  A 0.51 0.51 0.6 0 0 646.81 77.95
  Z"
/>
<path fill="#ffffff" d="
  M 687.81 113.94
  L 708.31 114.18
  A 0.51 0.51 0.0 0 1 708.82 114.69
  L 708.82 125.31
  A 0.52 0.50 -90.0 0 1 708.32 125.83
  L 674.44 125.82
  A 0.51 0.50 90.0 0 1 673.94 125.31
  L 674.00 42.54
  A 0.54 0.54 -89.9 0 1 674.54 42.00
  L 686.32 42.00
  A 0.93 0.93 89.9 0 1 687.25 42.93
  L 687.31 113.44
  A 0.51 0.50 0.6 0 0 687.81 113.94
  Z"
/>
<path fill="#ffffff" d="
  M 794.34 83.64
  Q 798.23 85.15 800.06 88.77
  Q 801.16 90.95 801.71 95.90
  Q 802.69 104.69 802.25 112.75
  Q 801.88 119.55 803.32 125.46
  A 0.39 0.39 82.3 0 1 802.95 125.95
  L 790.84 125.99
  A 0.94 0.93 82.0 0 1 789.93 125.30
  Q 788.64 120.51 788.82 115.49
  Q 789.14 106.37 788.72 97.25
  Q 788.52 92.85 785.21 91.03
  Q 783.79 90.25 781.13 90.09
  Q 778.98 89.97 776.89 90.00
  A 0.65 0.65 -0.4 0 0 776.25 90.65
  L 776.25 125.48
  A 0.52 0.52 -90.0 0 1 775.73 126.00
  L 763.61 126.00
  A 0.61 0.61 -0.7 0 1 763.00 125.39
  L 762.94 42.69
  A 0.52 0.52 -1.1 0 1 763.44 42.17
  Q 772.96 41.86 782.50 41.97
  Q 786.68 42.02 790.71 43.15
  Q 796.06 44.64 798.92 48.75
  Q 801.09 51.87 801.75 57.70
  Q 802.65 65.67 801.00 73.65
  Q 799.79 79.47 794.26 82.68
  Q 793.30 83.24 794.34 83.64
  Z
  M 763.51 43.67
  A 0.12 0.12 0.0 0 0 763.39 43.55
  L 763.37 43.55
  A 0.12 0.12 0.0 0 0 763.25 43.67
  L 763.25 72.09
  A 0.12 0.12 0.0 0 0 763.37 72.21
  L 763.39 72.21
  A 0.12 0.12 0.0 0 0 763.51 72.09
  L 763.51 43.67
  Z
  M 787.56 74.82
  Q 789.02 71.84 788.97 68.50
  Q 788.90 63.74 788.50 59.00
  Q 788.29 56.50 786.18 55.13
  Q 784.79 54.24 782.13 54.07
  Q 779.44 53.90 776.74 54.00
  A 0.51 0.51 -1.2 0 0 776.25 54.51
  L 776.25 77.48
  A 0.48 0.48 1.9 0 0 776.70 77.96
  Q 780.79 78.23 784.07 77.54
  Q 786.47 77.03 787.56 74.82
  Z"
/>
<rect fill="#ffffff" x="810.99" y="42.01" width="13.26" height="83.98" rx="0.26"/>
<path fill="#ffffff" d="
  M 842.71 107.43
  Q 843.05 75.72 843.00 42.81
  A 0.81 0.80 -90.0 0 1 843.80 42.00
  L 855.59 42.00
  A 0.66 0.66 89.5 0 1 856.25 42.66
  Q 856.25 74.13 856.29 105.50
  Q 856.29 110.63 854.52 115.42
  Q 851.02 124.90 840.77 125.93
  Q 836.08 126.40 831.40 125.56
  A 0.62 0.58 -84.9 0 1 830.93 124.96
  L 830.83 114.26
  A 0.71 0.68 -83.2 0 1 831.68 113.56
  Q 835.63 114.62 839.44 113.19
  Q 842.66 111.97 842.71 107.43
  Z"
/>
<path fill="#ffffff" d="
  M 895.32 91.19
  L 895.49 42.77
  A 0.78 0.77 -89.6 0 1 896.26 42.00
  L 906.64 42.00
  A 0.61 0.61 -0.7 0 1 907.25 42.61
  L 907.31 125.31
  A 0.54 0.50 -90.0 0 1 906.81 125.85
  L 894.19 125.84
  A 0.69 0.64 82.5 0 1 893.56 125.32
  L 878.47 66.94
  Q 877.75 64.17 877.75 67.03
  L 877.69 125.44
  A 0.51 0.51 0.1 0 1 877.18 125.95
  L 866.71 125.99
  A 0.79 0.78 90.0 0 1 865.93 125.20
  L 865.94 42.68
  A 0.67 0.65 -90.0 0 1 866.59 42.01
  L 882.05 42.17
  A 0.65 0.65 83.2 0 1 882.68 42.67
  L 895.18 91.21
  Q 895.32 91.72 895.32 91.19
  Z"
/>
<path fill="#ffffff" d="
  M 13.81 63.06
  Q 9.61 87.65 15.81 112.69
  Q 17.30 118.69 22.29 121.27
  A 1.06 0.93 11.9 0 1 22.84 122.00
  Q 23.32 125.33 20.35 125.07
  Q 18.80 124.94 17.38 123.83
  Q 14.71 121.75 13.19 118.06
  Q 11.46 113.87 11.07 112.23
  Q 6.04 91.46 8.35 70.37
  Q 9.32 61.48 10.37 57.17
  Q 12.08 50.18 15.81 44.81
  Q 17.55 42.32 21.19 42.52
  A 1.51 1.47 -22.3 0 1 22.08 42.88
  Q 24.10 44.66 22.25 46.22
  Q 21.82 46.58 20.62 47.03
  Q 19.40 47.47 19.06 48.06
  Q 15.26 54.62 13.81 63.06
  Z"
/>
<path fill="#ffffff" d="
  M 33.83 120.95
  Q 36.11 122.62 33.96 124.46
  Q 32.66 125.58 30.96 124.72
  Q 29.93 124.19 28.98 122.81
  Q 26.84 119.73 25.56 115.69
  Q 20.73 100.41 20.00 96.50
  Q 19.35 93.02 20.17 87.75
  A 1.85 1.69 40.5 0 0 20.05 86.78
  Q 18.78 83.68 18.73 80.43
  Q 18.72 79.71 19.20 73.57
  Q 19.62 68.38 20.50 66.75
  Q 22.86 62.40 22.75 61.00
  Q 22.05 51.85 26.81 45.31
  Q 28.88 42.47 32.94 42.54
  A 1.50 1.33 -21.8 0 1 33.83 42.86
  Q 35.76 44.47 34.09 46.39
  A 1.54 1.18 10.0 0 1 33.26 46.82
  Q 31.34 47.12 30.81 47.81
  Q 27.04 52.79 27.25 58.25
  Q 27.40 62.33 26.16 65.33
  Q 25.12 67.83 25.11 67.85
  Q 23.06 74.09 23.35 80.65
  Q 23.40 81.91 24.30 84.70
  Q 25.03 86.95 24.69 88.94
  Q 24.08 92.50 24.52 95.55
  Q 24.60 96.12 26.14 101.83
  Q 28.09 109.09 30.42 116.23
  Q 31.38 119.16 33.83 120.95
  Z"
/>
<path fill="#ffffff" d="
  M 957.12 57.51
  Q 956.71 52.14 954.06 48.44
  Q 953.10 47.08 950.80 46.75
  A 1.23 1.02 -9.3 0 1 950.02 46.29
  Q 948.84 44.56 950.03 43.32
  Q 950.86 42.46 952.35 42.61
  Q 956.29 43.03 958.38 46.65
  Q 961.74 52.45 961.67 61.07
  Q 961.67 61.99 962.06 62.83
  Q 965.00 69.06 965.43 76.13
  Q 965.64 79.61 965.58 80.87
  Q 965.47 83.28 964.57 85.55
  Q 963.85 87.34 964.20 89.25
  Q 964.97 93.41 964.09 97.27
  Q 961.28 109.56 956.44 121.19
  Q 955.09 124.44 951.75 124.94
  A 1.17 1.17 -30.6 0 1 950.85 124.71
  Q 947.71 122.32 951.25 120.41
  A 1.89 1.49 -5.1 0 0 951.94 119.76
  Q 953.35 117.38 954.23 114.74
  Q 957.23 105.75 959.53 96.56
  Q 960.41 93.07 959.67 89.52
  Q 959.08 86.67 960.25 84.19
  Q 961.04 82.53 961.01 80.70
  Q 960.92 75.40 959.97 70.50
  Q 959.74 69.29 958.25 65.85
  Q 957.12 63.25 957.12 60.37
  Q 957.12 57.54 957.12 57.51
  Z"
/>
<path fill="#ffffff" d="
  M 961.34 44.33
  Q 961.91 42.02 964.02 42.37
  Q 967.05 42.86 968.94 45.56
  Q 970.82 48.26 971.67 50.57
  Q 975.25 60.22 976.22 70.48
  Q 977.63 85.27 975.67 99.91
  Q 974.61 107.78 973.61 111.55
  Q 971.97 117.67 968.69 122.44
  Q 966.82 125.15 963.07 124.97
  A 1.25 1.25 -20.5 0 1 962.21 124.58
  Q 959.96 122.20 962.38 120.99
  Q 964.39 120.00 964.83 119.54
  Q 966.74 117.60 967.75 114.50
  Q 971.25 103.79 971.98 94.02
  Q 973.11 79.19 970.25 62.25
  Q 968.94 54.47 965.67 48.86
  Q 965.12 47.92 964.48 47.44
  Q 963.67 46.83 962.78 46.64
  Q 960.88 46.22 961.34 44.33
  Z"
/>
<path fill="#ffffff" d="
  M 43.37 124.60
  A 2.64 2.62 -6.9 0 1 41.57 123.20
  Q 39.48 119.01 38.20 114.51
  Q 34.36 101.07 32.31 96.44
  Q 30.19 91.62 32.33 86.57
  A 1.57 1.56 34.9 0 0 32.03 84.90
  Q 31.08 83.87 30.51 82.51
  Q 30.04 81.39 30.01 79.78
  Q 29.97 76.81 30.40 73.88
  Q 31.10 69.13 31.60 67.63
  Q 32.64 64.52 35.40 62.24
  A 1.02 1.01 -28.9 0 0 35.72 61.15
  Q 33.50 54.41 36.59 47.89
  Q 38.55 43.77 43.56 42.62
  Q 45.66 42.14 46.41 44.17
  Q 47.43 46.95 43.94 47.23
  A 3.01 2.99 14.1 0 0 41.67 48.58
  Q 39.30 52.21 39.34 56.11
  Q 39.34 56.22 40.18 59.77
  Q 40.97 63.17 37.82 66.30
  Q 35.93 68.18 35.67 70.09
  L 34.44 79.07
  Q 34.21 80.73 35.63 81.98
  Q 38.36 84.40 36.54 88.05
  Q 35.48 90.18 35.82 92.32
  Q 35.88 92.67 37.12 96.29
  Q 40.88 107.20 44.22 118.26
  Q 44.75 120.01 46.06 121.24
  A 1.38 1.07 23.7 0 1 46.50 122.05
  Q 46.78 125.34 43.37 124.60
  Z"
/>
<path fill="#ffffff" d="
  M 48.04 60.07
  Q 46.07 57.50 46.52 52.98
  Q 47.42 44.00 56.01 42.81
  A 1.61 1.47 -32.7 0 1 56.95 42.97
  Q 59.50 44.39 57.52 46.81
  A 1.13 0.93 15.9 0 1 56.69 47.17
  Q 53.89 47.18 52.45 49.69
  Q 50.80 52.55 51.31 55.60
  Q 51.45 56.39 52.95 58.97
  Q 54.58 61.76 52.45 64.04
  Q 52.35 64.15 49.30 66.05
  Q 47.37 67.25 47.00 69.25
  Q 46.30 72.99 45.70 77.09
  Q 45.40 79.10 47.15 80.14
  Q 51.67 82.83 48.19 86.44
  Q 45.99 88.71 48.00 92.25
  Q 50.27 96.25 52.61 104.04
  Q 55.18 112.57 57.87 121.06
  Q 58.32 122.49 58.04 123.47
  Q 57.43 125.61 55.32 124.56
  Q 53.51 123.67 53.04 121.71
  Q 50.01 109.15 45.67 98.14
  Q 45.64 98.05 43.95 94.60
  Q 41.51 89.59 43.97 84.27
  A 0.66 0.66 32.1 0 0 43.79 83.50
  Q 40.60 80.87 41.16 76.49
  Q 41.76 71.80 42.83 67.21
  Q 43.56 64.07 47.48 62.31
  A 1.48 1.47 59.2 0 0 48.04 60.07
  Z"
/>
<path fill="#ffffff" d="
  M 58.92 67.04
  L 56.91 76.39
  A 1.23 1.18 -71.6 0 0 57.56 77.75
  L 65.32 81.27
  Q 65.89 81.53 65.34 81.77
  Q 63.39 82.62 61.89 83.34
  Q 59.55 84.46 58.96 85.61
  Q 58.06 87.37 59.44 89.81
  Q 67.68 104.45 69.94 122.76
  A 0.99 0.92 67.1 0 1 69.64 123.59
  Q 67.38 125.63 66.09 123.57
  Q 65.60 122.78 65.26 120.82
  Q 62.97 107.46 57.17 95.29
  Q 54.33 89.33 54.32 89.31
  Q 53.55 86.08 55.42 82.34
  A 0.53 0.53 25.9 0 0 55.17 81.62
  Q 53.82 80.99 53.07 79.75
  Q 52.47 78.77 52.52 77.14
  Q 52.71 71.27 54.60 65.73
  Q 55.32 63.63 57.00 62.66
  Q 58.76 61.64 60.85 61.15
  Q 61.59 60.97 61.05 60.43
  Q 58.84 58.19 58.46 55.43
  Q 58.14 53.13 58.86 50.09
  Q 60.17 44.61 65.88 43.06
  Q 67.54 42.60 68.65 42.94
  Q 70.64 43.53 69.89 46.05
  A 1.21 1.19 -88.1 0 1 69.03 46.87
  Q 63.73 48.18 62.91 52.03
  Q 62.22 55.22 64.24 57.29
  Q 66.15 59.25 66.18 59.30
  Q 67.60 61.55 66.01 63.31
  Q 65.17 64.24 62.69 65.18
  Q 61.11 65.77 59.53 66.38
  A 1.03 0.86 -7.4 0 0 58.92 67.04
  Z"
/>
<path fill="#ffffff" d="
  M 923.30 60.07
  Q 922.48 60.62 923.40 60.97
  Q 924.66 61.46 926.03 61.91
  Q 928.57 62.74 929.53 64.87
  Q 929.69 65.22 930.64 69.00
  Q 931.26 71.45 931.56 73.97
  Q 931.94 77.19 931.84 78.02
  Q 931.53 80.36 929.14 81.52
  A 0.70 0.70 61.7 0 0 928.85 82.50
  Q 930.39 85.07 930.28 87.55
  Q 930.21 89.02 928.59 92.22
  Q 921.33 106.58 918.70 122.83
  Q 918.30 125.31 915.93 124.48
  Q 913.69 123.69 914.27 121.45
  Q 914.61 120.13 914.63 120.01
  Q 917.56 103.26 925.59 88.07
  Q 926.97 85.47 924.36 84.27
  L 919.59 82.07
  Q 918.45 81.55 919.63 81.03
  L 926.63 77.96
  A 1.30 1.22 75.6 0 0 927.35 76.64
  Q 926.76 71.34 925.35 67.04
  A 1.01 1.01 -0.3 0 0 924.71 66.40
  Q 919.64 64.71 918.81 63.94
  Q 916.90 62.15 917.65 60.10
  Q 917.81 59.65 919.91 57.38
  Q 922.73 54.33 920.48 50.01
  Q 919.28 47.70 916.88 47.32
  Q 915.30 47.08 914.81 46.63
  Q 913.65 45.60 914.45 44.12
  A 2.37 2.36 17.4 0 1 916.80 42.90
  Q 921.21 43.38 923.33 46.15
  Q 926.74 50.61 925.79 56.20
  Q 925.37 58.68 923.30 60.07
  Z"
/>
<path fill="#ffffff" d="
  M 935.92 61.27
  Q 937.74 62.45 939.31 63.91
  Q 940.84 65.34 941.43 67.49
  Q 942.94 72.96 943.01 78.65
  Q 943.03 80.33 942.12 81.58
  Q 941.33 82.68 940.36 83.65
  A 0.64 0.63 52.0 0 0 940.27 84.43
  Q 942.83 88.61 941.06 92.56
  Q 934.80 106.56 931.08 122.22
  Q 930.58 124.32 928.45 124.61
  Q 925.02 125.07 926.41 120.93
  Q 928.44 114.90 930.18 108.79
  Q 931.75 103.30 933.29 99.36
  Q 935.14 94.62 937.00 90.13
  Q 937.81 88.19 936.33 86.70
  Q 932.37 82.73 937.25 80.10
  Q 938.93 79.19 938.61 77.47
  L 936.94 68.17
  A 1.40 1.07 18.9 0 0 936.42 67.39
  Q 934.61 66.02 932.72 64.77
  Q 930.68 63.42 930.71 61.34
  Q 930.72 60.49 932.12 58.09
  Q 934.18 54.56 932.19 50.31
  Q 930.81 47.38 927.75 47.04
  A 1.97 1.17 -10.3 0 1 926.84 46.70
  Q 925.02 45.23 926.66 43.36
  A 1.43 1.31 14.2 0 1 927.49 42.91
  Q 931.54 42.31 934.28 45.47
  Q 938.61 50.44 937.31 57.31
  Q 936.93 59.31 935.84 60.63
  A 0.44 0.42 -53.3 0 0 935.92 61.27
  Z"
/>
<path fill="#ffffff" d="
  M 938.42 124.05
  Q 936.73 122.98 938.09 121.51
  Q 939.46 120.03 940.17 117.73
  Q 943.91 105.51 948.25 93.50
  Q 949.02 91.36 948.09 88.65
  Q 947.09 85.79 947.29 84.67
  Q 947.63 82.70 949.19 81.16
  A 1.35 1.17 -23.9 0 0 949.59 80.31
  Q 949.93 74.45 948.39 69.24
  Q 947.84 67.37 946.37 66.10
  Q 944.49 64.49 944.08 62.34
  Q 943.91 61.51 944.65 58.24
  Q 945.52 54.36 943.56 50.19
  Q 942.24 47.36 939.55 46.99
  A 1.80 1.15 -9.7 0 1 938.68 46.62
  Q 936.52 44.71 938.83 43.03
  A 1.54 1.46 26.4 0 1 939.74 42.75
  Q 945.16 42.91 947.81 48.44
  Q 950.82 54.68 948.70 60.67
  A 1.88 1.88 -60.8 0 0 949.28 62.74
  Q 952.01 65.01 952.68 67.77
  Q 953.85 72.57 954.41 77.48
  Q 954.84 81.34 952.11 85.27
  A 1.25 1.25 -38.8 0 0 951.98 86.46
  Q 953.13 89.16 953.05 91.97
  Q 952.99 93.85 951.70 97.25
  Q 948.04 106.87 946.50 113.00
  Q 944.74 120.02 942.81 123.06
  Q 941.10 125.76 938.42 124.05
  Z"
/>
<rect fill="#ffffff" x="763.25" y="43.55" width="0.26" height="28.66" rx="0.12"/>
<rect fill="#fafcfe" fill-opacity="0.925" x="433.50" y="54.30" width="0.26" height="70.66" rx="0.12"/>
<rect fill="#ffffff" x="122.25" y="60.55" width="0.26" height="47.90" rx="0.12"/>
</svg>
