<svg width="5700" height="1707" viewBox="0 0 5700 1707" fill="none" xmlns="http://www.w3.org/2000/svg">
<g clip-path="url(#clip0_2470_9)">
<path d="M0 339.545V679.089C12.9883 676.492 47.5 670.554 85.3516 664.246C123.203 657.937 188.145 648.66 230.078 643.836C272.012 639.012 331.387 632.703 361.816 630.477C392.617 627.879 477.969 625.653 552.93 625.653C628.262 625.653 715.469 627.508 749.609 630.106C783.379 632.703 840.156 638.27 875.781 642.352C911.406 646.433 970.039 653.855 1005.66 659.05C1041.29 664.246 1107.34 675.749 1152.25 684.655C1197.15 693.562 1265.43 708.405 1304.39 717.682C1342.99 726.959 1394.94 739.576 1419.43 745.885C1443.93 752.193 1498.11 767.408 1540.04 779.283C1581.97 791.157 1630.21 805.259 1647.66 810.454C1665.1 815.278 1684.02 821.215 1690.33 823.442C1696.27 825.297 1731.52 836.43 1768.26 848.305C1805 859.808 1893.32 889.124 1964.94 913.616C2036.19 938.108 2118.2 966.31 2146.78 975.959C2175.35 985.978 2228.05 1004.16 2263.67 1016.78C2299.3 1029.4 2346.8 1046.09 2369.43 1053.89C2391.7 1061.68 2467.03 1087.66 2536.43 1111.41C2605.82 1135.15 2740.16 1180.43 2835.16 1211.97C2930.16 1243.51 3015.14 1270.6 3024.41 1271.34C3036.29 1272.83 3058.55 1269.49 3100.49 1259.84C3133.14 1252.42 3225.92 1230.52 3306.45 1211.6C3386.97 1192.3 3555.82 1150.74 3681.25 1118.83C3806.68 1087.28 3955.49 1049.8 4011.52 1035.33C4067.56 1020.86 4155.51 998.224 4206.35 984.865C4257.19 971.877 4346.62 949.24 4404.88 934.768C4463.14 919.925 4512.13 906.937 4513.61 905.823C4515.1 904.71 4514.36 895.062 4511.39 885.042C4508.42 874.652 4499.88 851.273 4492.09 833.09C4484.67 814.536 4457.58 758.873 4432.34 708.776C4407.11 658.679 4386.33 614.52 4386.33 610.438C4386.33 603.758 4387.81 603.387 4401.91 605.614C4410.82 607.098 4427.15 613.036 4438.28 618.602C4449.41 624.168 4470.2 639.754 4484.3 653.113C4498.4 666.472 4516.95 687.995 4525.49 701.354C4534.02 714.713 4549.61 742.174 4560.74 762.584C4575.21 790.044 4581.15 798.208 4583.38 794.126C4585.23 791.157 4586.72 782.251 4586.72 774.458C4586.72 767.037 4589.32 740.318 4592.66 715.085C4596 690.222 4604.16 642.352 4611.21 608.583C4621.6 556.63 4626.43 541.787 4641.27 512.1C4653.52 487.237 4665.76 470.167 4681.35 453.839C4693.59 441.593 4707.7 430.09 4712.89 428.605C4718.09 427.121 4725.51 427.121 4729.59 428.234C4736.27 430.461 4736.64 432.687 4734.04 453.839C4732.19 466.456 4722.54 517.666 4712.52 567.763C4698.79 636.043 4693.22 673.152 4690.62 716.198C4688.77 747.74 4686.17 785.962 4685.06 800.435C4683.95 815.278 4684.32 827.524 4685.8 827.524C4687.66 827.153 4695.45 818.618 4703.61 808.598C4711.78 798.208 4729.22 780.396 4742.58 769.263C4755.94 757.76 4778.2 742.916 4792.68 735.865C4806.78 729.186 4824.22 723.62 4830.53 723.62C4838.69 723.62 4843.64 725.722 4845.37 729.928C4846.48 733.639 4844.63 745.885 4840.92 757.017C4837.58 768.15 4828.3 790.786 4820.14 807.114C4812.34 823.442 4806.41 837.172 4806.78 837.543C4807.15 837.914 4819.02 835.317 4833.5 831.235C4847.6 827.524 4902.89 814.165 4955.96 801.919C5009.02 789.673 5099.2 769.634 5156.35 757.388C5213.5 745.143 5291.05 729.186 5328.91 722.135C5366.76 715.085 5422.42 705.065 5453.22 699.87C5483.65 694.675 5532.27 687.253 5560.84 683.171C5589.41 679.089 5626.89 673.894 5644.34 672.038C5661.78 669.812 5681.45 667.214 5687.75 666.101L5700 664.246V0H0V339.545Z" fill="#EDEDED"/>
<path d="M4698.79 437.511C4690.25 443.82 4676.52 457.55 4667.99 468.312C4659.45 479.073 4646.09 502.081 4637.56 519.522C4626.05 544.013 4619.75 564.423 4610.47 610.438C4604.16 643.094 4596 690.222 4592.66 715.085C4589.32 740.318 4586.72 767.037 4586.72 774.458C4586.72 782.251 4585.23 791.157 4583.38 794.126C4581.15 798.208 4575.21 790.044 4560.74 762.584C4549.61 742.174 4534.02 714.713 4525.49 701.354C4516.95 687.995 4498.4 666.472 4484.3 653.113C4470.2 639.754 4449.41 624.168 4438.28 618.602C4427.15 613.036 4410.82 607.098 4401.91 605.614C4387.81 603.387 4386.33 603.758 4386.33 610.438C4386.33 614.52 4407.11 658.679 4432.34 708.776C4457.58 758.873 4484.67 814.536 4492.09 833.09C4499.88 851.273 4508.42 874.652 4511.39 885.042C4514.36 895.062 4515.1 904.71 4513.61 905.823C4512.13 906.936 4463.14 919.924 4404.88 934.768C4346.62 949.24 4257.19 971.877 4206.35 984.865C4155.14 998.224 4067.56 1020.86 4011.52 1035.33C3955.49 1049.8 3806.68 1087.28 3681.25 1118.83C3555.82 1150.74 3386.97 1192.3 3306.45 1211.6C3225.92 1230.52 3133.14 1252.42 3100.49 1259.84C3058.55 1269.49 3036.29 1272.83 3024.41 1271.34C3015.14 1270.6 2930.16 1243.51 2835.16 1211.97C2740.16 1180.43 2605.82 1135.15 2536.43 1111.41C2467.03 1087.66 2391.7 1061.68 2369.43 1053.89C2346.8 1046.09 2299.3 1029.4 2263.67 1016.78C2228.05 1004.16 2175.35 985.978 2146.78 975.959C2118.2 966.31 2036.19 938.108 1964.94 913.616C1893.32 889.124 1805 859.808 1768.26 848.305C1731.52 836.43 1696.27 825.297 1690.33 823.442C1684.02 821.215 1665.1 815.278 1647.66 810.454C1630.21 805.259 1581.97 791.157 1540.04 779.283C1498.11 767.408 1443.93 752.193 1419.43 745.885C1394.94 739.576 1342.99 726.959 1304.39 717.682C1265.43 708.405 1197.15 693.561 1152.25 684.655C1107.34 675.749 1041.29 664.246 1005.66 659.05C970.039 653.855 911.406 646.433 875.781 642.351C840.156 638.27 783.379 632.703 749.609 630.106C715.469 627.508 628.262 625.653 552.93 625.653C477.969 625.653 392.617 627.879 361.816 630.477C331.016 632.703 270.898 639.012 228.223 644.207C185.176 649.031 125.059 657.566 94.6289 662.39C63.8281 667.585 30.0586 673.523 19.2969 675.378L0 679.089V1707H5700V664.246C5681.45 667.214 5661.78 669.812 5644.34 672.038C5626.89 673.894 5589.41 679.089 5560.84 683.171C5532.27 687.253 5483.65 694.675 5453.22 699.87C5422.42 705.065 5366.76 715.085 5328.91 722.135C5291.05 729.186 5213.5 745.143 5156.35 757.388C5099.2 769.634 5009.02 789.673 4955.96 801.919C4902.89 814.165 4847.6 827.524 4833.5 831.235C4819.02 835.317 4807.15 837.914 4806.78 837.543C4806.41 837.172 4812.34 823.442 4820.14 807.114C4828.3 790.786 4837.58 768.15 4840.92 757.017C4844.63 745.885 4846.48 733.639 4845.37 729.928C4843.64 725.722 4838.69 723.62 4830.53 723.62C4824.22 723.62 4806.78 729.186 4792.68 735.865C4778.2 742.916 4755.94 757.76 4742.58 769.263C4729.22 780.396 4711.78 798.208 4703.61 808.598C4695.45 818.618 4687.66 827.153 4685.8 827.524C4684.32 827.524 4683.95 815.278 4685.06 800.435C4686.17 785.962 4688.77 747.74 4690.62 716.198C4693.22 672.781 4698.79 636.043 4712.89 565.908C4723.28 514.698 4732.19 463.116 4732.56 450.871C4733.3 429.719 4732.93 428.605 4724.02 427.492C4718.09 426.75 4708.81 430.461 4698.79 437.511Z" fill="#0D8B65"/>
</g>
<defs>
<clipPath id="clip0_2470_9">
<rect width="5700" height="1707" fill="white"/>
</clipPath>
</defs>
</svg>
