<svg width="152" height="39" viewBox="0 0 152 39" fill="none" xmlns="http://www.w3.org/2000/svg">
<path d="M129.286 13.5469C129.579 13.1529 130.134 12.6643 130.519 12.4595C131.104 12.1443 131.428 12.097 132.861 12.097C134.187 12.097 134.649 12.16 135.096 12.3964C135.42 12.554 135.944 12.9796 136.252 13.342C136.575 13.6888 136.945 14.2561 137.084 14.5871C137.238 14.9496 137.346 15.6745 137.361 16.5098C137.361 17.2505 137.284 18.5271 137.192 19.3466C137.084 20.1662 136.914 21.3797 136.822 22.0259C136.729 22.672 136.606 23.6334 136.529 24.1535C136.452 24.6736 136.298 25.761 136.19 26.5648C136.082 27.3685 135.959 28.0147 135.913 28.0147C135.866 28.0147 135.82 28.2038 135.805 28.456C135.805 28.6924 135.697 29.2598 135.574 29.7168C135.466 30.1738 135.327 30.5363 135.25 30.5363C135.188 30.5363 135.173 30.6151 135.219 30.6939C135.265 30.7727 135.111 31.2298 134.896 31.6868C134.68 32.1281 134.31 32.6639 134.094 32.8531C133.786 33.121 133.478 33.2155 132.908 33.2155C132.199 33.2313 132.091 33.184 131.551 32.5851C131.243 32.2384 130.873 31.6868 130.735 31.3716C130.611 31.0406 130.396 30.3787 130.257 29.9059C130.134 29.4331 129.979 28.5821 129.902 28.0147C129.841 27.4473 129.61 25.8556 129.378 24.4687C129.163 23.0818 128.916 21.4112 128.824 20.765C128.731 20.1189 128.592 19.063 128.515 18.4483C128.423 17.8179 128.361 16.9511 128.361 16.5098C128.361 16.0843 128.454 15.3908 128.546 14.9968C128.654 14.6028 128.993 13.9567 129.286 13.5469Z" fill="#F65D24"/>
<path fill-rule="evenodd" clip-rule="evenodd" d="M44.6048 5.37668C49.448 5.37668 50.4812 5.4236 51.7243 5.67386C52.5476 5.83027 53.7423 6.20566 54.4688 6.54976C55.4374 7.00336 56.0509 7.42567 56.9065 8.25465C57.6976 9.02106 58.198 9.67799 58.5371 10.3818C58.8115 10.9449 59.1182 11.7739 59.2151 12.2275C59.312 12.6654 59.3927 13.6978 59.3927 14.4798C59.3927 15.2775 59.2797 16.3568 59.1505 16.8729C59.0052 17.3891 58.7146 18.2024 58.4725 18.6716C58.198 19.2191 57.6007 19.9699 56.8258 20.705C56.0186 21.487 55.2598 22.0345 54.5818 22.3473C54.0329 22.5976 53.5808 22.9104 53.5808 23.0042C53.5808 23.1137 54.8724 24.9907 56.4545 27.1491C58.0366 29.3233 59.5703 31.4348 59.8447 31.8415C60.1353 32.2638 60.3613 32.7017 60.3613 32.8269C60.3613 32.952 60.2483 33.0928 60.1192 33.1397C59.99 33.1866 58.7469 33.2179 57.3747 33.2179C56.0024 33.2179 54.7432 33.171 54.5979 33.0928C54.4526 33.0302 52.8544 30.8248 47.769 23.364H44.0559V28.0563C44.0559 32.7487 44.0559 32.7487 43.6846 32.9833C43.4101 33.171 42.8289 33.2179 41.15 33.2179C39.3096 33.2179 38.9221 33.171 38.6799 32.9364C38.4055 32.6861 38.3893 31.904 38.3732 19.3129C38.3409 6.5654 38.3571 5.93976 38.6476 5.65822C38.9221 5.39232 39.3257 5.37668 44.6048 5.37668ZM44.0559 18.6716C50.5781 18.5934 50.9817 18.5465 51.6436 18.2493C52.0472 18.0773 52.5961 17.6862 52.8867 17.4047C53.1772 17.1075 53.5163 16.5601 53.6616 16.1691C53.7907 15.778 53.9037 15.0429 53.9037 14.5267C53.9037 13.8072 53.8069 13.3849 53.4678 12.728C53.1772 12.1806 52.7575 11.6801 52.2893 11.3516C51.8857 11.0544 51.1915 10.7259 50.7556 10.5852C50.2068 10.4288 48.996 10.3193 47.0264 10.2724L44.0882 10.1941L44.0559 18.6716Z" fill="#EDEDED"/>
<path d="M131.672 3.72326C131.797 3.393 132.094 2.98409 132.328 2.81109C132.547 2.6381 132.906 2.49655 133.109 2.49655C133.297 2.49655 133.641 2.57519 133.859 2.65382C134.078 2.73246 134.359 3.047 134.5 3.33009C134.687 3.69181 134.734 4.06926 134.672 4.61971C134.625 5.06007 134.531 5.54761 134.469 5.72061C134.375 5.98797 134.422 5.97224 134.812 5.62624C135.062 5.39034 135.422 5.12298 135.609 5.02861C135.812 4.93425 136.219 4.85562 136.516 4.85562C136.953 4.85562 137.156 4.9657 137.531 5.40606C137.781 5.70488 138 6.09806 138 6.27105C138 6.44405 137.922 6.74287 137.828 6.94732C137.719 7.13604 136.906 8.04821 136.031 8.97611C135.141 9.91974 134.305 11.228 134.305 11.228C134.305 11.228 134.011 11.9037 133.642 12.068C133.534 12.1158 133.332 12.0901 133.332 12.0901H132.609C132.094 12.0901 131.953 11.9643 130.5 10.1556C129.625 9.10193 128.719 7.79658 128.469 7.26186C128.188 6.67996 128 6.01942 128 5.64197C128 5.20161 128.109 4.88707 128.375 4.58825C128.688 4.22653 128.891 4.1479 129.484 4.1479C130.109 4.1479 130.281 4.22653 130.625 4.63544C130.859 4.9028 131.125 5.24879 131.234 5.42179C131.391 5.67342 131.422 5.62624 131.422 5.01289C131.422 4.61971 131.531 4.03781 131.672 3.72326Z" fill="#0D8B65" fill-opacity="0.97"/>
<path d="M1.25789 0.576865C1.44949 0.430823 1.75606 0.233667 1.94766 0.153344C2.2159 0.0365104 2.44583 0 2.98232 0C3.35786 0 3.82537 0.0438125 4.01697 0.102229C4.20857 0.153344 4.62244 0.321292 4.93667 0.474636C5.2509 0.620677 5.73374 0.898157 6.00964 1.08071C6.28555 1.26326 6.77606 1.66488 7.11328 1.96426C7.44283 2.27095 7.91035 2.75289 8.14793 3.03037C8.38552 3.31515 8.69209 3.68755 8.82238 3.87011C8.95267 4.05266 9.25157 4.5419 9.48149 4.96542C9.71908 5.38894 10.0486 6.06803 10.2172 6.48425C10.3935 6.89317 10.6464 7.61608 10.7921 8.09071C10.9377 8.55805 11.0833 9.07649 11.1063 9.23714C11.1293 9.39779 11.1983 9.72638 11.2596 9.96735C11.3132 10.2083 11.3975 10.6172 11.4435 10.8801C11.4895 11.143 11.5508 11.8294 11.6428 13.4504L11.911 13.4066C12.0566 13.3774 12.5548 13.3263 13.0223 13.2825C13.4898 13.2387 13.8714 13.229 13.9174 13.2217C13.9557 13.2217 14.4708 13.2387 15.015 13.2898C15.5591 13.3336 16.0573 13.3847 16.111 13.3993C16.1569 13.4212 16.2029 13.4139 16.2106 13.3847C16.2183 13.3482 16.2336 13.1657 16.2489 12.9612C16.2719 12.764 16.3409 12.1872 16.4022 11.6833C16.4712 11.1795 16.5555 10.5588 16.5938 10.2959C16.6321 10.0331 16.6934 9.67526 16.7318 9.49271C16.7701 9.31016 16.8697 8.91585 16.954 8.61646C17.0383 8.31708 17.1763 7.87165 17.2606 7.63068C17.3525 7.38971 17.4905 6.9954 17.5825 6.75443C17.6744 6.51346 17.981 5.85627 18.2722 5.29401C18.5558 4.73175 19.008 3.97964 19.2762 3.61453C19.5445 3.25673 20.15 2.59954 20.6098 2.15412C21.0773 1.71599 21.6981 1.19754 21.9893 1.00769C22.2882 0.825136 22.7174 0.576865 22.9474 0.467334C23.1773 0.357802 23.5605 0.204458 23.7904 0.131438C24.0893 0.0365104 24.4265 0 24.94 0C25.5455 0 25.7294 0.0292084 26.0513 0.17525C26.2659 0.270177 26.5955 0.503844 26.8024 0.686396C27.0017 0.868948 27.2546 1.16103 27.3696 1.33628C27.4769 1.50423 27.6531 1.85473 27.7528 2.1176C27.9137 2.51192 27.952 2.76749 27.9827 3.68755C28.021 4.5346 27.998 4.96542 27.8907 5.5861C27.8217 6.03152 27.7068 6.57188 27.6455 6.79094C27.5842 7.01 27.5075 7.29478 27.4692 7.41162C27.4309 7.53575 27.3696 7.73291 27.3312 7.84974C27.2852 7.97388 27.1626 8.30247 27.0477 8.57995C26.9404 8.86473 26.7564 9.28825 26.6415 9.52922C26.5342 9.77019 26.2506 10.3105 26.0283 10.7341C25.7984 11.1576 25.5915 11.5154 25.5608 11.5373C25.5378 11.5592 25.4689 11.676 25.4075 11.7929C25.3539 11.9097 25.0933 12.3259 24.8251 12.7056C24.5645 13.0853 24.1123 13.6987 23.8211 14.0565C23.5375 14.4143 23.1773 14.8451 23.024 14.9985C22.8784 15.1591 22.6408 15.4074 22.5028 15.5461C22.3649 15.6922 22.2576 15.8236 22.2576 15.8455C22.2576 15.8674 22.4032 15.9697 22.5871 16.0792C22.7634 16.1887 23.2769 16.6122 23.7214 17.0285C24.166 17.4447 24.6948 17.9631 24.894 18.1822C25.0933 18.4013 25.4765 18.8978 25.7371 19.2775C26.0053 19.6572 26.3272 20.1538 26.4499 20.3728C26.5725 20.5919 26.8024 21.0519 26.9557 21.3951C27.109 21.7383 27.3082 22.2276 27.3925 22.4904C27.4769 22.7533 27.5995 23.1768 27.6608 23.4397C27.7144 23.7026 27.7987 24.1115 27.8447 24.3525C27.8907 24.5934 27.9444 25.1046 27.9674 25.4843C27.998 25.9297 27.975 26.5358 27.8984 27.1638C27.8294 27.7041 27.7298 28.3613 27.6685 28.6242C27.6071 28.8871 27.4692 29.3617 27.3542 29.683C27.2393 30.0043 26.994 30.5811 26.8101 30.9608C26.6185 31.3406 26.3349 31.8517 26.1816 32.0927C26.0283 32.3336 25.6605 32.8448 25.3539 33.2245C25.0473 33.6042 24.4955 34.203 24.12 34.5462C23.7521 34.8894 23.2769 35.3056 23.0623 35.4662C22.8554 35.6269 22.4185 35.9263 22.1043 36.1234C21.7901 36.3279 21.1999 36.6565 20.8014 36.8536C20.4029 37.0581 19.6901 37.3575 19.2303 37.5181C18.7704 37.6861 18.1266 37.8832 17.8124 37.9636C17.4982 38.0366 16.8544 38.1607 16.3945 38.2191C15.9347 38.2848 14.9997 38.3652 14.3252 38.3871C13.5358 38.4163 12.8384 38.4017 12.3709 38.3433C11.9723 38.2994 11.4512 38.2191 11.2212 38.1753C10.9913 38.1315 10.4855 38.0147 10.1099 37.9197C9.73441 37.8175 9.34354 37.7299 9.25157 37.708C9.15193 37.6934 9.07529 37.6569 9.07529 37.6277C9.07529 37.5911 8.99865 37.5619 8.90668 37.5546C8.80705 37.5473 8.66143 37.5035 8.57713 37.467C8.49282 37.4305 8.10961 37.2626 7.73407 37.0946C7.35853 36.9267 6.75306 36.6273 6.39285 36.4228C6.03264 36.211 5.46549 35.8459 5.12827 35.605C4.79105 35.364 4.17025 34.831 3.74873 34.4293C3.31954 34.0277 2.76772 33.4363 2.5148 33.115C2.26189 32.7937 1.88635 32.2533 1.67175 31.9101C1.46482 31.5669 1.18891 31.0631 1.05096 30.7783C0.920666 30.4935 0.744392 30.0846 0.660086 29.8655C0.583445 29.6465 0.476147 29.3471 0.430163 29.2083C0.384178 29.0696 0.315201 28.7556 0.269216 28.5146C0.223231 28.2737 0.154254 27.8136 0.108269 27.4924C0.0699489 27.1711 0.0316282 26.5285 0.0316282 26.0684C0.0316282 25.6084 0.0852771 24.9147 0.154254 24.535C0.223231 24.1553 0.307537 23.6515 0.345857 23.4251C0.384178 23.1914 0.522132 22.6949 0.644758 22.3298C0.775048 21.9574 1.06628 21.2929 1.28854 20.8475C1.51847 20.402 1.90934 19.7448 2.16992 19.387C2.4305 19.0292 2.71407 18.6276 2.8137 18.5035C2.90567 18.3794 3.38851 17.8974 3.87902 17.4301C4.37719 16.9627 4.81404 16.5757 4.86003 16.5757C4.90601 16.5757 4.98265 16.5027 5.04396 16.4151C5.10528 16.3202 5.27389 16.1668 5.42717 16.0646C5.58045 15.9624 5.70308 15.8674 5.70308 15.8455C5.70308 15.8236 5.61111 15.7068 5.49615 15.5754C5.37352 15.4512 5.1436 15.2029 4.97499 15.0277C4.80638 14.8524 4.53047 14.5458 4.36186 14.3486C4.18558 14.1441 3.8407 13.706 3.58012 13.3628C3.3272 13.0196 2.921 12.4282 2.67575 12.0484C2.4305 11.6687 2.08561 11.0773 1.90934 10.7341C1.7254 10.3909 1.44183 9.814 1.27322 9.4562C1.11227 9.0984 0.836361 8.4047 0.66775 7.92276C0.49914 7.44083 0.322865 6.88587 0.27688 6.68141C0.230895 6.48425 0.154254 6.05343 0.0929412 5.73214C0.0316282 5.38164 -0.00669237 4.62222 0.000971755 3.8336C0.00863588 2.65066 0.0239641 2.47541 0.184911 2.08109C0.284544 1.84013 0.483811 1.46772 0.637094 1.24866C0.790376 1.02959 1.06628 0.730209 1.25789 0.576865Z" fill="#F65D24"/>
<path d="M12.1208 27.424C12.2381 27.3139 12.3773 27.2112 12.436 27.1891C12.4946 27.1671 13.1981 27.1451 13.9897 27.1451C15.2282 27.1378 15.4774 27.1598 15.7046 27.2699C15.8878 27.3579 15.9977 27.4827 16.0784 27.6881C16.181 27.9597 16.181 28.011 16.0784 28.3119C16.0124 28.4953 15.8365 28.7595 15.6973 28.8989C15.5507 29.0384 15.2795 29.2438 14.7445 29.53L14.7225 29.9703C14.7079 30.3152 14.7372 30.462 14.8764 30.6968C14.9864 30.8729 15.1696 31.049 15.3381 31.1298C15.558 31.2398 15.7266 31.2618 16.1003 31.2325C16.3642 31.2105 16.6866 31.1444 16.8112 31.0784C16.9431 31.005 17.2656 30.7555 17.5295 30.5133C17.9252 30.1464 18.0498 30.0731 18.2623 30.0731C18.4382 30.0731 18.5775 30.1318 18.7021 30.2565C18.834 30.3886 18.8853 30.5207 18.8853 30.7188C18.8853 30.8876 18.8193 31.0931 18.7021 31.2692C18.5995 31.4159 18.4089 31.6434 18.2843 31.7608C18.1524 31.8856 17.9105 32.069 17.7493 32.1644C17.5881 32.2598 17.2729 32.4139 17.0531 32.4947C16.7673 32.5974 16.4741 32.6414 16.0271 32.6414C15.6826 32.6414 15.2429 32.5974 15.0377 32.5387C14.8398 32.48 14.51 32.3112 13.9384 31.8929L13.7185 32.1131C13.6012 32.2305 13.3814 32.3699 13.2421 32.4213C13.1029 32.4726 12.9563 32.5387 12.9123 32.568C12.8684 32.5974 12.5239 32.6267 12.1428 32.6341C11.5931 32.6488 11.3513 32.6194 10.9702 32.4947C10.7064 32.4066 10.3473 32.2452 10.164 32.1278C9.98082 32.0103 9.68034 31.7608 9.49712 31.5627C9.3139 31.3719 9.13801 31.1298 9.10869 31.027C9.07205 30.9243 9.07205 30.7335 9.09404 30.6087C9.11602 30.462 9.21863 30.3079 9.33589 30.2198C9.46048 30.1318 9.6437 30.0731 9.7976 30.0731C10.0101 30.0804 10.1127 30.1464 10.3839 30.4473C10.5671 30.6528 10.8603 30.9096 11.0435 31.0123C11.3 31.1591 11.4905 31.2105 11.8863 31.2252C12.2601 31.2398 12.4653 31.2105 12.6558 31.1151C12.7951 31.049 12.9856 30.8729 13.0809 30.7335C13.2055 30.5354 13.2421 30.3739 13.2421 29.5594L12.861 29.3466C12.6485 29.2292 12.348 28.9943 12.1941 28.8182C12.0475 28.6421 11.901 28.3926 11.879 28.2752C11.857 28.1578 11.857 27.9523 11.879 27.8349C11.901 27.7175 12.0109 27.5267 12.1208 27.424Z" fill="#0D1116"/>
<path d="M19.4716 22.434C19.6108 22.3166 19.86 22.1918 20.0212 22.1551C20.1825 22.1185 20.461 22.1038 20.6442 22.1258C20.8274 22.1478 21.0399 22.1992 21.1205 22.2359C21.2012 22.2799 21.3624 22.3973 21.4723 22.5074C21.5896 22.6101 21.7508 22.8449 21.8388 23.0284C21.9634 23.2926 22 23.498 22 24.019C22 24.518 21.9634 24.7602 21.8534 25.0097C21.7801 25.1932 21.6336 25.4133 21.5456 25.5087C21.4503 25.5968 21.2671 25.7288 21.1352 25.7949C20.9886 25.8756 20.7248 25.9196 20.4243 25.9196C20.0725 25.9196 19.882 25.8756 19.6914 25.7655C19.5522 25.6775 19.3616 25.5307 19.2737 25.4353C19.1858 25.3399 19.0465 25.1198 18.9659 24.9363C18.856 24.6942 18.812 24.452 18.812 24.0411C18.812 23.5641 18.8486 23.4026 19.0099 23.0577C19.1271 22.8303 19.3323 22.5441 19.4716 22.434Z" fill="#0D1116"/>
<path d="M6.60958 22.4046C6.72684 22.3092 6.93205 22.2065 7.04931 22.1625C7.16657 22.1185 7.34979 22.0818 7.45239 22.0818C7.555 22.0744 7.79685 22.1185 8.00205 22.1772C8.22191 22.2432 8.45643 22.3826 8.59568 22.5294C8.7276 22.6615 8.89616 22.9036 8.97678 23.0651C9.05739 23.2265 9.13801 23.5054 9.16733 23.6742C9.18931 23.8503 9.19664 24.1658 9.17465 24.3713C9.15267 24.6134 9.05006 24.8996 8.89616 25.1565C8.73493 25.4353 8.56637 25.6114 8.33185 25.7362C8.07534 25.8829 7.89945 25.9196 7.52568 25.9196C7.14458 25.9196 6.99801 25.8829 6.77815 25.7362C6.63157 25.6408 6.42637 25.428 6.31643 25.2665C6.21383 25.1051 6.09657 24.8409 6.0526 24.6795C6.00863 24.518 5.98664 24.1365 6.00863 23.8356C6.03305 23.4687 6.10146 23.1654 6.21383 22.9257C6.3091 22.7275 6.49232 22.4927 6.60958 22.4046Z" fill="#0D1116"/>
<path fill-rule="evenodd" clip-rule="evenodd" d="M85.0835 5.37668C86.733 5.37668 87.4516 5.42293 87.5986 5.5617C87.7456 5.71588 87.7946 6.87226 87.7946 10.4956C87.7946 13.1167 87.8436 15.2445 87.9252 15.2445C87.9906 15.229 88.3825 14.9207 88.8235 14.5506C89.2481 14.1652 90.0484 13.6564 90.62 13.3942C91.1753 13.1475 92.0409 12.87 92.5309 12.7775C93.0208 12.685 93.8701 12.6233 94.409 12.6233C94.948 12.6233 95.8299 12.7313 96.3689 12.8546C96.9078 12.9934 97.7571 13.2863 98.247 13.5176C98.786 13.7643 99.6353 14.3964 100.37 15.0903C101.089 15.7533 101.824 16.6321 102.118 17.1718C102.412 17.6806 102.804 18.6519 103 19.3303C103.294 20.3325 103.359 20.9955 103.359 22.8766C103.375 24.6343 103.31 25.436 103.081 26.1915C102.934 26.7466 102.526 27.7179 102.199 28.3501C101.775 29.1518 101.252 29.8303 100.452 30.6012C99.6189 31.3875 98.9657 31.8501 98.0837 32.2509C97.4141 32.5593 96.3035 32.9293 95.6339 33.0527C94.85 33.2069 94.0824 33.2531 93.5108 33.1915C93.0208 33.1452 92.1552 33.0064 91.5999 32.8831C91.0283 32.7597 90.228 32.4976 89.8034 32.2972C89.3624 32.0968 88.6765 31.6496 87.4679 30.6628V31.5109C87.4679 32.2201 87.4026 32.3897 87.1086 32.5901C86.831 32.7597 86.243 32.8214 84.7732 32.8214C83.4013 32.8214 82.748 32.7597 82.601 32.6364C82.4377 32.4822 82.3887 29.6298 82.3724 19.099C82.3397 7.81279 82.3724 5.71588 82.5683 5.5617C82.7153 5.43835 83.5483 5.37668 85.0998 5.37668L85.0835 5.37668ZM90.0647 17.7422C89.6564 17.9581 89.1338 18.4052 88.8888 18.729C88.6438 19.0682 88.3172 19.6079 88.1702 19.9471C87.9742 20.3788 87.8599 21.1343 87.8109 22.4911C87.7619 23.9404 87.7946 24.6188 87.9906 25.2664C88.1376 25.729 88.4969 26.4536 88.7908 26.8853C89.1828 27.4404 89.5748 27.7796 90.228 28.088C90.816 28.3655 91.5019 28.5505 92.1879 28.6122C92.9718 28.6739 93.5271 28.6276 94.311 28.4118C95.046 28.2113 95.5849 27.9338 96.1076 27.4867C96.5159 27.132 97.0221 26.4999 97.2508 26.0219C97.6264 25.251 97.6591 25.0197 97.6591 22.8766C97.6591 20.718 97.6264 20.5021 97.2345 19.7158C97.0058 19.2532 96.5649 18.6365 96.2545 18.3435C95.9442 18.066 95.4053 17.6806 95.046 17.511C94.5887 17.2951 94.0007 17.1872 93.0861 17.1563C92.3675 17.1255 91.5673 17.1563 91.2896 17.218C91.0283 17.2951 90.473 17.5264 90.0647 17.7422Z" fill="#EDEDED"/>
<path fill-rule="evenodd" clip-rule="evenodd" d="M107.783 5.37668C108.931 5.37668 110.016 5.45393 110.187 5.53118C110.481 5.68568 110.497 5.84018 110.497 10.4752C110.497 13.1018 110.543 15.2648 110.621 15.2648C110.683 15.2648 110.9 15.0948 111.117 14.8785C111.334 14.6468 111.892 14.2142 112.357 13.9206C112.823 13.6116 113.598 13.2254 114.063 13.0709C114.528 12.9009 115.474 12.731 116.156 12.6846C116.901 12.6228 117.8 12.6692 118.405 12.7773C118.963 12.8855 119.94 13.2254 120.56 13.5344C121.304 13.9052 122.033 14.415 122.576 14.9712C123.056 15.4502 123.708 16.2845 124.033 16.8253C124.359 17.366 124.762 18.2621 124.948 18.8183C125.212 19.6217 125.289 20.3324 125.336 22.3719C125.398 24.3804 125.351 25.1529 125.15 26.0027C125.01 26.6052 124.669 27.594 124.374 28.1966C124.018 28.9536 123.475 29.6953 122.777 30.4214C122.204 31.024 121.351 31.7501 120.886 32.0282C120.42 32.3063 119.552 32.6926 118.947 32.878C118.203 33.1252 117.474 33.2179 116.621 33.2179C115.939 33.2179 114.962 33.1406 114.451 33.0325C113.939 32.9243 113.148 32.6771 112.698 32.4763C112.264 32.2754 111.536 31.781 110.326 30.6377L110.342 31.4411C110.342 32.0591 110.264 32.3372 110.031 32.569C109.752 32.8471 109.52 32.878 107.737 32.878C106.357 32.878 105.705 32.8316 105.566 32.6926C105.411 32.5381 105.38 29.7107 105.364 19.2355C105.349 9.71818 105.395 5.88653 105.519 5.67023C105.69 5.40758 105.891 5.37668 107.783 5.37668V5.37668ZM112.916 17.675C112.574 17.8295 112.032 18.2776 111.706 18.6638C111.38 19.0501 110.993 19.699 110.838 20.1316C110.636 20.7187 110.574 21.4294 110.574 23.0826V25.2611C111.551 27.1769 111.83 27.5013 112.435 27.903C112.869 28.1811 113.598 28.4747 114.063 28.5674C114.528 28.6601 115.303 28.7064 115.769 28.6601C116.234 28.6292 116.994 28.4283 117.459 28.2275C117.924 28.0112 118.544 27.5786 118.839 27.2387C119.149 26.8988 119.537 26.3117 119.707 25.9254C119.986 25.3229 120.033 24.9212 120.033 22.9126C120.033 20.7187 120.017 20.5487 119.614 19.7453C119.397 19.2818 118.885 18.602 118.498 18.2312C118.032 17.8141 117.505 17.5051 116.963 17.3506C116.528 17.227 115.769 17.1188 115.303 17.1343C114.838 17.1497 114.234 17.1961 113.985 17.2579C113.737 17.3197 113.241 17.5051 112.916 17.675Z" fill="#EDEDED"/>
<path d="M140.373 18.3691C140.341 9.2862 140.357 8.80178 140.653 8.52929C140.916 8.28708 141.228 8.25681 143.101 8.25681C144.908 8.25681 145.303 8.30222 145.549 8.52929C145.796 8.75637 145.845 9.07427 145.828 13.5552H148.326C150.133 13.5552 150.906 13.6006 151.053 13.7368C151.185 13.8731 151.251 14.4483 151.251 15.5231C151.251 16.5677 151.185 17.1732 151.053 17.3095C150.906 17.4306 150.133 17.4911 145.828 17.4911V22.2596C145.828 26.4832 145.861 27.0887 146.124 27.5732C146.272 27.8759 146.601 28.2241 146.864 28.3301C147.159 28.4814 147.915 28.542 149.164 28.542C150.462 28.5269 151.07 28.5874 151.201 28.7237C151.349 28.8599 151.398 29.4352 151.333 32.4022L150.758 32.6596C150.446 32.811 149.591 33.0078 148.868 33.1137C147.866 33.25 147.241 33.25 146.239 33.1289C145.516 33.038 144.514 32.8261 144.021 32.6445C143.462 32.4628 142.822 32.0843 142.345 31.6605C141.901 31.282 141.376 30.6462 141.162 30.2526C140.948 29.8439 140.686 29.1627 140.587 28.7388C140.472 28.1938 140.39 24.7877 140.373 18.3691Z" fill="#EDEDED"/>
<path fill-rule="evenodd" clip-rule="evenodd" d="M70.8998 13.057C71.9654 13.057 73.1406 13.1324 73.7987 13.2682C74.4098 13.4039 75.2716 13.6754 75.726 13.8715C76.1648 14.0827 76.8699 14.5503 77.2773 14.9123C77.7004 15.2743 78.2175 15.9379 78.4525 16.3753C78.6719 16.8278 78.9696 17.7177 79.1106 18.3512C79.3143 19.3166 79.3613 20.659 79.3613 32.3485L79.0009 32.5748C78.7502 32.7407 78.2175 32.801 76.9326 32.801C75.9767 32.801 75.0992 32.7256 74.9739 32.6502C74.8172 32.5597 74.7232 32.2128 74.6918 31.5944C74.6762 31.0966 74.6292 30.6894 74.5822 30.6894C74.5352 30.6894 74.1748 30.9609 73.7517 31.3078C73.3443 31.6547 72.7645 32.0469 72.4668 32.1977C72.1691 32.3485 71.4326 32.605 70.8215 32.786C70.2104 32.967 69.1919 33.148 68.5494 33.1932C67.766 33.2535 66.9825 33.2033 66.199 33.0424C65.5566 32.9066 64.6007 32.605 64.0837 32.3636C63.5666 32.1223 62.9398 31.7 62.6891 31.4285C62.4384 31.1419 62.0623 30.5385 61.8429 30.086C61.5609 29.5129 61.4199 28.8945 61.3728 28.0498C61.3415 27.3861 61.3728 26.4811 61.4825 26.0437C61.5765 25.6214 61.8429 24.8823 62.078 24.4147C62.3443 23.8868 62.8458 23.2684 63.3785 22.8159C63.8486 22.3936 64.5851 21.9109 65.0238 21.7148C65.4469 21.5187 66.2304 21.2472 66.7475 21.1115C67.4212 20.9305 68.6435 20.8249 74.3785 20.659L74.2688 19.9802C74.2218 19.6032 74.0494 19.0602 73.8927 18.7736C73.7047 18.3965 73.3756 18.125 72.7802 17.8233C72.0437 17.4613 71.7303 17.401 70.5081 17.3859C69.662 17.3708 68.6591 17.4764 68.001 17.6272C67.3899 17.763 66.199 18.2155 65.3372 18.6227C64.4754 19.03 63.7233 19.3166 63.6449 19.2562C63.5822 19.1959 63.3942 18.5021 63.2218 17.7177C63.0495 16.9334 62.9084 16.1038 62.9084 15.8625C62.9084 15.5759 63.0495 15.3497 63.4099 15.0933C63.6919 14.8972 64.35 14.5352 64.8671 14.2788C65.3842 14.0374 66.2304 13.7056 66.7475 13.5698C67.2645 13.419 68.001 13.2531 68.3927 13.1928C68.7845 13.1324 69.9127 13.0721 70.8998 13.057V13.057ZM68.0794 25.1236C67.7033 25.3197 67.2175 25.727 67.0295 26.0136C66.8258 26.3001 66.6691 26.7677 66.6691 27.0241C66.6691 27.2956 66.7475 27.6727 66.8258 27.8537C66.9198 28.0498 67.2645 28.3666 67.5779 28.5777C68.0167 28.8492 68.4241 28.9548 69.2546 29C69.991 29.0453 70.6648 28.985 71.2916 28.804C72.0124 28.6079 72.3884 28.3967 72.9525 27.8537C73.3913 27.4012 73.7517 26.8582 73.924 26.3906C74.0651 25.9683 74.2374 25.3499 74.3001 24.9879L74.4255 24.3544C71.746 24.3695 70.4924 24.46 69.8813 24.5656C69.2702 24.6711 68.4711 24.9125 68.0794 25.1236Z" fill="#EDEDED"/>
</svg>
