<svg width="19" height="30" viewBox="0 0 19 30" fill="none"
    xmlns="http://www.w3.org/2000/svg">
    <g clip-path="url(#clip0_24_448)">
        <path d="M8.50922 21.5933L8.15799 21.2467L8.15205 21.2526L0.905219 14.1011C0.904923 14.1008 0.904628 14.1005 0.904332 14.1002C0.505472 13.7016 0.387403 13.1153 0.603012 12.6046C0.820892 12.0886 1.33284 11.75 1.89989 11.75L1.90008 11.75L17.0999 11.7441C17.0999 11.7441 17.1 11.7441 17.1001 11.7441C17.6721 11.7442 18.1786 12.082 18.3968 12.5988C18.6136 13.1124 18.4978 13.6973 18.0965 14.0933L10.4965 21.5933C9.94902 22.1336 9.05669 22.1336 8.50922 21.5933Z" fill="white" stroke="black"/>
    </g>
    <defs>
        <clipPath id="clip0_24_448">
            <rect width="19" height="30" fill="white"/>
        </clipPath>
    </defs>
</svg>
