<svg width="653" height="500" viewBox="0 0 653 500" fill="none"
    xmlns="http://www.w3.org/2000/svg">
    <path d="M597.579 358.245L617.96 355.935C622.377 346.109 624.328 335.354 623.645 324.604C612.566 340.224 589.129 339.974 573.554 351.116C568.723 354.629 564.745 359.184 561.914 364.443C559.082 369.702 557.471 375.531 557.198 381.498L550.469 394.395C560.053 395.444 569.752 394.403 578.896 391.343C588.039 388.283 596.411 383.278 603.434 376.671C607.337 372.925 610.753 368.703 613.601 364.104C605.581 361.676 597.579 358.245 597.579 358.245Z" fill="#F2F2F2"/>
    <path d="M582.062 328.895L599.273 317.737C598.844 306.973 595.794 296.477 590.388 287.159C587.438 306.081 566.349 316.31 557.379 333.229C554.621 338.527 553.092 344.378 552.903 350.348C552.715 356.318 553.872 362.254 556.289 367.716L556.017 382.26C565.064 378.925 573.28 373.668 580.1 366.851C586.919 360.035 592.18 351.821 595.519 342.775C597.342 337.682 598.516 332.38 599.015 326.993C590.753 328.397 582.062 328.895 582.062 328.895Z" fill="#F2F2F2"/>
    <path d="M507.344 465.446C541.454 465.446 569.105 437.794 569.105 403.685C569.105 369.575 541.454 341.924 507.344 341.924C473.234 341.924 445.583 369.575 445.583 403.685C445.583 437.794 473.234 465.446 507.344 465.446Z" fill="white"/>
    <path d="M507.344 466.2C494.98 466.2 482.893 462.534 472.613 455.664C462.332 448.795 454.32 439.032 449.588 427.609C444.856 416.186 443.618 403.616 446.031 391.49C448.443 379.363 454.397 368.224 463.139 359.481C471.882 350.738 483.021 344.784 495.148 342.372C507.274 339.96 519.844 341.198 531.267 345.929C542.69 350.661 552.454 358.673 559.323 368.954C566.192 379.234 569.859 391.321 569.859 403.685C569.84 420.259 563.248 436.149 551.528 447.869C539.808 459.589 523.918 466.181 507.344 466.2ZM507.344 342.679C495.278 342.679 483.483 346.257 473.451 352.96C463.418 359.664 455.599 369.192 450.981 380.339C446.364 391.487 445.156 403.753 447.51 415.587C449.864 427.421 455.674 438.292 464.206 446.824C472.738 455.356 483.608 461.166 495.442 463.52C507.277 465.874 519.543 464.666 530.691 460.048C541.838 455.431 551.366 447.611 558.069 437.579C564.773 427.546 568.351 415.751 568.351 403.685C568.332 387.511 561.899 372.004 550.462 360.567C539.025 349.13 523.518 342.697 507.344 342.679Z" fill="#3F3D56"/>
    <path d="M502.72 428.368C502.588 428.368 502.457 428.364 502.325 428.357C501.162 428.301 500.024 427.994 498.991 427.457C497.958 426.92 497.053 426.166 496.338 425.247L486.017 411.977C485.365 411.14 484.884 410.182 484.603 409.159C484.321 408.136 484.244 407.067 484.376 406.014C484.507 404.961 484.845 403.944 485.369 403.021C485.894 402.099 486.595 401.289 487.433 400.637L487.804 400.348C488.642 399.696 489.6 399.215 490.623 398.933C491.647 398.652 492.716 398.574 493.769 398.706C494.823 398.838 495.84 399.176 496.762 399.7C497.685 400.225 498.495 400.927 499.147 401.765C499.668 402.435 500.328 402.983 501.081 403.374C501.834 403.765 502.662 403.989 503.51 404.03C504.357 404.072 505.204 403.929 505.991 403.614C506.778 403.298 507.488 402.815 508.072 402.2L529.028 380.076C530.504 378.522 532.535 377.617 534.677 377.559C536.818 377.5 538.896 378.294 540.453 379.765L540.797 380.093C541.568 380.823 542.187 381.697 542.619 382.666C543.052 383.635 543.289 384.68 543.318 385.741C543.347 386.802 543.166 387.858 542.786 388.849C542.407 389.84 541.835 390.747 541.105 391.517L508.584 425.844C507.829 426.641 506.92 427.276 505.912 427.71C504.904 428.144 503.818 428.368 502.72 428.368Z" fill="#FFDCA9"/>
    <path d="M475.036 482.611L466.47 483.565L458.354 450.334L470.996 448.925L475.036 482.611Z" fill="#A0616A"/>
    <path d="M531.466 333.211C531.2 332.946 530.912 332.689 530.625 332.444C528.414 330.61 526.105 328.9 523.706 327.32C520.992 325.512 517.939 323.666 514.484 321.761C512.812 320.837 511.046 319.895 509.184 318.933C508.251 318.451 507.292 317.965 506.305 317.476C506.263 317.452 506.22 317.429 506.176 317.409L505.89 317.264L485.104 334.423L483.627 335.583L487.456 340.304C487.456 340.304 487.123 344.059 487.131 344.06L483.329 353.546L483.288 353.565L469.745 359.746L455.79 366.117L448.294 369.541C446.556 370.333 444.993 371.462 443.696 372.864C442.398 374.266 441.393 375.912 440.738 377.706C440.049 379.569 439.737 381.551 439.822 383.536C439.907 385.521 440.386 387.469 441.231 389.267C441.399 389.633 441.587 390.001 441.787 390.354L444.901 409.937C446.762 421.65 450.379 433.016 455.632 443.649L460.389 461.981L461.112 461.618L471.871 456.229L474.713 454.808L475.25 442.491C475.311 441.088 475.319 439.676 475.269 438.267C475.196 435.961 474.975 433.663 474.609 431.385L468.441 392.974C469.535 392.528 470.615 392.08 471.68 391.63C476.617 389.564 481.291 387.476 485.702 385.365C500.048 378.509 511.736 371.391 521.284 363.68C523.968 361.518 526.484 359.304 528.835 357.04C529.699 356.212 530.54 355.377 531.358 354.533C531.552 354.338 531.742 354.146 531.929 353.949C533.61 352.184 534.823 350.026 535.454 347.672C536.086 345.318 536.118 342.843 535.545 340.474C534.905 337.714 533.49 335.194 531.466 333.211Z" fill="#2F2E41"/>
    <path d="M474.338 476.793L465.066 477.819L463.611 477.978L464.558 483.484L453.783 494.01C453.25 494.53 452.897 495.207 452.775 495.942C452.654 496.676 452.771 497.431 453.11 498.094C453.448 498.758 453.989 499.296 454.655 499.63C455.32 499.963 456.075 500.076 456.809 499.95L472.111 497.329L473.814 491.431L475.777 496.701L481.541 495.714L476.593 476.546L474.338 476.793Z" fill="#2F2E41"/>
    <path d="M483.162 286.129L491.102 277.709L479.902 253.206L478.236 244.599C478.02 243.481 477.514 242.439 476.769 241.577C476.024 240.716 475.065 240.065 473.99 239.69C472.914 239.315 471.759 239.229 470.64 239.441C469.521 239.652 468.477 240.153 467.612 240.894C466.331 241.993 465.526 243.546 465.368 245.226C465.21 246.907 465.711 248.583 466.766 249.901L472.949 257.63L483.162 286.129Z" fill="#A0616A"/>
    <path d="M491.102 273.939L482.053 282.988L483.785 296.217C484.336 297.944 485.324 299.499 486.653 300.732C487.982 301.965 489.607 302.833 491.371 303.253C493.545 303.771 495.828 303.582 497.888 302.715C499.948 301.848 501.679 300.348 502.829 298.431L523.181 263.547C524.623 261.143 525.068 258.27 524.421 255.543C523.774 252.815 522.086 250.449 519.718 248.949C518.444 248.142 517.015 247.613 515.523 247.395C514.031 247.177 512.51 247.276 511.059 247.685C509.608 248.094 508.259 248.804 507.101 249.769C505.942 250.733 504.999 251.931 504.334 253.284L491.912 279.753L491.102 273.939Z" fill="#E6E6E6"/>
    <path d="M481.987 407.458C481.519 407.934 481.05 408.404 480.576 408.876C479.632 409.818 478.675 410.752 477.716 411.674C477.233 412.136 476.745 412.599 476.261 413.055L476.265 413.072L476.233 413.085L476.223 413.094L475.418 413.509L473.415 410.559L472.491 409.2L471.185 407.275L468.793 403.755L456.199 385.216L467.494 379.385L468.383 381.116L468.389 381.115L468.829 381.973L477.089 397.978L478.776 401.25L478.829 401.349L479.842 403.303L480.717 404.996L481.692 406.889L481.987 407.458Z" fill="#A0616A"/>
    <path d="M479.653 401.45L471.79 406.47L470.556 407.256L473.84 411.776L468.831 425.982C468.583 426.684 468.566 427.447 468.782 428.16C468.998 428.872 469.437 429.497 470.034 429.943C470.63 430.388 471.354 430.631 472.099 430.636C472.843 430.641 473.57 430.408 474.173 429.971L486.738 420.852L485.656 414.81L489.748 418.668L494.481 415.234L481.566 400.231L479.653 401.45Z" fill="#2F2E41"/>
    <path d="M206.654 123.459L212.675 103.851C205.431 95.8784 196.35 89.7944 186.221 86.1276C196.117 102.522 186.528 123.91 190.524 142.638C191.815 148.47 194.402 153.936 198.093 158.632C201.783 163.328 206.484 167.134 211.845 169.766L220.982 181.087C225.771 172.718 228.69 163.411 229.536 153.806C230.383 144.201 229.137 134.527 225.884 125.45C224.009 120.376 221.503 115.558 218.424 111.11C212.995 117.493 206.654 123.459 206.654 123.459Z" fill="#F2F2F2"/>
    <path d="M173.549 125.964L170.193 105.729C160.153 101.824 149.312 100.429 138.611 101.664C154.78 111.925 155.736 135.344 167.665 150.324C171.421 154.968 176.174 158.707 181.572 161.264C186.97 163.821 192.874 165.131 198.847 165.096L212.073 171.154C212.628 161.528 211.09 151.896 207.564 142.921C204.037 133.947 198.608 125.844 191.649 119.17C187.707 115.465 183.315 112.271 178.576 109.663C176.563 117.797 173.549 125.964 173.549 125.964Z" fill="#F2F2F2"/>
    <path d="M288.779 66.5369L294.963 58.8074C296.017 57.4894 296.518 55.8134 296.36 54.1331C296.202 52.4527 295.398 50.8994 294.116 49.801C293.252 49.0598 292.208 48.5586 291.088 48.3473C289.969 48.136 288.814 48.2222 287.739 48.5972C286.663 48.9722 285.705 49.6228 284.96 50.4841C284.215 51.3455 283.709 52.3873 283.492 53.5055L281.826 62.1123L275.505 79.1788L283.09 82.9714L288.779 66.5369Z" fill="#FFB8B8"/>
    <path d="M269.817 88.6602L257.394 62.1909C256.729 60.8379 255.787 59.64 254.628 58.6753C253.469 57.7106 252.121 57.0007 250.669 56.5917C249.218 56.1827 247.697 56.0839 246.205 56.3017C244.714 56.5194 243.284 57.0489 242.01 57.8556C239.642 59.3555 237.954 61.722 237.307 64.4496C236.66 67.1772 237.105 70.0496 238.548 72.4534L258.9 107.338C260.05 109.255 261.78 110.755 263.841 111.622C265.901 112.489 268.184 112.677 270.358 112.16C272.122 111.74 273.747 110.871 275.076 109.639C276.405 108.406 277.393 106.851 277.944 105.124L285.619 81.075L275.505 76.0183L269.817 88.6602Z" fill="#2F2E41"/>
    <path d="M293.256 80.1413L285.118 79.4589C283.841 79.3504 282.658 78.7396 281.831 77.7605C281.003 76.7814 280.598 75.514 280.704 74.2363L283.835 36.896C283.943 35.6186 284.554 34.4364 285.533 33.6088C286.512 32.7812 287.78 32.3757 289.057 32.4815L297.195 33.1639C298.473 33.2724 299.655 33.8832 300.483 34.8623C301.31 35.8414 301.716 37.1088 301.61 38.3865L298.479 75.7268C298.37 77.0042 297.759 78.1864 296.78 79.014C295.801 79.8416 294.534 80.247 293.256 80.1413Z" fill="#3F3D56"/>
    <path d="M287.945 34.3061C287.257 34.2492 286.574 34.4677 286.046 34.9137C285.519 35.3596 285.189 35.9967 285.131 36.6851L282 74.0254C281.943 74.7139 282.161 75.3969 282.607 75.9245C283.053 76.4521 283.69 76.7813 284.379 76.8398L292.517 77.5222C293.205 77.5791 293.888 77.3606 294.416 76.9146C294.944 76.4687 295.273 75.8316 295.331 75.1432L298.462 37.8029C298.519 37.1144 298.301 36.4314 297.855 35.9038C297.409 35.3762 296.772 35.047 296.083 34.9885L287.945 34.3061Z" fill="#FFDCA9"/>
    <path d="M271.296 113.75H237.438V147.608H271.296V113.75Z" fill="#FFB8B8"/>
    <path d="M277.881 110.855C278.882 110.855 279.695 110.043 279.695 109.041C279.695 108.039 278.882 107.227 277.881 107.227C276.879 107.227 276.067 108.039 276.067 109.041C276.067 110.043 276.879 110.855 277.881 110.855Z" fill="#2F2E41"/>
    <path d="M308.102 256.766L317.132 256.765L321.428 221.934L308.1 221.935L308.102 256.766Z" fill="#FFB6B6"/>
    <path d="M305.863 252.311L320.138 251.459V257.575L333.709 266.948C334.38 267.411 334.885 268.076 335.15 268.846C335.416 269.616 335.428 270.451 335.186 271.229C334.944 272.007 334.459 272.687 333.803 273.169C333.146 273.652 332.353 273.912 331.539 273.912H314.543L311.614 267.863L310.47 273.912H304.062L305.863 252.311Z" fill="#2F2E41"/>
    <path d="M241.084 281.63L248.827 286.277L270.436 258.624L259.008 251.765L241.084 281.63Z" fill="#FFB6B6"/>
    <path d="M241.456 276.658L254.134 283.275L250.987 288.518L257.799 303.54C258.136 304.281 258.226 305.112 258.058 305.909C257.889 306.706 257.47 307.428 256.862 307.97C256.254 308.512 255.489 308.845 254.678 308.922C253.867 308.998 253.052 308.813 252.354 308.393L237.782 299.647L238.384 292.952L234.29 297.551L228.796 294.253L241.456 276.658Z" fill="#2F2E41"/>
    <path d="M59.5065 278.599C59.4174 278.599 59.3283 278.597 59.2383 278.594C58.1886 278.556 57.1637 278.265 56.2507 277.745C55.3376 277.226 54.5636 276.494 53.9943 275.611C49.7304 269.238 44.4977 263.57 38.4853 258.812C34.8456 255.902 31.0422 253.197 27.3643 250.581C17.8756 243.834 8.93962 237.48 3.97925 228.7C-6.83581 209.554 5.90052 182.887 24.0955 170.928C44.5038 157.515 71.3476 155.411 97.316 155.136C100.015 155.107 102.715 155.093 105.417 155.093C152.207 155.111 198.898 159.38 244.915 167.848C260.216 170.671 276.233 174.13 289.104 182.522C301.899 190.866 309.676 204.004 308.917 215.996C307.81 233.501 289.253 246.581 272.355 250.001C256.249 253.258 239.517 251.057 221.804 248.726C217.894 248.212 213.85 247.679 209.852 247.217C166.398 242.194 84.7658 257.676 81.3123 258.337L77.8859 258.993L64.5916 276.101C63.9936 276.881 63.2236 277.512 62.3415 277.945C61.4595 278.379 60.4892 278.602 59.5065 278.599Z" fill="#FFDCA9"/>
    <path d="M253.013 193.202H69.3468C68.287 193.202 67.2705 192.781 66.5211 192.032C65.7717 191.282 65.3506 190.266 65.3506 189.206C65.3506 188.146 65.7717 187.13 66.5211 186.38C67.2705 185.631 68.287 185.21 69.3468 185.21H253.013C254.073 185.21 255.09 185.631 255.839 186.38C256.589 187.13 257.01 188.146 257.01 189.206C257.01 190.266 256.589 191.282 255.839 192.032C255.09 192.781 254.073 193.202 253.013 193.202Z" fill="white"/>
    <path d="M253.014 217.731H69.3469C68.8218 217.732 68.3017 217.63 67.8162 217.43C67.3307 217.229 66.8895 216.936 66.5176 216.565C66.1458 216.194 65.8507 215.754 65.6491 215.269C65.4475 214.784 65.3435 214.264 65.343 213.739C65.3424 213.214 65.4454 212.694 65.6459 212.209C65.8464 211.723 66.1407 211.282 66.5117 210.911C66.8828 210.539 67.3235 210.245 67.8085 210.044C68.2935 209.842 68.8134 209.739 69.3385 209.739H253.014C254.072 209.74 255.087 210.162 255.836 210.911C256.584 211.66 257.004 212.676 257.004 213.735C257.004 214.794 256.584 215.809 255.836 216.559C255.087 217.308 254.072 217.73 253.014 217.731Z" fill="white"/>
    <path d="M90.7505 242.26H69.3469C68.288 242.258 67.273 241.837 66.5247 241.087C65.7765 240.338 65.3562 239.322 65.3562 238.264C65.3562 237.205 65.7765 236.189 66.5247 235.44C67.273 234.69 68.288 234.269 69.3469 234.267H90.7505C91.8094 234.269 92.8245 234.69 93.5727 235.44C94.3209 236.189 94.7412 237.205 94.7412 238.264C94.7412 239.322 94.3209 240.338 93.5727 241.087C92.8245 241.837 91.8094 242.258 90.7505 242.26Z" fill="white"/>
    <path d="M272.494 137.915L236.295 133.596L237.336 140.459C237.336 140.459 212.824 160.211 229.604 182.003L237.705 189.904L236.959 193.617H242.162L242.72 198.097L265.1 216.621L266.385 220.411H270.07L268.269 224.721L251.654 263.364L265.419 269.782L290.771 221.181L284.277 206.532L260.916 176.965L297.099 191.257L297.716 194.394L301.042 193.764L300.4 198.382L307.46 234.711L322.416 232.726L320.878 187.522C320.763 185.051 319.995 182.655 318.654 180.576C317.313 178.498 315.445 176.811 313.241 175.688C305.575 171.751 277.256 160.809 277.256 160.809L272.494 137.915Z" fill="#2F2E41"/>
    <path d="M257.995 58.7313L251.18 49.9713L241.458 49.5498L240.488 57.7887L235.671 60.0099C230.862 78.2823 230.119 97.3874 233.495 115.978C234.141 116.586 234.612 117.355 234.862 118.206C235.111 119.057 235.128 119.959 234.913 120.819L234.6 122.064L234.629 122.109C235.654 123.727 236.002 125.682 235.597 127.554L226.792 143.201C245.492 150.823 259.2 136.609 271.9 117.983L279.76 90.7754L257.995 58.7313Z" fill="#3F3D56"/>
    <path d="M278.482 109.101L280.318 90.7453L255.952 54.676L254.949 55.3524L279.071 91.0604L277.279 108.98L278.482 109.101Z" fill="#2F2E41"/>
    <path d="M251.655 49.2522C261.582 49.2522 269.629 41.2049 269.629 31.2781C269.629 21.3512 261.582 13.304 251.655 13.304C241.728 13.304 233.681 21.3512 233.681 31.2781C233.681 41.2049 241.728 49.2522 251.655 49.2522Z" fill="#FFB8B8"/>
    <path d="M253.967 9.35685L251.711 9.42841L250.945 9.45272L242.362 9.72506C234.754 9.96646 228.806 17.1007 229.078 25.6599C223.52 31.6064 225.472 38.7733 230.274 46.4032C238.527 47.165 246.635 49.0605 254.371 52.036L255.307 47.376L257.637 53.4001C259.567 54.2604 261.483 55.2074 263.386 56.241C260.88 46.0666 259.659 35.8752 260.904 27.8889L264.834 27.7642L264.698 23.4627L266.169 27.7219L273.295 27.4958C273.217 25.0357 272.655 22.615 271.641 20.3721C270.628 18.1291 269.182 16.1077 267.387 14.4234C265.593 12.739 263.484 11.4246 261.181 10.5553C258.878 9.686 256.427 9.27877 253.967 9.35685Z" fill="#2F2E41"/>
    <path d="M238.447 16.929C243.122 16.929 246.912 13.1393 246.912 8.46448C246.912 3.78968 243.122 0 238.447 0C233.773 0 229.983 3.78968 229.983 8.46448C229.983 13.1393 233.773 16.929 238.447 16.929Z" fill="#2F2E41"/>
    <path d="M294.058 75.585L300.241 67.8555C301.295 66.5375 301.797 64.8615 301.639 63.1812C301.481 61.5008 300.676 59.9475 299.395 58.8491C298.53 58.1079 297.486 57.6066 296.367 57.3954C295.247 57.1841 294.092 57.2703 293.017 57.6453C291.941 58.0203 290.983 58.6709 290.238 59.5322C289.493 60.3936 288.987 61.4354 288.77 62.5535L287.105 71.1604L280.784 88.2269L288.369 92.0195L294.058 75.585Z" fill="#FFB8B8"/>
    <path d="M275.095 97.7084L262.672 71.2392C262.007 69.8861 261.065 68.6882 259.906 67.7235C258.747 66.7588 257.399 66.0489 255.948 65.6399C254.496 65.231 252.975 65.1322 251.483 65.3499C249.992 65.5677 248.562 66.0971 247.289 66.9038C244.92 68.4037 243.232 70.7702 242.585 73.4978C241.938 76.2254 242.384 79.0978 243.826 81.5016L264.178 116.386C265.328 118.303 267.059 119.803 269.119 120.67C271.179 121.537 273.462 121.726 275.636 121.208C277.4 120.788 279.025 119.92 280.354 118.687C281.683 117.454 282.671 115.899 283.222 114.172L290.897 90.1233L280.784 85.0665L275.095 97.7084Z" fill="#2F2E41"/>
    <path d="M536.346 348.531C535.564 349.788 534.765 351.038 533.959 352.278C532.463 354.585 530.927 356.858 529.351 359.096C529.351 359.102 529.345 359.102 529.339 359.108C528.42 359.96 527.404 360.701 526.312 361.318C526.267 361.352 526.215 361.375 526.17 361.404C525.366 361.848 524.51 362.191 523.623 362.426C523.303 362.506 522.977 362.586 522.657 362.666C521.504 362.94 520.362 363.174 519.225 363.38C517.203 363.739 515.205 363.996 513.217 364.156C513.057 364.174 512.897 364.185 512.737 364.196C504.565 364.796 496.61 363.831 488.306 362.249C484.206 361.472 480.019 360.541 475.685 359.576C474.269 359.256 472.847 358.942 471.407 358.628C471.299 358.605 471.185 358.577 471.07 358.554C469.014 358.103 466.924 357.657 464.783 357.218C462.087 356.664 463.469 356.631 460.579 356.123C460.579 356.123 467.246 362.894 468.354 365.829C469.588 369.438 470.564 372.294 468.503 378.239L474.905 390.808L452.647 394.582C440.379 370.544 430.575 354.715 434.954 345.392C434.972 344.958 435.006 344.518 435.063 344.084C435.296 342.111 435.919 340.204 436.896 338.474C437.874 336.744 439.186 335.227 440.757 334.01C442.262 332.834 443.985 331.969 445.827 331.465C447.67 330.961 449.594 330.828 451.488 331.074L455.856 331.64L489.739 329.994L491.07 324.568L491.316 324.477L499.123 321.616L526.124 311.719L526.192 311.696L527.968 311.045L528.18 311.387C528.243 311.49 528.305 311.593 528.363 311.696C530.118 314.843 531.547 318.161 532.629 321.598C534.447 327.214 535.943 332.928 537.112 338.714C537.163 338.965 537.209 339.194 537.249 339.399L537.266 339.462C537.283 339.559 537.294 339.622 537.3 339.639C537.923 342.232 537.489 345.396 536.346 348.531Z" fill="#2F2E41"/>
    <path d="M530.65 243.005L530.455 232.182L513.307 230.187L511.509 239.326L493.487 256.262C480.674 271.926 489.985 282.729 490.542 284.335L492.127 304.088L493.124 310.951L489.232 329.732L538.358 340.271C539.93 327.286 538.179 315.22 527.923 305.509L533.105 289.384C535.733 285.174 537.38 280.427 537.925 275.494L538.111 273.808C542.691 259.539 539.978 254.736 530.65 243.005Z" fill="#E6E6E6"/>
    <path d="M554.707 209.178C554.719 209.458 554.724 209.738 554.724 210.012C554.719 213.037 553.999 216.018 552.622 218.71C551.244 221.403 549.249 223.732 546.8 225.507C544.35 227.281 541.516 228.451 538.528 228.92C535.54 229.39 532.483 229.145 529.608 228.207L526.084 227.059C526.055 227.048 526.021 227.042 525.993 227.031L520.184 225.135C520.165 224.889 520.169 224.643 520.196 224.398C511.532 220.697 523.508 208.539 526.484 199.407C526.946 197.985 511.041 199.047 511.795 197.831C511.629 197.745 511.464 197.66 511.31 197.574C513.996 193.334 517.968 190.064 522.645 188.241C527.322 186.419 532.459 186.139 537.306 187.443C537.432 187.471 537.563 187.511 537.689 187.545C548.973 187.825 554.901 195.689 554.901 205.9C554.901 206.996 554.836 208.09 554.707 209.178Z" fill="#2F2E41"/>
    <path d="M544.93 213.199C543.416 217.836 540.122 221.682 535.773 223.891C531.424 226.101 526.376 226.493 521.738 224.981C521.212 224.809 520.698 224.615 520.196 224.398C515.975 222.589 512.584 219.266 510.689 215.084C508.794 210.901 508.533 206.16 509.956 201.794C510.408 200.404 511.025 199.073 511.795 197.831C514.159 194.002 517.846 191.173 522.156 189.879C526.466 188.585 531.101 188.916 535.183 190.809C539.266 192.703 542.512 196.027 544.308 200.153C546.105 204.279 546.326 208.921 544.93 213.199Z" fill="#A0616A"/>
    <path d="M526.08 227.058C526.05 227.05 526.019 227.04 525.99 227.028L520.184 225.135C520.169 224.886 509.507 231.944 509.537 231.695C509.703 229.787 521.715 220.483 523.509 218.319C524.67 216.937 525.477 215.293 525.861 213.53C526.245 211.767 526.194 209.936 525.713 208.197C525.232 206.458 524.336 204.861 523.101 203.545C521.865 202.23 520.329 201.234 518.623 200.645C518.571 200.631 518.521 200.614 518.472 200.592C517.349 200.2 516.271 199.8 515.26 199.4C514.763 197.327 514.506 198.013 513.307 196.256C513.526 197.855 511.498 199.061 511.468 200.675C511.053 200.486 510.661 200.29 510.284 200.094C510.118 200.004 509.96 199.921 509.801 199.838C508.638 199.297 507.622 198.485 506.838 197.47C509.741 188.55 520.848 181.409 529.768 184.328L533.138 185.421C537.389 186.801 540.921 189.807 542.963 193.783C545.422 195.668 547.384 198.124 548.678 200.939C556.053 215.755 541.809 232.11 526.08 227.058Z" fill="#2F2E41"/>
    <path d="M550.47 202.262C554.885 202.262 558.465 198.683 558.465 194.267C558.465 189.851 554.885 186.272 550.47 186.272C546.054 186.272 542.474 189.851 542.474 194.267C542.474 198.683 546.054 202.262 550.47 202.262Z" fill="#2F2E41"/>
    <path d="M652.047 210.575C650.352 218.278 646.96 225.505 642.118 231.731C637.276 237.957 631.106 243.025 624.058 246.564C623.16 247.009 622.248 247.424 621.328 247.808C621.411 244.079 620.339 240.416 618.259 237.32C618.597 239.83 618.638 242.371 618.38 244.89C618.239 246.335 618 247.769 617.664 249.181C611.748 251.131 605.536 252.027 599.311 251.827C598.955 249.061 597.956 246.416 596.393 244.106C596.731 246.616 596.771 249.157 596.513 251.676C590.256 251.169 584.143 249.531 578.47 246.843C575.521 245.441 572.626 243.684 570.726 241.03C568.2 237.493 567.778 232.826 568.396 228.528C569.014 224.223 570.56 220.113 571.638 215.906C572.716 211.698 573.327 207.197 572.06 203.042C570.801 198.88 567.265 195.178 562.929 194.854C560.954 194.703 558.971 195.246 556.995 195.065C555.02 194.876 552.878 193.557 552.833 191.574L554.726 188.497C555.525 183.113 558.269 177.775 562.975 175.038C567.672 172.293 574.428 172.881 577.784 177.164C580.611 180.768 580.505 185.775 581.433 190.262C583.589 200.682 591.921 209.067 601.603 213.485C611.292 217.896 622.195 218.824 632.842 218.643C636.491 218.575 640.201 218.379 643.67 217.225C647.146 216.064 650.388 213.832 652.047 210.575Z" fill="#2F2E41"/>
    <path d="M470.718 258.627L467.587 221.287C467.482 220.009 467.887 218.741 468.715 217.762C469.542 216.783 470.725 216.172 472.002 216.064L480.14 215.381C481.418 215.276 482.685 215.681 483.664 216.509C484.643 217.336 485.254 218.519 485.363 219.796L488.494 257.136C488.599 258.414 488.194 259.681 487.366 260.661C486.539 261.64 485.357 262.25 484.079 262.359L475.941 263.041C474.663 263.147 473.396 262.742 472.417 261.914C471.438 261.086 470.827 259.904 470.718 258.627Z" fill="#3F3D56"/>
    <path d="M473.114 217.889C472.426 217.947 471.789 218.276 471.343 218.804C470.897 219.331 470.678 220.014 470.735 220.703L473.866 258.043C473.925 258.732 474.254 259.369 474.781 259.815C475.309 260.261 475.992 260.479 476.681 260.422L484.819 259.74C485.507 259.681 486.144 259.352 486.59 258.824C487.036 258.297 487.255 257.614 487.198 256.925L484.067 219.585C484.008 218.897 483.679 218.26 483.151 217.814C482.624 217.368 481.941 217.149 481.252 217.206L473.114 217.889Z" fill="#FFDCA9"/>
    <path d="M486.835 271.439L494.759 268.415L490.157 250.807L489.351 242.078C489.246 240.944 488.845 239.857 488.189 238.926C487.533 237.995 486.644 237.253 485.61 236.774C484.577 236.294 483.437 236.094 482.302 236.194C481.167 236.293 480.079 236.689 479.145 237.341C477.761 238.307 476.807 239.773 476.483 241.429C476.16 243.086 476.493 244.803 477.412 246.219L482.8 254.522L486.835 271.439Z" fill="#A0616A"/>
    <path d="M495.071 265.27L484.507 269.302L489.766 293.992C490.143 295.765 490.972 297.41 492.173 298.768C493.374 300.126 494.905 301.151 496.618 301.744C498.731 302.474 501.021 302.512 503.157 301.854C505.293 301.195 507.163 299.873 508.497 298.079L532.2 265.379C533.873 263.13 534.6 260.315 534.226 257.537C533.852 254.759 532.407 252.237 530.199 250.51C529.011 249.582 527.641 248.913 526.178 248.549C524.715 248.185 523.192 248.133 521.707 248.396C520.223 248.659 518.81 249.232 517.562 250.078C516.313 250.923 515.257 252.022 514.461 253.303L499.482 278.413L495.071 265.27Z" fill="#E6E6E6"/>
    <path opacity="0.2" d="M486.479 278.561L491.819 300.246L492.927 301.595C493.804 302.663 494.925 303.504 496.196 304.049C497.466 304.594 498.849 304.825 500.227 304.724C501.606 304.623 502.94 304.192 504.117 303.468C505.295 302.745 506.281 301.748 506.994 300.564L523.917 272.427L508.659 293.539C507.804 294.723 506.662 295.67 505.34 296.292C504.018 296.914 502.561 297.191 501.103 297.096C499.645 297.002 498.236 296.539 497.006 295.751C495.776 294.963 494.766 293.875 494.071 292.591L486.479 278.561Z" fill="black"/>
</svg>
