<svg width="732" height="431" viewBox="0 0 732 431" fill="none"
    xmlns="http://www.w3.org/2000/svg">
    <path d="M118.51 49.03C112.633 49.0367 106.999 51.3741 102.844 55.5295C98.6886 59.6848 96.3512 65.3188 96.3446 71.1954V312.171C96.3512 318.047 98.6886 323.681 102.844 327.836C106.999 331.992 112.633 334.329 118.51 334.336H617.99C623.866 334.329 629.5 331.992 633.656 327.836C637.811 323.681 640.148 318.047 640.155 312.171V71.1954C640.148 65.3188 637.811 59.6848 633.656 55.5295C629.5 51.3741 623.866 49.0367 617.99 49.03H118.51Z" fill="white"/>
    <path d="M617.99 335.201H118.51C112.404 335.194 106.551 332.765 102.233 328.448C97.9156 324.13 95.487 318.276 95.4801 312.171V71.1955C95.487 65.0897 97.9156 59.236 102.233 54.9185C106.551 50.601 112.404 48.1725 118.51 48.1655H617.99C624.095 48.1725 629.949 50.6011 634.267 54.9185C638.584 59.236 641.013 65.0897 641.02 71.1955V312.171C641.013 318.276 638.584 324.13 634.267 328.448C629.949 332.765 624.095 335.194 617.99 335.201ZM118.51 49.8947C112.863 49.901 107.448 52.1472 103.455 56.1405C99.4618 60.1339 97.2156 65.5481 97.2092 71.1955V312.171C97.2156 317.818 99.4618 323.232 103.455 327.226C107.448 331.219 112.863 333.465 118.51 333.471H617.99C623.637 333.465 629.051 331.219 633.045 327.226C637.038 323.232 639.284 317.818 639.291 312.171V71.1955C639.284 65.5481 637.038 60.1339 633.045 56.1405C629.051 52.1472 623.637 49.901 617.99 49.8947H118.51Z" fill="#3F3D56"/>
    <path d="M262.631 321.702C262.669 320.735 259.705 319.831 256.009 319.685C252.314 319.538 249.287 320.204 249.249 321.171C249.211 322.139 252.175 323.042 255.87 323.189C259.566 323.335 262.592 322.67 262.631 321.702Z" fill="#E6E6E6"/>
    <path d="M305.256 319.445C305.294 318.477 302.33 317.574 298.634 317.427C294.939 317.281 291.912 317.946 291.874 318.914C291.836 319.882 294.8 320.785 298.495 320.931C302.191 321.078 305.217 320.412 305.256 319.445Z" fill="#3F3D56"/>
    <path d="M246.253 308.55C246.292 307.582 243.327 306.679 239.632 306.532C235.937 306.386 232.91 307.051 232.872 308.019C232.833 308.986 235.798 309.89 239.493 310.036C243.188 310.183 246.215 309.517 246.253 308.55Z" fill="#FF6584"/>
    <path d="M225.665 303.745C225.764 302.881 224.519 302.03 222.884 301.844C221.249 301.657 219.844 302.207 219.746 303.07C219.647 303.934 220.893 304.786 222.527 304.972C224.162 305.158 225.567 304.609 225.665 303.745Z" fill="#E6E6E6"/>
    <path d="M215.828 293.67C215.927 292.806 214.681 291.955 213.047 291.769C211.412 291.582 210.007 292.132 209.909 292.995C209.81 293.859 211.056 294.711 212.69 294.897C214.325 295.083 215.73 294.534 215.828 293.67Z" fill="#3F3D56"/>
    <path d="M271.421 310.824C271.519 309.96 270.274 309.109 268.639 308.923C267.004 308.737 265.599 309.286 265.501 310.15C265.403 311.014 266.648 311.865 268.283 312.051C269.917 312.237 271.322 311.688 271.421 310.824Z" fill="#E6E6E6"/>
    <path d="M251.912 315.111C252.011 314.248 250.765 313.396 249.131 313.21C247.496 313.024 246.091 313.573 245.993 314.437C245.894 315.301 247.14 316.152 248.774 316.338C250.409 316.525 251.814 315.975 251.912 315.111Z" fill="#FF6584"/>
    <path d="M283.466 322.017C283.565 321.154 282.32 320.302 280.685 320.116C279.05 319.93 277.645 320.479 277.547 321.343C277.448 322.207 278.694 323.058 280.328 323.244C281.963 323.431 283.368 322.881 283.466 322.017Z" fill="#3F3D56"/>
    <path d="M4.55366e-06 286.268C-0.000398393 286.403 0.0259446 286.537 0.0775087 286.662C0.129073 286.787 0.204848 286.9 0.30047 286.996C0.396091 287.092 0.509669 287.167 0.634681 287.219C0.759692 287.271 0.893665 287.297 1.02889 287.296H730.971C731.244 287.296 731.506 287.188 731.699 286.995C731.892 286.802 732 286.54 732 286.268C732 285.995 731.892 285.733 731.699 285.54C731.506 285.347 731.244 285.239 730.971 285.239H1.02884C0.893617 285.238 0.759658 285.265 0.634654 285.316C0.509651 285.368 0.396072 285.444 0.300457 285.539C0.204842 285.635 0.129071 285.748 0.0775087 285.873C0.0259462 285.998 -0.00039377 286.132 4.55366e-06 286.268Z" fill="#CCCCCC"/>
    <path d="M249.503 268.091C249.006 268.114 248.514 267.983 248.093 267.717C247.673 267.451 247.344 267.062 247.152 266.603C246.96 266.144 246.914 265.637 247.02 265.15C247.126 264.664 247.379 264.222 247.744 263.884L247.91 263.223C247.888 263.17 247.866 263.117 247.844 263.064C247.343 261.881 246.504 260.873 245.432 260.165C244.36 259.458 243.102 259.083 241.818 259.087C240.533 259.092 239.279 259.477 238.212 260.192C237.145 260.907 236.313 261.922 235.821 263.109C233.855 267.845 231.351 272.589 230.734 277.597C230.463 279.811 230.577 282.054 231.073 284.229C226.454 274.154 224.056 263.203 224.04 252.12C224.039 249.339 224.194 246.56 224.503 243.796C224.759 241.53 225.114 239.28 225.567 237.046C228.043 224.927 233.358 213.568 241.076 203.901C244.811 201.863 247.832 198.729 249.732 194.921C250.42 193.552 250.906 192.091 251.175 190.583C250.754 190.638 249.587 184.22 249.904 183.826C249.317 182.935 248.266 182.492 247.625 181.623C244.435 177.298 240.04 178.053 237.746 183.93C232.845 186.404 232.798 190.506 235.805 194.451C237.718 196.961 237.981 200.358 239.66 203.045C239.487 203.266 239.307 203.48 239.135 203.701C235.978 207.761 233.226 212.12 230.919 216.716C231.48 211.567 230.811 206.358 228.966 201.518C227.096 197.008 223.592 193.209 220.505 189.309C216.798 184.625 209.197 186.669 208.543 192.607C208.537 192.664 208.531 192.722 208.525 192.779C208.983 193.038 209.432 193.312 209.871 193.603C210.423 193.971 210.85 194.498 211.097 195.113C211.344 195.729 211.4 196.405 211.256 197.053C211.113 197.7 210.777 198.289 210.293 198.743C209.809 199.196 209.199 199.493 208.544 199.594L208.477 199.605C208.64 201.257 208.929 202.894 209.34 204.502C205.381 219.814 213.929 225.391 226.134 225.641C226.403 225.779 226.666 225.918 226.935 226.049C224.618 232.616 223.164 239.458 222.611 246.4C222.297 250.496 222.316 254.61 222.666 258.703L222.645 258.558C221.761 254.007 219.333 249.9 215.771 246.932C210.482 242.587 203.009 240.987 197.302 237.494C196.696 237.105 195.99 236.897 195.27 236.895C194.549 236.893 193.843 237.098 193.235 237.484C192.626 237.87 192.141 238.423 191.836 239.076C191.532 239.729 191.42 240.456 191.515 241.17C191.522 241.221 191.53 241.272 191.538 241.323C192.389 241.669 193.217 242.068 194.018 242.518C194.476 242.776 194.925 243.051 195.364 243.341C195.916 243.71 196.343 244.236 196.59 244.852C196.837 245.467 196.893 246.143 196.749 246.791C196.606 247.438 196.27 248.028 195.786 248.481C195.302 248.935 194.692 249.232 194.037 249.333L193.969 249.343C193.921 249.35 193.88 249.357 193.831 249.364C195.285 252.834 197.325 256.029 199.862 258.807C202.338 272.173 212.971 273.441 224.344 269.549H224.351C225.599 274.972 227.407 280.25 229.747 285.3H249.02C249.089 285.085 249.151 284.864 249.214 284.65C247.43 284.762 245.639 284.656 243.88 284.332C245.31 282.578 246.74 280.809 248.17 279.055C248.202 279.022 248.232 278.987 248.26 278.951C248.986 278.053 249.718 277.162 250.443 276.264L250.444 276.263C250.482 273.51 250.166 270.763 249.503 268.091Z" fill="#F2F2F2"/>
    <path d="M153.288 257.397C152.482 257.434 151.684 257.222 151.002 256.791C150.32 256.359 149.788 255.728 149.476 254.984C149.165 254.239 149.09 253.417 149.262 252.629C149.433 251.84 149.843 251.124 150.436 250.576C150.535 250.181 150.606 249.898 150.705 249.504C150.67 249.418 150.634 249.332 150.598 249.246C149.786 247.328 148.425 245.693 146.687 244.546C144.948 243.398 142.91 242.79 140.827 242.798C138.744 242.806 136.71 243.429 134.98 244.589C133.25 245.749 131.901 247.395 131.103 249.319C127.915 256.998 123.855 264.691 122.856 272.81C122.416 276.399 122.601 280.037 123.405 283.563C115.916 267.227 112.027 249.472 112.002 231.501C112 226.991 112.251 222.485 112.752 218.004C113.167 214.33 113.742 210.682 114.477 207.06C118.491 187.41 127.109 168.991 139.624 153.318C145.681 150.013 150.579 144.931 153.658 138.757C154.774 136.537 155.563 134.168 155.999 131.723C155.316 131.812 153.423 121.406 153.939 120.768C152.986 119.323 151.282 118.605 150.242 117.195C145.07 110.183 137.945 111.407 134.225 120.936C126.278 124.947 126.201 131.598 131.077 137.995C134.179 142.065 134.606 147.572 137.327 151.929C137.047 152.288 136.756 152.635 136.476 152.993C131.357 159.576 126.896 166.644 123.156 174.096C124.065 165.747 122.98 157.301 119.988 149.454C116.957 142.14 111.274 135.981 106.27 129.658C100.259 122.063 87.9336 125.378 86.8747 135.005C86.8644 135.098 86.8544 135.191 86.8447 135.285C87.5879 135.704 88.3155 136.149 89.0274 136.62C89.9217 137.217 90.6146 138.071 91.0154 139.069C91.4163 140.067 91.5062 141.163 91.2736 142.213C91.0409 143.263 90.4965 144.218 89.7117 144.954C88.9268 145.689 87.9381 146.17 86.8751 146.334L86.7663 146.351C87.0311 149.03 87.4991 151.685 88.1664 154.293C81.7467 179.119 95.6063 188.161 115.396 188.568C115.833 188.792 116.258 189.016 116.695 189.229C112.938 199.877 110.581 210.97 109.683 222.227C109.176 228.868 109.206 235.539 109.773 242.175L109.739 241.94C108.306 234.561 104.369 227.902 98.5944 223.089C90.0178 216.044 77.9005 213.449 68.6478 207.786C64.1938 205.06 58.4863 208.583 59.2637 213.747C59.2761 213.829 59.2887 213.911 59.3015 213.994C60.6808 214.556 62.0238 215.203 63.3226 215.932C64.0659 216.351 64.7934 216.796 65.5053 217.267C66.3996 217.864 67.0926 218.718 67.4934 219.716C67.8942 220.714 67.9842 221.81 67.7515 222.86C67.5189 223.91 66.9745 224.866 66.1896 225.601C65.4047 226.336 64.416 226.818 63.353 226.981L63.2441 226.998C63.1657 227.009 63.0985 227.021 63.0202 227.032C65.3769 232.659 68.6847 237.839 72.7986 242.344C76.8126 264.016 94.053 266.072 112.495 259.761H112.506C114.529 268.554 117.461 277.113 121.254 285.299H152.505C152.617 284.952 152.718 284.593 152.818 284.246C149.926 284.428 147.022 284.255 144.171 283.731C146.49 280.886 148.808 278.019 151.127 275.174C151.179 275.12 151.227 275.064 151.273 275.005C152.449 273.549 153.636 272.104 154.812 270.648L154.813 270.647C154.875 266.183 154.363 261.73 153.289 257.398L153.288 257.397Z" fill="#F2F2F2"/>
    <path d="M580.978 15.5974C578.879 -0.483269 541.788 0.542531 538.285 15.6718C536.427 14.5099 531.702 15.3141 529.939 16.6497C528.176 17.9854 527.047 19.9488 525.941 21.8548C524.431 24.5021 522.866 27.2441 522.531 30.2794C522.183 33.3089 523.373 36.7408 526.12 38.0898C528.299 39.1648 533.093 38.4389 535.488 37.9576C537.16 37.6253 538.562 37.3343 539.753 37.0489C540.153 35.1659 539.877 33.2023 538.974 31.5025C539.936 31.6935 540.844 32.0952 541.633 32.6787C542.422 33.2622 543.071 34.013 543.536 34.8773C543.723 35.2393 550.519 86.3927 550.519 86.3927C552.376 86.6166 554.251 86.6634 556.118 86.5325C557.276 80.237 557.487 73.8037 556.743 67.4459C558.711 71.0798 560.268 74.9218 561.385 78.9006C562.025 81.126 562.55 83.3826 562.96 85.6617C579.133 82.6375 600.994 72.2212 604.983 54.5343C604.961 54.4772 604.939 54.4202 604.917 54.3631C604.699 53.8226 604.676 53.2231 604.851 52.6673C605.027 52.1115 605.39 51.634 605.879 51.3165C606.367 50.999 606.951 50.8614 607.531 50.9271C608.11 50.9928 608.648 51.2578 609.053 51.6768C609.541 52.1786 609.976 52.6075 610.342 52.9398C608.925 41.6447 600.357 31.4806 580.978 15.5974Z" fill="#2F2E41"/>
    <path d="M344.837 409.429L335.771 404.688L350.148 366.68L363.531 373.677L344.837 409.429Z" fill="#A0616A"/>
    <path d="M308.252 408.97C307.691 410.046 307.579 411.3 307.941 412.457C308.304 413.615 309.111 414.581 310.185 415.145L328.213 424.569L334.674 419.768L332.53 426.822L339.33 430.382L349.401 406.467L347.106 405.091L337.753 399.457L334.732 397.646L331.34 404.135L311.743 406.551C311.009 406.642 310.307 406.909 309.699 407.331C309.091 407.752 308.594 408.315 308.252 408.97Z" fill="#2F2E41"/>
    <path d="M335.548 269.503L328.953 261.681L356.661 231.954L366.394 243.499L335.548 269.503Z" fill="#A0616A"/>
    <path d="M301.864 255.217C300.937 256 300.359 257.118 300.256 258.327C300.152 259.535 300.533 260.735 301.313 261.664L314.427 277.216L322.225 275.221L317.569 280.937L322.512 286.808L340.894 268.492L339.291 266.349L332.77 257.592L330.661 254.771L325.063 259.49L306.012 254.301C305.298 254.107 304.547 254.088 303.825 254.248C303.102 254.408 302.429 254.74 301.864 255.217Z" fill="#2F2E41"/>
    <path d="M626.404 240.191C626.404 240.191 654.404 300.122 538.452 283.972C538.452 283.972 476.675 215.51 478.46 207.272C478.46 207.272 452.167 180.555 453.454 180.069C454.74 179.582 455.534 178.526 453.408 178.622C451.282 178.718 451.282 175.553 451.282 175.553C451.282 175.553 403.764 227.084 363.754 252.654L349.921 237.092C349.921 237.092 355.315 220.217 357.909 220.217C360.503 220.217 361.397 220.84 361.814 217.502C362.232 214.165 360.167 211.299 362.928 211.003C365.69 210.706 422.931 143.807 422.931 143.807C422.931 143.807 429.107 121.772 447.976 126.037C466.844 130.302 564.89 210.015 564.89 210.015L626.404 240.191Z" fill="#2F2E41"/>
    <path d="M579.186 285.915L426.002 284.643L359.431 390.12L340.618 380.161L344.788 378.401C344.788 378.401 343.526 363.741 345.072 360.03C346.619 356.319 351.22 357.435 351.22 357.435L390.033 267.928C392.709 259.983 397.968 253.162 404.971 248.552C411.973 243.942 420.317 241.808 428.673 242.49C460.789 237.806 512.922 241.549 567.083 246.145L579.186 285.915Z" fill="#2F2E41"/>
    <path d="M490.497 106.404C493.413 106.851 496.039 108.418 497.818 110.772C499.596 113.126 500.385 116.08 500.018 119.007C499.934 119.601 499.801 120.187 499.62 120.759L531.096 144.634L524.601 164.868L485.019 127.5C482.705 126.567 480.766 124.895 479.503 122.745C478.241 120.594 477.725 118.086 478.038 115.611C478.229 114.205 478.696 112.85 479.411 111.624C480.126 110.398 481.075 109.325 482.205 108.466C483.335 107.607 484.622 106.979 485.995 106.618C487.367 106.256 488.798 106.169 490.204 106.36C490.302 106.374 490.4 106.388 490.497 106.404Z" fill="#A0616A"/>
    <path d="M629.357 107.895L618.04 139.227L573.783 201.769C573.783 201.769 573.42 201.614 572.763 201.337C568.959 199.694 555.143 193.66 542.149 186.804C529.95 180.363 518.46 173.195 516.679 168.267C516.488 167.749 516.315 167.247 516.16 166.763V166.754C515.33 164.245 514.811 161.643 514.612 159.008C514.465 156.976 514.595 155.887 514.318 155.757C514.102 155.662 513.653 156.129 512.658 157.184C512.589 157.253 512.529 157.322 512.459 157.383C508.863 160.988 504.445 160.521 505.526 158.809C506.632 157.054 506.053 157.089 504.428 155.256C503.217 153.89 499.284 148.547 497.347 145.91C496.681 145.002 496.258 144.414 496.258 144.414L496.923 143.368L498.765 140.48L507.523 126.751L508.007 125.999C508.007 125.999 526.007 130.157 528.402 134.108C530.806 138.06 524.779 137.93 530.805 138.06C536.831 138.189 542.979 129.993 538.578 138.146C534.177 146.29 535.336 149.135 540.783 147.846C542.996 147.319 546.497 148.988 549.869 151.149V151.158C551.978 152.528 554.012 154.008 555.964 155.593C558.048 157.27 559.457 158.541 559.457 158.541L593.642 89.1857L597.429 81.5084C598.583 79.1723 600.191 77.0897 602.159 75.3825C604.128 73.6754 606.417 72.3779 608.893 71.5659L610.077 73.6322C617.452 84.4931 623.901 95.9543 629.357 107.895Z" fill="#83B582"/>
    <path d="M631.251 207.337C641.729 209.775 630.582 286.051 618.092 286.289C527.313 288.018 554.953 237.086 550.085 232.21C545.218 227.326 540.826 230.827 545.218 223.228C548.417 217.694 553.163 218.516 553.232 215.412C553.267 214.253 552.653 212.559 551.062 209.775C545.218 199.538 545.218 196.487 545.218 196.487C543.761 193.413 542.728 190.155 542.149 186.803C541.2 181.82 541.084 176.713 541.803 171.691C542.9 164.323 545.659 157.302 549.869 151.158V151.149C550.31 150.492 550.768 149.826 551.252 149.169C552.35 147.673 558.437 147.959 558.437 147.959L571.405 93.4912L563.901 71.7733L599.443 55.1218L608.893 71.5658L610.077 73.6321C617.452 84.493 623.901 95.9542 629.357 107.895C634.605 119.575 638.919 132.543 639.075 143.826C639.49 173.247 634.415 181.997 634.415 181.997C634.415 181.997 646.735 191.204 640.571 196.832C634.415 202.469 620.772 204.899 631.251 207.337Z" fill="#83B582"/>
    <path d="M470.234 99.2388L464.435 103.644C463.29 104.52 462.538 105.814 462.345 107.243C462.152 108.672 462.533 110.12 463.405 111.268L477.372 129.626L485.619 140.457C486.494 141.6 487.786 142.351 489.213 142.544C490.639 142.737 492.084 142.356 493.231 141.485L499.037 137.075C500.178 136.196 500.925 134.903 501.117 133.476C501.309 132.049 500.929 130.604 500.061 129.456L499.205 128.325L482.286 106.095L477.847 100.268C477.414 99.7001 476.875 99.2232 476.258 98.8643C475.642 98.5054 474.961 98.2714 474.254 98.1759C473.547 98.0803 472.828 98.125 472.138 98.3074C471.449 98.4898 470.802 98.8063 470.234 99.2388Z" fill="#3F3D56"/>
    <path d="M473.267 98.9056L467.02 103.264C466.469 103.624 466.001 104.097 465.646 104.651C465.291 105.206 465.058 105.829 464.962 106.48C464.865 107.132 464.908 107.796 465.087 108.429C465.267 109.063 465.578 109.651 466.001 110.155L474.178 120.008L478.535 125.256L481.443 128.758L487.945 136.592C488.864 137.643 490.138 138.319 491.524 138.491C492.91 138.664 494.31 138.32 495.459 137.527L500.14 134.261L501.698 133.175C502.474 132.657 503.08 131.922 503.44 131.061C503.8 130.2 503.897 129.251 503.719 128.335C503.563 127.574 503.219 126.864 502.719 126.269L483.506 103.117L480.782 99.8403C479.863 98.7878 478.589 98.1106 477.203 97.9382C475.817 97.7658 474.416 98.1102 473.267 98.9056Z" fill="#83B582"/>
    <path d="M477.259 123.239C480.175 123.686 482.801 125.253 484.579 127.607C486.357 129.961 487.147 132.915 486.78 135.842C486.696 136.436 486.563 137.022 486.382 137.594L517.858 161.469L511.362 181.703L471.78 144.335C469.467 143.402 467.528 141.73 466.265 139.58C465.002 137.429 464.487 134.921 464.8 132.446C464.991 131.04 465.457 129.685 466.172 128.459C466.887 127.233 467.837 126.16 468.967 125.301C470.096 124.442 471.384 123.814 472.757 123.453C474.129 123.091 475.559 123.004 476.966 123.195C477.064 123.209 477.161 123.223 477.259 123.239Z" fill="#A0616A"/>
    <path d="M605.634 87.8308C608.385 88.391 610.983 89.5371 613.252 91.1912C615.521 92.8453 617.407 94.9686 618.782 97.4167C620.157 99.8648 620.989 102.58 621.22 105.379C621.452 108.177 621.078 110.992 620.125 113.633L604.806 156.059L560.541 218.607C560.541 218.607 507.457 196.185 503.438 185.102C499.419 174.019 503.049 170.195 499.419 174.019C495.79 177.843 491.188 177.39 492.29 175.64C493.392 173.89 492.812 173.927 491.189 172.094C489.567 170.26 483.021 161.252 483.021 161.252L494.768 142.835C494.768 142.835 512.769 146.991 515.168 150.944C517.566 154.898 511.538 154.769 517.566 154.898C523.594 155.027 529.743 146.828 525.34 154.979C520.937 163.129 522.098 165.971 527.545 164.679C532.992 163.388 546.215 175.377 546.215 175.377L584.194 98.3451C586.104 94.4705 589.244 91.3375 593.123 89.4354C597.001 87.5332 601.401 86.969 605.634 87.8308Z" fill="#83B582"/>
    <path d="M582.983 62.2922C593.987 51.2881 593.987 33.4468 582.983 22.4427C571.979 11.4385 554.138 11.4385 543.134 22.4427C532.13 33.4468 532.13 51.2881 543.134 62.2922C554.138 73.2964 571.979 73.2964 582.983 62.2922Z" fill="#A0616A"/>
    <path d="M596.008 11.6702C593.91 -4.41052 556.818 -3.38472 553.316 11.7446C551.458 10.5826 546.732 11.3869 544.97 12.7225C543.207 14.0581 542.077 16.0215 540.971 17.9275C539.461 20.5748 528.896 29.5311 527.312 26.9198C523.749 21.0433 516.762 33.8845 522.125 42.482C523.411 44.5434 548.26 41.2341 550.656 40.7529C549.465 41.0382 552.327 40.4206 550.656 40.7529C551.04 38.8877 554.922 29.251 554.004 27.5752C554.967 27.7663 555.875 28.168 556.664 28.7514C557.452 29.3349 558.102 30.0857 558.566 30.95C558.754 31.312 565.55 82.4654 565.55 82.4654C567.407 82.6893 569.282 82.7361 571.148 82.6052C572.307 76.3097 572.517 69.8764 571.774 63.5186C573.742 67.1525 575.298 70.9945 576.415 74.9733C577.055 77.1987 577.581 79.4553 577.991 81.7344C594.163 78.7102 616.025 68.2939 620.014 50.607C598.207 43.3465 615.388 27.5534 596.008 11.6702Z" fill="#2F2E41"/>
    <path d="M349.363 92.4773C349.724 89.9934 347.123 87.5587 343.552 87.0392C339.982 86.5197 336.794 88.1121 336.433 90.596C336.071 93.0799 338.673 95.5146 342.243 96.0342C345.814 96.5537 349.002 94.9612 349.363 92.4773Z" fill="#E6E6E6"/>
    <path d="M391.875 88.3291C392.237 85.8452 389.635 83.4105 386.064 82.891C382.494 82.3715 379.306 83.9639 378.945 86.4478C378.584 88.9317 381.185 91.3665 384.756 91.886C388.326 92.4055 391.514 90.813 391.875 88.3291Z" fill="#3F3D56"/>
    <path d="M337.722 58.0606C338.083 55.5767 335.482 53.142 331.911 52.6224C328.341 52.1029 325.153 53.6954 324.792 56.1793C324.43 58.6632 327.032 61.0979 330.603 61.6174C334.173 62.1369 337.361 60.5445 337.722 58.0606Z" fill="#FF6584"/>
    <path d="M319.25 43.9629C319.267 41.6826 317.995 39.8243 316.409 39.8123C314.822 39.8003 313.522 41.6391 313.505 43.9195C313.488 46.1998 314.76 48.0581 316.346 48.0701C317.932 48.0821 319.232 46.2432 319.25 43.9629Z" fill="#E6E6E6"/>
    <path d="M312.985 17.7051C313.002 15.4248 311.73 13.5665 310.144 13.5545C308.558 13.5425 307.258 15.3813 307.241 17.6616C307.223 19.942 308.495 21.8003 310.082 21.8122C311.668 21.8242 312.968 19.9854 312.985 17.7051Z" fill="#3F3D56"/>
    <path d="M361.699 63.9175C361.716 61.6372 360.444 59.7789 358.858 59.7669C357.272 59.7549 355.972 61.5937 355.955 63.8741C355.937 66.1544 357.209 68.0127 358.796 68.0246C360.382 68.0366 361.682 66.1978 361.699 63.9175Z" fill="#E6E6E6"/>
    <path d="M341.156 74.1746C341.173 71.8943 339.901 70.036 338.315 70.024C336.728 70.012 335.428 71.8509 335.411 74.1312C335.394 76.4115 336.666 78.2697 338.252 78.2817C339.838 78.2937 341.138 76.4549 341.156 74.1746Z" fill="#FF6584"/>
    <path d="M369.753 93.1326C369.77 90.8523 368.498 88.994 366.912 88.982C365.326 88.97 364.026 90.8088 364.009 93.0891C363.991 95.3695 365.263 97.2277 366.85 97.2397C368.436 97.2517 369.736 95.4129 369.753 93.1326Z" fill="#3F3D56"/>
    <path d="M467.894 117.379C468.282 117.102 468.034 116.089 467.34 115.118C466.646 114.147 465.768 113.585 465.38 113.863C464.991 114.14 465.239 115.153 465.933 116.124C466.627 117.095 467.505 117.657 467.894 117.379Z" fill="#3F3D56"/>
    <path d="M465.3 113.921C465.688 113.644 465.44 112.631 464.746 111.66C464.052 110.689 463.174 110.127 462.786 110.405C462.397 110.682 462.645 111.695 463.339 112.666C464.034 113.637 464.911 114.199 465.3 113.921Z" fill="#3F3D56"/>
</svg>
