<svg width="473" height="501" viewBox="0 0 473 501" fill="none"
    xmlns="http://www.w3.org/2000/svg">
    <path d="M75.8739 378.815L38.2007 382.912L20.1721 370.621L9.73914 382.912L14.752 408.841L20.4774 429.313L55.2497 411.653L83.2533 409.121L75.8739 378.815Z" fill="#A0616A"/>
    <path d="M266.759 335.391L175.827 333.749L65.2246 380.443L79.9707 412.404L179.924 384.54L334.751 428.778L313.453 323.927L266.759 335.391Z" fill="#2F2E41"/>
    <path d="M17.3349 381.792L35.4145 380.38L12.4238 331.816C12.4238 331.816 1.77455 328.05 0.133268 339.768C-1.50801 351.473 12.4747 430.776 16.5715 430.776C20.6684 430.776 34.4094 422.76 34.4094 422.76L14.0651 384.248L17.3476 381.792H17.3349Z" fill="#2F2E41"/>
    <path d="M470.66 368.496C468.84 368.687 466.856 368.98 464.744 369.413C455.786 371.232 455.608 377.314 455.685 378.7L455.621 378.662C454.718 380.1 454.158 381.563 453.814 382.95L453.407 364.323C453.674 363.776 453.916 363.14 454.12 362.504C454.794 364.565 455.888 366.512 456.83 366.384C458.064 366.219 458.598 362.593 458.369 360.023C459.934 362.033 462.568 364.196 463.56 363.534C464.349 363 463.878 360.812 463.013 358.827C464.82 359.921 466.817 360.634 467.441 359.934C468.293 358.992 466.258 355.773 464.387 353.979C466.894 354.208 470.087 353.814 470.291 352.669C470.469 351.727 468.56 350.544 466.537 349.781C468.573 349.246 470.482 348.305 470.418 347.376C470.342 346.269 467.517 345.531 465.074 345.429C466.919 343.992 468.611 341.994 468.09 341.091C467.619 340.264 465.405 340.582 463.357 341.307C464.565 339.577 465.418 337.63 464.769 336.969C463.967 336.142 461.105 337.567 459.145 339.157C459.527 336.689 459.336 333.571 458.229 333.292C457.3 333.05 455.99 334.869 455.087 336.841C454.692 334.767 453.878 332.808 452.949 332.808C451.626 332.808 450.557 336.803 450.557 339.399C450.557 339.551 450.557 339.679 450.557 339.819C450.43 339.666 450.277 339.5 450.099 339.335C448.229 337.528 444.628 335.518 443.699 336.46C443.051 337.121 443.903 339.068 445.112 340.798C443.063 340.073 440.849 339.742 440.379 340.582C439.743 341.702 442.478 344.475 444.692 345.824C444.565 345.811 444.412 345.798 444.272 345.786C441.676 345.608 437.618 346.409 437.529 347.732C437.465 348.661 439.374 349.603 441.409 350.137C439.374 350.9 437.478 352.084 437.656 353.025C437.86 354.17 441.053 354.565 443.56 354.336C441.689 356.13 439.654 359.349 440.506 360.29C441.129 360.977 443.127 360.265 444.934 359.183C444.068 361.168 443.598 363.356 444.387 363.891C445.43 364.59 448.318 362.148 449.832 360.048C449.679 362.618 450.29 366.155 451.511 366.295C452.02 366.359 452.568 365.812 453.051 364.972L451.664 384.998C451.346 387.327 453.407 388.853 453.598 389.808L453.891 403.371C453.56 402.404 453.102 401.411 452.491 400.431L452.428 400.47C452.504 399.07 452.326 393.001 443.369 391.182C441.257 390.749 439.272 390.457 437.452 390.266C435.302 390.037 434.462 392.976 436.409 393.93C439.221 395.304 441.867 397.034 443.241 399.083C446.766 404.325 451.626 401.297 452.326 400.826C453.102 402.111 453.611 403.409 453.929 404.643L454.082 411.844C454.043 412.01 454.018 412.111 454.018 412.111L454.094 412.137L454.476 429.567L458.038 429.542L456.766 411.73C456.982 410.763 457.644 407.493 456.766 404.096L455.494 390.1L453.84 384.604C454.082 382.899 454.641 380.991 455.774 379.095C456.461 379.566 461.334 382.594 464.858 377.352C466.232 375.303 468.879 373.573 471.69 372.199C473.624 371.245 472.797 368.306 470.647 368.535L470.66 368.496ZM454.412 409.732L454.349 406.679C454.489 407.836 454.476 408.867 454.412 409.732Z" fill="#F2F2F2"/>
    <path d="M330.96 226.15L339.981 195.844L366.19 195.017L376.84 232.702L330.96 226.15Z" fill="#A0616A"/>
    <path opacity="0.1" d="M330.96 226.15L339.981 195.844L366.19 195.017L376.84 232.702L330.96 226.15Z" fill="black"/>
    <path d="M371.203 221.926L328.606 220.285L315.4 247.449L295.017 367.746L401.929 391.907C401.929 391.907 408.482 257.551 393.736 238.708C378.99 219.865 371.203 221.913 371.203 221.913V221.926Z" fill="#E6E6E6"/>
    <path d="M246.44 127.724C244.659 118.245 238.335 111.464 232.292 112.596C226.248 113.729 222.8 122.329 224.582 131.821C225.243 135.625 226.795 139.2 229.124 142.279L237.152 182.37L252.992 179.151L245.969 139.124C247.025 135.409 247.178 131.503 246.414 127.724H246.44Z" fill="#A0616A"/>
    <path d="M364.829 232.842L277.828 215.704L253.374 142.165L225.981 148.654L253.463 257.284L351.94 270.236L364.829 232.842Z" fill="#E6E6E6"/>
    <path d="M232.33 9.9334C232.241 10.0225 232.165 10.0988 232.076 10.1879C218.907 -2.8915 197.685 -3.00601 184.364 9.9334C171.005 22.911 170.547 44.2222 183.346 57.7596L183.664 58.0904L230.803 106.629L279.673 59.1719L279.533 59.0319C279.609 58.9556 279.698 58.8792 279.787 58.8029C293.287 45.6981 293.592 24.1324 280.487 10.6459C267.382 -2.85333 245.817 -3.15869 232.33 9.94613V9.9334Z" fill="#D36464"/>
    <path d="M243.985 250.655C243.832 250.808 243.679 250.973 243.527 251.126C219.264 227.054 180.191 226.837 155.661 250.655C131.054 274.562 130.214 313.812 153.79 338.737H153.778L154.363 339.36L241.185 428.753L331.176 341.345L330.922 341.091C331.074 340.951 331.227 340.811 331.38 340.671C356.228 316.535 356.813 276.826 332.677 251.965C308.542 227.117 268.833 226.532 243.972 250.668L243.985 250.655Z" fill="#D36464"/>
    <path d="M376.725 350.29C376.725 350.29 408.876 377.072 396.942 393.319C385.02 409.567 344.459 438.652 326.138 429.631C307.817 420.61 269.787 355.417 269.787 355.417L259.838 422.201L233.806 419.898C233.806 419.898 214.9 325.569 232.33 311.102C249.774 296.636 329.166 322.21 329.166 322.21L376.712 350.302L376.725 350.29Z" fill="#2F2E41"/>
    <path d="M240.307 411.03L232.852 434.199L217.317 455.968L229.225 473.793L267.077 448.868L266.95 436.043L261.008 428.041L256.809 412.697L240.307 411.03Z" fill="#A0616A"/>
    <path d="M228.399 465.014L218.895 449.568L186.171 492.178C186.171 492.178 187.685 503.374 198.856 499.481C210.027 495.588 279.278 460.09 277.408 456.439C275.538 452.787 267.866 433.168 267.866 433.168L232.088 466.795L228.411 465.001L228.399 465.014Z" fill="#2F2E41"/>
    <g opacity="0.1">
        <path d="M248.489 350.073C238.883 351.027 231.592 356.753 232.203 362.86C232.814 368.967 241.084 373.153 250.69 372.199C254.532 371.868 258.234 370.621 261.504 368.573L302.129 364.03L300.284 347.974L259.799 351.524C256.199 350.15 252.318 349.653 248.489 350.086V350.073Z" fill="#A0616A"/>
        <path d="M363.429 241.189L338.848 326.383L263.476 344.399L267.573 372.262L378.175 354.234L399.563 257.245L363.429 241.189Z" fill="#E6E6E6"/>
    </g>
    <path d="M349.752 204.915C368.977 204.915 384.562 189.33 384.562 170.105C384.562 150.879 368.977 135.294 349.752 135.294C330.527 135.294 314.941 150.879 314.941 170.105C314.941 189.33 330.527 204.915 349.752 204.915Z" fill="#A0616A"/>
    <path d="M352.525 123.296C351.52 123.882 350.171 122.991 349.841 121.871C349.523 120.752 349.892 119.556 350.273 118.462C350.897 116.604 351.52 114.747 352.156 112.902C353.492 108.958 354.904 104.873 357.793 101.871C362.144 97.3413 369.065 96.1835 375.3 97.0232C383.302 98.092 391.191 102.431 394.919 109.594C398.634 116.757 397.056 126.757 390.338 131.223C399.919 142.203 403.252 154.443 402.731 168.998C402.209 183.566 386.331 196.963 375.987 207.218C373.671 205.819 371.572 199.254 372.844 196.862C374.116 194.482 372.297 191.709 373.862 189.52C375.427 187.332 376.75 190.818 375.16 188.642C374.155 187.268 378.073 184.088 376.585 183.273C369.371 179.278 366.966 170.283 362.424 163.387C356.953 155.079 347.589 149.442 337.69 148.514C332.232 148.005 326.468 148.934 322.002 152.102C317.524 155.27 314.636 160.931 315.666 166.313C312.982 163.591 311.646 159.583 312.142 155.791C312.651 152 314.979 148.488 318.287 146.554C316.277 139.913 317.995 132.266 322.664 127.126C327.333 121.986 346.253 122.864 353.06 124.213L352.538 123.309L352.525 123.296Z" fill="#2F2E41"/>
    <path d="M353.594 148.704C362.615 149.684 369.129 157.496 374.625 164.71C377.793 168.87 381.114 173.464 381.038 178.693C380.961 183.973 377.424 188.515 375.732 193.528C372.971 201.722 375.656 211.455 382.234 217.066C375.745 218.3 368.722 213.427 367.602 206.913C366.292 199.33 372.043 192.014 371.368 184.342C370.77 177.586 365.452 172.395 360.923 167.344C356.393 162.293 352.156 155.6 354.23 149.15L353.594 148.717V148.704Z" fill="#2F2E41"/>
</svg>
