<svg width="310" height="551" viewBox="0 0 310 551" fill="none"
    xmlns="http://www.w3.org/2000/svg">
    <path d="M240.538 516.762H76.1948C70.2061 516.762 64.276 515.583 58.7431 513.291C53.2102 510.999 48.1829 507.64 43.9482 503.405C39.7135 499.171 36.3544 494.143 34.0626 488.61C31.7708 483.078 30.5913 477.147 30.5913 471.159V45.6035C30.605 33.5129 35.414 21.9214 43.9634 13.3721C52.5127 4.82273 64.1042 0.0136872 76.1948 0H240.537C252.628 0.0136497 264.219 4.82267 272.769 13.372C281.318 21.9214 286.127 33.5129 286.141 45.6035V122.466H288.973V179.097H286.141V471.159C286.141 483.253 281.336 494.853 272.784 503.405C264.232 511.957 252.633 516.762 240.538 516.762ZM76.1948 1.41622C64.4797 1.42945 53.2482 6.08913 44.9643 14.373C36.6804 22.6569 32.0208 33.8884 32.0075 45.6035V471.159C32.0075 476.961 33.1503 482.707 35.3709 488.068C37.5915 493.43 40.8463 498.301 44.9495 502.404C49.0526 506.507 53.9238 509.762 59.2849 511.983C64.6459 514.203 70.3919 515.346 76.1946 515.346H240.537C252.256 515.346 263.496 510.691 271.782 502.404C280.069 494.117 284.725 482.878 284.725 471.159V177.681H287.556V123.882H284.725V45.6035C284.712 33.8884 280.052 22.6569 271.768 14.373C263.484 6.08913 252.253 1.42945 240.537 1.41622H76.1948Z" fill="#3F3D56"/>
    <path d="M242.348 505.083H77.2174C68.1404 505.073 59.4381 501.462 53.0197 495.044C46.6012 488.625 42.9907 479.923 42.9802 470.846V45.9168C42.9907 36.8398 46.6012 28.1375 53.0197 21.7191C59.4381 15.3007 68.1404 11.6902 77.2174 11.6797H98.3025L97.9057 12.6547C96.9651 14.9661 96.6069 17.4732 96.8627 19.9556C97.1184 22.4379 97.9802 24.8193 99.3722 26.8904C100.764 28.9615 102.644 30.6588 104.846 31.833C107.048 33.0072 109.505 33.6223 112 33.6241H206.15C208.645 33.6222 211.102 33.007 213.304 31.8328C215.506 30.6586 217.385 28.9613 218.777 26.8902C220.169 24.8192 221.031 22.4377 221.287 19.9555C221.543 17.4732 221.184 14.9661 220.244 12.6547L219.847 11.6797H242.348C251.425 11.6902 260.128 15.3007 266.546 21.7192C272.964 28.1376 276.575 36.8398 276.585 45.9168V470.846C276.575 479.923 272.964 488.625 266.546 495.044C260.128 501.462 251.425 505.073 242.348 505.083ZM77.2174 13.0959C68.5158 13.106 60.1735 16.5671 54.0206 22.72C47.8676 28.873 44.4065 37.2153 44.3964 45.9168V470.846C44.4066 479.548 47.8677 487.89 54.0207 494.043C60.1736 500.196 68.5159 503.657 77.2174 503.667H242.348C251.05 503.657 259.392 500.196 265.545 494.043C271.698 487.89 275.159 479.548 275.169 470.846V45.9168C275.159 37.2153 271.698 28.873 265.545 22.7201C259.392 16.5671 251.05 13.106 242.348 13.0959H221.918C222.758 15.5982 222.991 18.2645 222.598 20.8746C222.204 23.4847 221.196 25.9639 219.656 28.1075C218.116 30.2511 216.088 31.9977 213.739 33.2032C211.391 34.4086 208.79 35.0383 206.15 35.0404H112C109.36 35.0384 106.759 34.4087 104.41 33.2033C102.062 31.9979 100.034 30.2513 98.4937 28.1077C96.9534 25.9641 95.9449 23.4849 95.5516 20.8747C95.1582 18.2645 95.3913 15.5983 96.2314 13.0959H77.2174Z" fill="#CCCCCC"/>
    <path d="M294.748 276.705H14.9574C10.9918 276.701 7.18992 275.123 4.38583 272.319C1.58175 269.515 0.00446249 265.713 0 261.748V172.004C0.00446249 168.038 1.58175 164.236 4.38583 161.432C7.18992 158.628 10.9918 157.051 14.9574 157.046H294.748C298.714 157.051 302.516 158.628 305.32 161.432C308.124 164.236 309.701 168.038 309.706 172.004V261.748C309.701 265.713 308.124 269.515 305.32 272.319C302.516 275.123 298.714 276.701 294.748 276.705Z" fill="white"/>
    <path d="M294.748 276.705H14.9574C10.9918 276.701 7.18992 275.123 4.38583 272.319C1.58175 269.515 0.00446249 265.713 0 261.748V172.004C0.00446249 168.038 1.58175 164.236 4.38583 161.432C7.18992 158.628 10.9918 157.051 14.9574 157.046H294.748C298.714 157.051 302.516 158.628 305.32 161.432C308.124 164.236 309.701 168.038 309.706 172.004V261.748C309.701 265.713 308.124 269.515 305.32 272.319C302.516 275.123 298.714 276.701 294.748 276.705ZM14.9574 158.806C11.4584 158.81 8.10377 160.202 5.62958 162.676C3.1554 165.15 1.76365 168.504 1.75968 172.004V261.748C1.76365 265.247 3.1554 268.601 5.62958 271.076C8.10377 273.55 11.4584 274.941 14.9574 274.945H294.748C298.247 274.941 301.602 273.55 304.076 271.076C306.55 268.601 307.942 265.247 307.946 261.748V172.004C307.942 168.504 306.55 165.15 304.076 162.676C301.602 160.202 298.247 158.81 294.748 158.806H14.9574Z" fill="#3F3D56"/>
    <path d="M191.543 212.037H93.8803C92.0135 212.037 90.2232 211.295 88.9032 209.975C87.5831 208.655 86.8416 206.865 86.8416 204.998C86.8416 203.131 87.5831 201.341 88.9032 200.021C90.2232 198.701 92.0135 197.959 93.8803 197.959H191.543C193.41 197.959 195.2 198.701 196.52 200.021C197.84 201.341 198.582 203.131 198.582 204.998C198.582 206.865 197.84 208.655 196.52 209.975C195.2 211.295 193.41 212.037 191.543 212.037Z" fill="#FFB3A9"/>
    <path d="M282.167 235.792H93.8803C92.0135 235.792 90.2232 235.051 88.9032 233.731C87.5831 232.41 86.8416 230.62 86.8416 228.753C86.8416 226.887 87.5831 225.096 88.9032 223.776C90.2232 222.456 92.0135 221.715 93.8803 221.715H282.167C284.034 221.715 285.824 222.456 287.144 223.776C288.465 225.096 289.206 226.887 289.206 228.753C289.206 230.62 288.465 232.41 287.144 233.731C285.824 235.051 284.034 235.792 282.167 235.792Z" fill="#FFB3A9"/>
    <path d="M46.8951 243.271C61.4729 243.271 73.2905 231.453 73.2905 216.876C73.2905 202.298 61.4729 190.48 46.8951 190.48C32.3174 190.48 20.4998 202.298 20.4998 216.876C20.4998 231.453 32.3174 243.271 46.8951 243.271Z" fill="#FFB3A9"/>
    <path d="M282.157 264.387H257.521C255.654 264.387 253.864 263.646 252.544 262.326C251.224 261.006 250.482 259.215 250.482 257.349C250.482 255.482 251.224 253.691 252.544 252.371C253.864 251.051 255.654 250.31 257.521 250.31H282.157C283.081 250.31 283.996 250.492 284.85 250.846C285.704 251.199 286.48 251.718 287.134 252.371C287.788 253.025 288.306 253.801 288.66 254.655C289.014 255.509 289.196 256.424 289.196 257.349C289.196 258.273 289.014 259.188 288.66 260.042C288.306 260.896 287.788 261.672 287.134 262.326C286.48 262.979 285.704 263.498 284.85 263.852C283.996 264.205 283.081 264.387 282.157 264.387Z" fill="white"/>
    <path d="M282.157 264.387H257.521C255.654 264.387 253.864 263.646 252.544 262.326C251.224 261.006 250.482 259.215 250.482 257.349C250.482 255.482 251.224 253.691 252.544 252.371C253.864 251.051 255.654 250.31 257.521 250.31H282.157C283.081 250.31 283.996 250.492 284.85 250.846C285.704 251.199 286.48 251.718 287.134 252.371C287.788 253.025 288.306 253.801 288.66 254.655C289.014 255.509 289.196 256.424 289.196 257.349C289.196 258.273 289.014 259.188 288.66 260.042C288.306 260.896 287.788 261.672 287.134 262.326C286.48 262.979 285.704 263.498 284.85 263.852C283.996 264.205 283.081 264.387 282.157 264.387Z" fill="#CCCCCC"/>
    <path d="M239.777 134.037H84.0905C81.8839 134.035 79.7683 133.157 78.208 131.597C76.6477 130.037 75.7701 127.921 75.7676 125.714V75.7772C75.7701 73.5706 76.6477 71.4551 78.208 69.8948C79.7683 68.3345 81.8839 67.4568 84.0905 67.4543H239.777C241.984 67.4568 244.099 68.3345 245.66 69.8948C247.22 71.4551 248.098 73.5706 248.1 75.7772V125.714C248.098 127.921 247.22 130.037 245.66 131.597C244.099 133.157 241.984 134.035 239.777 134.037ZM84.0905 68.4335C82.1435 68.4357 80.2769 69.2101 78.9001 70.5869C77.5234 71.9636 76.749 73.8302 76.7468 75.7772V125.714C76.749 127.661 77.5234 129.528 78.9001 130.905C80.2769 132.282 82.1435 133.056 84.0905 133.058H239.777C241.724 133.056 243.591 132.282 244.968 130.905C246.344 129.528 247.119 127.661 247.121 125.714V75.7772C247.119 73.8302 246.344 71.9636 244.968 70.5869C243.591 69.2101 241.724 68.4357 239.777 68.4335H84.0905Z" fill="#CCCCCC"/>
    <path d="M182.35 98.053H128.006C126.968 98.0516 125.974 97.6384 125.24 96.904C124.507 96.1696 124.095 95.1742 124.095 94.1364C124.095 93.0985 124.507 92.1031 125.24 91.3688C125.974 90.6344 126.968 90.2211 128.006 90.2197H182.35C183.388 90.2211 184.383 90.6344 185.116 91.3688C185.849 92.1031 186.261 93.0985 186.261 94.1364C186.261 95.1742 185.849 96.1696 185.116 96.904C184.383 97.6384 183.388 98.0516 182.35 98.053Z" fill="#E6E6E6"/>
    <path d="M232.777 111.272H128.006C126.969 111.27 125.974 110.857 125.24 110.123C124.507 109.388 124.095 108.393 124.095 107.355C124.095 106.317 124.507 105.322 125.24 104.587C125.974 103.853 126.969 103.44 128.006 103.438H232.777C233.292 103.438 233.801 103.539 234.277 103.735C234.753 103.932 235.185 104.22 235.55 104.584C235.914 104.948 236.203 105.38 236.4 105.855C236.597 106.331 236.699 106.84 236.699 107.355C236.699 107.87 236.597 108.38 236.4 108.855C236.203 109.331 235.914 109.763 235.55 110.126C235.185 110.49 234.753 110.779 234.277 110.975C233.801 111.172 233.292 111.272 232.777 111.272Z" fill="#E6E6E6"/>
    <path d="M101.862 115.433C109.974 115.433 116.549 108.857 116.549 100.746C116.549 92.6341 109.974 86.0583 101.862 86.0583C93.7503 86.0583 87.1746 92.6341 87.1746 100.746C87.1746 108.857 93.7503 115.433 101.862 115.433Z" fill="#E6E6E6"/>
    <path d="M232.771 127.183H219.063C218.548 127.184 218.038 127.083 217.562 126.887C217.087 126.69 216.654 126.402 216.29 126.038C215.926 125.674 215.637 125.242 215.44 124.767C215.242 124.291 215.141 123.781 215.141 123.266C215.141 122.752 215.242 122.242 215.44 121.766C215.637 121.291 215.926 120.859 216.29 120.495C216.654 120.131 217.087 119.843 217.562 119.646C218.038 119.45 218.548 119.349 219.063 119.35H232.771C233.809 119.351 234.804 119.765 235.537 120.499C236.271 121.233 236.682 122.229 236.682 123.266C236.682 124.304 236.271 125.3 235.537 126.034C234.804 126.768 233.809 127.182 232.771 127.183Z" fill="white"/>
    <path d="M232.771 127.183H219.063C218.548 127.184 218.038 127.083 217.562 126.887C217.087 126.69 216.654 126.402 216.29 126.038C215.926 125.674 215.637 125.242 215.44 124.767C215.242 124.291 215.141 123.781 215.141 123.266C215.141 122.752 215.242 122.242 215.44 121.766C215.637 121.291 215.926 120.859 216.29 120.495C216.654 120.131 217.087 119.843 217.562 119.646C218.038 119.45 218.548 119.349 219.063 119.35H232.771C233.809 119.351 234.804 119.765 235.537 120.499C236.271 121.233 236.682 122.229 236.682 123.266C236.682 124.304 236.271 125.3 235.537 126.034C234.804 126.768 233.809 127.182 232.771 127.183Z" fill="#CCCCCC"/>
    <path d="M239.777 364.881H84.0905C81.8839 364.878 79.7683 364.001 78.208 362.44C76.6477 360.88 75.7701 358.765 75.7676 356.558V306.621C75.7701 304.414 76.6477 302.299 78.208 300.738C79.7683 299.178 81.8839 298.3 84.0905 298.298H239.777C241.984 298.3 244.099 299.178 245.66 300.738C247.22 302.299 248.098 304.414 248.1 306.621V356.558C248.098 358.765 247.22 360.88 245.66 362.44C244.099 364.001 241.984 364.878 239.777 364.881ZM84.0905 299.277C82.1435 299.279 80.2769 300.054 78.9001 301.43C77.5234 302.807 76.749 304.674 76.7468 306.621V356.558C76.749 358.505 77.5234 360.372 78.9001 361.748C80.2769 363.125 82.1435 363.899 84.0905 363.902H239.777C241.724 363.899 243.591 363.125 244.968 361.748C246.344 360.372 247.119 358.505 247.121 356.558V306.621C247.119 304.674 246.344 302.807 244.968 301.43C243.591 300.054 241.724 299.279 239.777 299.277H84.0905Z" fill="#CCCCCC"/>
    <path d="M182.35 328.897H128.006C126.968 328.897 125.972 328.484 125.237 327.749C124.503 327.015 124.09 326.019 124.09 324.98C124.09 323.941 124.503 322.945 125.237 322.21C125.972 321.476 126.968 321.063 128.006 321.063H182.35C183.388 321.065 184.383 321.478 185.116 322.212C185.849 322.947 186.261 323.942 186.261 324.98C186.261 326.018 185.849 327.013 185.116 327.747C184.383 328.482 183.388 328.895 182.35 328.897Z" fill="#E6E6E6"/>
    <path d="M232.777 342.115H128.006C126.969 342.114 125.974 341.701 125.24 340.966C124.507 340.232 124.095 339.237 124.095 338.199C124.095 337.161 124.507 336.165 125.24 335.431C125.974 334.697 126.969 334.283 128.006 334.282H232.777C233.816 334.282 234.812 334.695 235.546 335.429C236.281 336.164 236.693 337.16 236.693 338.199C236.693 339.237 236.281 340.234 235.546 340.968C234.812 341.703 233.816 342.115 232.777 342.115Z" fill="#E6E6E6"/>
    <path d="M101.862 346.277C109.974 346.277 116.549 339.701 116.549 331.589C116.549 323.478 109.974 316.902 101.862 316.902C93.7503 316.902 87.1746 323.478 87.1746 331.589C87.1746 339.701 93.7503 346.277 101.862 346.277Z" fill="#E6E6E6"/>
    <path d="M232.771 358.027H219.063C218.024 358.027 217.028 357.614 216.293 356.88C215.559 356.145 215.146 355.149 215.146 354.11C215.146 353.071 215.559 352.075 216.293 351.341C217.028 350.606 218.024 350.193 219.063 350.193H232.771C233.809 350.195 234.804 350.608 235.537 351.342C236.27 352.077 236.682 353.072 236.682 354.11C236.682 355.148 236.27 356.143 235.537 356.878C234.804 357.612 233.809 358.025 232.771 358.027Z" fill="white"/>
    <path d="M232.771 358.027H219.063C218.024 358.027 217.028 357.614 216.293 356.88C215.559 356.145 215.146 355.149 215.146 354.11C215.146 353.071 215.559 352.075 216.293 351.341C217.028 350.606 218.024 350.193 219.063 350.193H232.771C233.809 350.195 234.804 350.608 235.537 351.342C236.27 352.077 236.682 353.072 236.682 354.11C236.682 355.148 236.27 356.143 235.537 356.878C234.804 357.612 233.809 358.025 232.771 358.027Z" fill="#CCCCCC"/>
    <path d="M239.777 457.643H84.0905C81.8839 457.641 79.7683 456.763 78.208 455.203C76.6477 453.642 75.7701 451.527 75.7676 449.32V399.383C75.7701 397.176 76.6477 395.061 78.208 393.5C79.7683 391.94 81.8839 391.063 84.0905 391.06H239.777C241.984 391.063 244.099 391.94 245.66 393.5C247.22 395.061 248.098 397.176 248.1 399.383V449.32C248.098 451.527 247.22 453.642 245.66 455.203C244.099 456.763 241.984 457.641 239.777 457.643ZM84.0905 392.039C82.1435 392.041 80.2769 392.816 78.9001 394.193C77.5234 395.569 76.749 397.436 76.7468 399.383V449.32C76.749 451.267 77.5234 453.134 78.9001 454.51C80.2769 455.887 82.1435 456.662 84.0905 456.664H239.777C241.724 456.662 243.591 455.887 244.968 454.51C246.344 453.134 247.119 451.267 247.121 449.32V399.383C247.119 397.436 246.344 395.569 244.968 394.193C243.591 392.816 241.724 392.041 239.777 392.039H84.0905Z" fill="#CCCCCC"/>
    <path d="M182.35 421.659H128.006C126.968 421.659 125.972 421.246 125.237 420.512C124.503 419.777 124.09 418.781 124.09 417.742C124.09 416.704 124.503 415.707 125.237 414.973C125.972 414.238 126.968 413.826 128.006 413.826H182.35C183.388 413.827 184.383 414.24 185.116 414.975C185.849 415.709 186.261 416.704 186.261 417.742C186.261 418.78 185.849 419.776 185.116 420.51C184.383 421.244 183.388 421.658 182.35 421.659Z" fill="#E6E6E6"/>
    <path d="M232.777 434.878H128.006C126.969 434.876 125.974 434.463 125.24 433.728C124.507 432.994 124.095 431.999 124.095 430.961C124.095 429.923 124.507 428.928 125.24 428.193C125.974 427.459 126.969 427.046 128.006 427.044H232.777C233.816 427.044 234.812 427.457 235.546 428.191C236.281 428.926 236.693 429.922 236.693 430.961C236.693 432 236.281 432.996 235.546 433.73C234.812 434.465 233.816 434.878 232.777 434.878Z" fill="#E6E6E6"/>
    <path d="M101.862 439.039C109.974 439.039 116.549 432.463 116.549 424.352C116.549 416.24 109.974 409.664 101.862 409.664C93.7503 409.664 87.1746 416.24 87.1746 424.352C87.1746 432.463 93.7503 439.039 101.862 439.039Z" fill="#E6E6E6"/>
    <path d="M232.771 450.789H219.063C218.024 450.789 217.028 450.376 216.293 449.642C215.559 448.907 215.146 447.911 215.146 446.872C215.146 445.833 215.559 444.837 216.293 444.103C217.028 443.368 218.024 442.956 219.063 442.956H232.771C233.809 442.957 234.804 443.37 235.537 444.105C236.27 444.839 236.682 445.834 236.682 446.872C236.682 447.91 236.27 448.905 235.537 449.64C234.804 450.374 233.809 450.787 232.771 450.789Z" fill="white"/>
    <path d="M232.771 450.789H219.063C218.024 450.789 217.028 450.376 216.293 449.642C215.559 448.907 215.146 447.911 215.146 446.872C215.146 445.833 215.559 444.837 216.293 444.103C217.028 443.368 218.024 442.956 219.063 442.956H232.771C233.809 442.957 234.804 443.37 235.537 444.105C236.27 444.839 236.682 445.834 236.682 446.872C236.682 447.91 236.27 448.905 235.537 449.64C234.804 450.374 233.809 450.787 232.771 450.789Z" fill="#CCCCCC"/>
    <path d="M142.795 542.272H151.477L155.606 508.787L142.794 508.788L142.795 542.272Z" fill="#FFB8B8"/>
    <path d="M140.581 539.438L157.677 539.437H157.678C159.109 539.437 160.525 539.719 161.847 540.267C163.169 540.814 164.37 541.617 165.382 542.628C166.394 543.64 167.196 544.841 167.744 546.163C168.291 547.485 168.573 548.902 168.573 550.332V550.686L140.581 550.687L140.581 539.438Z" fill="#2F2E41"/>
    <path d="M108.098 542.272H116.779L120.909 508.787L108.096 508.788L108.098 542.272Z" fill="#FFB8B8"/>
    <path d="M105.883 539.438L122.98 539.437H122.98C124.411 539.437 125.828 539.719 127.15 540.267C128.472 540.814 129.673 541.617 130.685 542.628C131.696 543.64 132.499 544.841 133.046 546.163C133.594 547.485 133.876 548.902 133.876 550.332V550.686L105.884 550.687L105.883 539.438Z" fill="#2F2E41"/>
    <path d="M144.528 310.451C154.133 310.451 161.92 302.664 161.92 293.059C161.92 283.454 154.133 275.667 144.528 275.667C134.923 275.667 127.136 283.454 127.136 293.059C127.136 302.664 134.923 310.451 144.528 310.451Z" fill="#FFB8B8"/>
    <path d="M156.223 535.045H140.113C139.691 535.045 139.274 534.961 138.885 534.799C138.496 534.636 138.143 534.398 137.846 534.098C137.55 533.798 137.316 533.442 137.158 533.051C137.001 532.66 136.922 532.242 136.927 531.82L137.863 455.322C137.867 455.05 137.766 454.788 137.581 454.588C137.397 454.388 137.143 454.267 136.872 454.249C136.601 454.231 136.333 454.317 136.124 454.49C135.914 454.664 135.779 454.91 135.747 455.18L126.371 532.244C126.276 533.016 125.902 533.727 125.32 534.243C124.737 534.759 123.986 535.044 123.208 535.045H106.943C106.503 535.045 106.069 534.954 105.666 534.778C105.264 534.602 104.902 534.345 104.603 534.022C104.305 533.7 104.077 533.319 103.933 532.904C103.788 532.489 103.732 532.048 103.766 531.61L114.506 394.184L114.798 394.152L166.227 388.598L159.406 532.01C159.368 532.828 159.016 533.6 158.423 534.166C157.83 534.731 157.042 535.046 156.223 535.045Z" fill="#2F2E41"/>
    <path d="M115.132 402.62C114.306 402.619 113.513 402.296 112.92 401.72C112.328 401.144 111.983 400.36 111.957 399.534C111.677 390.845 111.195 360.778 116.788 338.704C118.314 332.674 121.74 327.295 126.56 323.362C131.379 319.43 137.336 317.152 143.549 316.867C149.665 316.533 155.731 318.133 160.886 321.441C166.041 324.748 170.024 329.595 172.269 335.294C181.67 359.16 190.551 388.577 179.478 393.19C164.966 399.237 126.708 401.932 115.328 402.614C115.262 402.618 115.197 402.62 115.132 402.62Z" fill="#FFB3A9"/>
    <path d="M181.603 275.481C181.877 275.762 182.172 276.021 182.486 276.255L180.66 311.325L173.066 315.213L177.436 327.44L191.548 321.864C192.688 321.414 193.651 320.605 194.293 319.561C194.935 318.516 195.22 317.292 195.107 316.071L191.41 276.29C192.62 275.387 193.526 274.138 194.008 272.708C194.491 271.277 194.526 269.734 194.11 268.283C193.694 266.832 192.846 265.542 191.678 264.585C190.511 263.628 189.08 263.049 187.576 262.925C186.072 262.8 184.565 263.137 183.257 263.89C181.949 264.643 180.901 265.777 180.252 267.14C179.604 268.503 179.386 270.031 179.627 271.521C179.869 273.011 180.558 274.392 181.603 275.481Z" fill="#FFB8B8"/>
    <path d="M180.804 312.63L186.146 327.811C186.298 328.243 186.355 328.703 186.314 329.159C186.272 329.615 186.133 330.057 185.905 330.454C185.677 330.851 185.366 331.195 184.994 331.461C184.622 331.727 184.196 331.91 183.746 331.997L167.994 335.048C165.78 335.813 163.352 335.669 161.244 334.647C159.135 333.625 157.518 331.809 156.747 329.597C155.976 327.384 156.113 324.956 157.13 322.845C158.146 320.734 159.958 319.112 162.168 318.335L176.312 310.869C176.717 310.656 177.163 310.532 177.62 310.506C178.078 310.481 178.535 310.554 178.961 310.721C179.388 310.888 179.773 311.145 180.091 311.475C180.409 311.804 180.652 312.198 180.804 312.63Z" fill="#FFB3A9"/>
    <path d="M106.27 275.481C105.997 275.762 105.702 276.021 105.388 276.255L107.213 311.325L114.807 315.213L110.438 327.44L96.3253 321.864C95.1852 321.414 94.222 320.605 93.5803 319.561C92.9386 318.516 92.6531 317.292 92.7665 316.071L96.4637 276.29C95.2538 275.387 94.3475 274.138 93.8652 272.708C93.3829 271.277 93.3475 269.734 93.7636 268.283C94.1798 266.832 95.0279 265.542 96.195 264.585C97.3621 263.628 98.793 263.049 100.297 262.925C101.802 262.8 103.308 263.137 104.616 263.89C105.925 264.643 106.973 265.777 107.621 267.14C108.269 268.503 108.487 270.031 108.246 271.521C108.005 273.011 107.315 274.392 106.27 275.481Z" fill="#FFB8B8"/>
    <path d="M108.913 310.721C109.339 310.554 109.796 310.481 110.253 310.506C110.711 310.532 111.157 310.656 111.562 310.87L125.705 318.335C127.916 319.112 129.728 320.734 130.744 322.845C131.76 324.956 131.898 327.384 131.127 329.597C130.355 331.809 128.738 333.625 126.63 334.647C124.521 335.669 122.094 335.813 119.879 335.048L104.127 331.997C103.678 331.91 103.252 331.727 102.88 331.461C102.507 331.195 102.196 330.851 101.969 330.454C101.741 330.057 101.602 329.615 101.56 329.159C101.518 328.703 101.575 328.243 101.727 327.811L107.069 312.63C107.221 312.198 107.464 311.804 107.783 311.474C108.101 311.145 108.486 310.888 108.913 310.721Z" fill="#FFB3A9"/>
    <path d="M151.283 296.023C151.191 293.805 151.748 291.608 152.885 289.7C154.022 287.793 155.689 286.258 157.684 285.283C162.971 282.554 166.292 276.732 164.837 271.417C162.974 264.613 153.713 260.2 146.21 262.541C144.179 263.262 142.221 264.172 140.36 265.259L135.458 267.887C133.364 268.935 131.345 270.127 129.415 271.454C126.525 273.584 124.259 276.451 122.855 279.756C121.452 283.061 120.961 286.682 121.435 290.241C122.4 297.158 126.93 303.502 133.131 307.845C135.502 309.617 138.241 310.835 141.146 311.407C144.118 311.897 147.427 311.341 149.6 309.492C152.996 306.603 152.646 301.766 151.547 297.726C151.402 297.169 151.313 296.598 151.283 296.023Z" fill="#2F2E41"/>
</svg>
