<svg width="548" height="553" viewBox="0 0 548 553" fill="none"
    xmlns="http://www.w3.org/2000/svg">
    <path d="M138.231 530.157C137.626 530.184 137.027 530.026 136.516 529.702C136.005 529.378 135.605 528.905 135.371 528.346C135.138 527.788 135.082 527.171 135.21 526.58C135.339 525.988 135.647 525.451 136.091 525.04C136.166 524.744 136.219 524.531 136.293 524.235C135.715 522.765 134.71 521.502 133.409 520.606C132.107 519.711 130.568 519.224 128.988 519.21C127.408 519.195 125.86 519.652 124.542 520.523C123.224 521.393 122.195 522.638 121.589 524.097C118.09 532.286 113.562 540.765 115.814 549.785C100.939 518.259 105.997 479.043 127.981 452.082C134.057 448.735 138.983 442.788 140.265 435.882C137.257 436.901 133.508 434.455 135.769 431.288C136.749 430.077 137.739 428.876 138.719 427.665C127.295 415.499 113.684 434.62 126.258 451.04C122.145 456.198 118.582 461.771 115.627 467.669C116.309 461.406 115.495 455.07 113.251 449.183C110.977 443.697 106.714 439.077 102.96 434.334C98.3964 428.555 89.0028 431.221 88.3886 438.554C92.6007 439.939 93.1479 446.023 88.3298 446.856C89.5918 460.499 98.5049 473.037 110.781 479.02C106.248 491.74 104.477 505.28 105.588 518.738C103.421 503.01 86.5382 499.193 74.7376 492.942C73.9865 492.46 73.1115 492.208 72.2193 492.215C71.3271 492.222 70.4562 492.489 69.713 492.982C68.9698 493.476 68.3862 494.175 68.0336 494.995C67.681 495.814 67.5745 496.719 67.7272 497.598C69.356 498.26 70.9149 499.083 72.381 500.053C73.068 500.515 73.5953 501.178 73.8907 501.951C74.1861 502.725 74.235 503.57 74.0308 504.373C73.8267 505.175 73.3794 505.894 72.7503 506.433C72.1211 506.971 71.341 507.301 70.5168 507.378C76.4651 522.1 91.8437 531.986 107.638 531.93C109.156 538.526 111.356 544.946 114.201 551.087H137.643C137.727 550.827 137.803 550.558 137.879 550.297C135.709 550.434 133.53 550.304 131.392 549.911C137.133 543.114 141.573 539.646 138.231 530.157L138.231 530.157Z" fill="#F2F2F2"/>
    <path d="M347.226 530.157C347.831 530.184 348.429 530.026 348.941 529.702C349.452 529.378 349.852 528.905 350.085 528.346C350.319 527.788 350.375 527.171 350.246 526.58C350.118 525.988 349.81 525.451 349.366 525.04C349.291 524.744 349.238 524.531 349.163 524.235C349.742 522.765 350.746 521.502 352.048 520.606C353.35 519.711 354.889 519.224 356.469 519.21C358.048 519.195 359.597 519.652 360.915 520.523C362.233 521.393 363.261 522.638 363.868 524.097C367.366 532.286 371.895 540.765 369.643 549.785C384.518 518.259 379.459 479.043 357.476 452.082C351.399 448.735 346.474 442.788 345.192 435.882C348.199 436.901 351.949 434.455 349.688 431.288C348.708 430.077 347.718 428.876 346.738 427.665C358.162 415.499 371.773 434.62 359.199 451.04C363.312 456.198 366.875 461.771 369.83 467.669C369.147 461.406 369.962 455.07 372.205 449.183C374.48 443.697 378.742 439.077 382.496 434.334C387.06 428.555 396.454 431.221 397.068 438.554C392.856 439.939 392.309 446.023 397.127 446.856C395.865 460.499 386.952 473.037 374.676 479.02C379.209 491.74 380.979 505.28 379.868 518.738C382.035 503.01 398.919 499.193 410.719 492.942C411.47 492.46 412.345 492.208 413.237 492.215C414.13 492.222 415 492.489 415.744 492.982C416.487 493.476 417.071 494.175 417.423 494.995C417.776 495.814 417.882 496.719 417.73 497.598C416.101 498.26 414.542 499.083 413.076 500.053C412.389 500.515 411.861 501.178 411.566 501.951C411.271 502.725 411.222 503.57 411.426 504.373C411.63 505.175 412.077 505.894 412.706 506.433C413.336 506.971 414.116 507.301 414.94 507.378C408.992 522.1 393.613 531.986 377.818 531.93C376.3 538.526 374.101 544.946 371.256 551.087H347.813C347.729 550.827 347.654 550.558 347.578 550.297C349.748 550.434 351.926 550.304 354.065 549.911C348.324 543.114 343.885 539.646 347.226 530.157Z" fill="#F2F2F2"/>
    <path d="M355.918 533.638L345.823 535.934L332.158 498.086L347.059 494.696L355.918 533.638Z" fill="#FFB6B6"/>
    <path d="M358.671 544.088L327.625 551.151L327.536 550.759C326.807 547.554 327.38 544.191 329.131 541.409C330.881 538.627 333.665 536.655 336.87 535.925L341.562 530.333L353.122 532.228L355.832 531.611L358.671 544.088Z" fill="#2F2E41"/>
    <path d="M518.778 349.155L524.327 357.895L493.256 383.464L485.065 370.563L518.778 349.155Z" fill="#FFB6B6"/>
    <path d="M527.699 343.056L544.768 369.934L544.428 370.15C541.653 371.911 538.293 372.499 535.085 371.783C531.877 371.067 529.085 369.107 527.323 366.332L520.48 363.788L518.388 352.262L516.898 349.916L527.699 343.056Z" fill="#2F2E41"/>
    <path d="M196.964 255.711L194.471 241.258L232.38 224.14L240.566 209.645C240.302 208.373 240.394 207.053 240.833 205.83C241.272 204.607 242.04 203.53 243.053 202.716C244.066 201.903 245.284 201.385 246.573 201.22C247.861 201.055 249.17 201.25 250.355 201.783C251.54 202.315 252.555 203.165 253.287 204.238C254.02 205.311 254.441 206.565 254.505 207.863C254.569 209.161 254.274 210.451 253.651 211.59C253.028 212.73 252.102 213.676 250.975 214.323L237.508 235.144L196.964 255.711Z" fill="#A0616A"/>
    <path d="M185.44 243.896L202.512 235.176L207.031 252.144L195.173 260.934L185.44 243.896Z" fill="#FF6584"/>
    <path d="M147.133 532.323L157.455 532.322L162.365 492.508L147.131 492.509L147.133 532.323Z" fill="#A0616A"/>
    <path d="M160.89 533.252V526.254L158.176 526.42L147.13 527.074L144.573 527.231L142.619 550.668L142.514 551.924H149.843L150.079 550.676L151.144 545.005L153.892 550.676L154.494 551.924H173.925C175.082 551.917 176.188 551.454 177.005 550.635C177.822 549.817 178.283 548.709 178.288 547.553C179.108 543.722 162.949 535.442 160.89 533.252Z" fill="#2F2E41"/>
    <path d="M24.6057 374.317L22.1995 384.355L59.7716 398.413L63.3225 383.599L24.6057 374.317Z" fill="#A0616A"/>
    <path d="M21.3116 387.478L28.1165 389.11L28.588 386.432L30.5272 375.538L30.9706 373.015L8.63591 365.65L7.43849 365.256L5.72959 372.383L6.88799 372.903L12.155 375.26L5.99895 376.611L4.64524 376.905L0.114633 395.801C-0.147852 396.927 0.0444974 398.111 0.64995 399.097C1.2554 400.082 2.22505 400.788 3.34833 401.063C6.88195 402.753 18.7018 388.97 21.3116 387.478Z" fill="#2F2E41"/>
    <path d="M163.093 274.648L149.807 268.437L123.311 300.501L107.173 304.583C106.015 303.993 104.717 303.735 103.422 303.836C102.127 303.937 100.885 304.395 99.8337 305.158C98.7822 305.921 97.962 306.959 97.4638 308.159C96.9656 309.359 96.8087 310.673 97.0104 311.956C97.2122 313.24 97.7648 314.442 98.6071 315.431C99.4494 316.42 100.549 317.157 101.784 317.561C103.018 317.964 104.341 318.019 105.605 317.718C106.868 317.417 108.024 316.773 108.945 315.856L132.577 308.346L163.093 274.648Z" fill="#A0616A"/>
    <path d="M351.455 155.951C348.639 155.951 345.886 155.116 343.544 153.551C341.203 151.986 339.377 149.763 338.3 147.161C337.222 144.559 336.94 141.696 337.489 138.934C338.039 136.171 339.395 133.634 341.386 131.643C343.378 129.651 345.915 128.295 348.677 127.746C351.439 127.196 354.302 127.478 356.904 128.556C359.506 129.634 361.73 131.459 363.295 133.801C364.859 136.142 365.694 138.895 365.694 141.712C365.69 145.487 364.189 149.106 361.519 151.776C358.85 154.445 355.23 155.947 351.455 155.951ZM351.455 129.106C348.962 129.106 346.525 129.846 344.452 131.231C342.379 132.616 340.763 134.584 339.809 136.888C338.855 139.191 338.606 141.726 339.092 144.171C339.579 146.616 340.779 148.862 342.542 150.625C344.305 152.388 346.551 153.588 348.996 154.075C351.441 154.561 353.976 154.311 356.279 153.357C358.582 152.403 360.551 150.788 361.936 148.715C363.321 146.642 364.06 144.205 364.06 141.712C364.057 138.37 362.727 135.166 360.364 132.802C358.001 130.439 354.797 129.11 351.455 129.106Z" fill="#E6E6E6"/>
    <path d="M350.45 147.076C350.422 147.076 350.393 147.075 350.364 147.074C350.112 147.062 349.864 146.995 349.64 146.878C349.415 146.761 349.219 146.598 349.063 146.398L346.82 143.514C346.678 143.332 346.574 143.124 346.513 142.901C346.452 142.679 346.435 142.447 346.463 142.218C346.492 141.989 346.565 141.768 346.679 141.568C346.793 141.367 346.946 141.191 347.128 141.049L347.209 140.987C347.391 140.845 347.599 140.74 347.821 140.679C348.044 140.618 348.276 140.601 348.505 140.63C348.734 140.658 348.955 140.732 349.155 140.846C349.356 140.96 349.532 141.112 349.674 141.295C349.787 141.44 349.93 141.559 350.094 141.644C350.258 141.729 350.438 141.778 350.622 141.787C350.806 141.796 350.99 141.765 351.161 141.696C351.332 141.628 351.487 141.523 351.613 141.389L356.168 136.581C356.488 136.243 356.93 136.046 357.395 136.034C357.861 136.021 358.312 136.194 358.651 136.513L358.725 136.585C358.893 136.743 359.027 136.933 359.121 137.144C359.215 137.354 359.267 137.582 359.273 137.812C359.28 138.043 359.24 138.272 359.158 138.488C359.075 138.703 358.951 138.9 358.792 139.067L351.725 146.528C351.561 146.701 351.363 146.839 351.144 146.933C350.925 147.027 350.689 147.076 350.45 147.076Z" fill="#E6E6E6"/>
    <path d="M280.372 328.348C277.555 328.348 274.802 327.513 272.461 325.949C270.119 324.384 268.294 322.16 267.216 319.558C266.138 316.956 265.857 314.093 266.406 311.331C266.955 308.569 268.312 306.032 270.303 304.04C272.294 302.049 274.832 300.693 277.594 300.143C280.356 299.594 283.219 299.876 285.821 300.954C288.423 302.031 290.647 303.856 292.211 306.198C293.776 308.54 294.611 311.293 294.611 314.109C294.607 317.884 293.105 321.504 290.436 324.173C287.766 326.843 284.147 328.344 280.372 328.348ZM280.372 301.504C277.879 301.504 275.441 302.243 273.369 303.628C271.296 305.013 269.68 306.982 268.726 309.285C267.772 311.588 267.522 314.123 268.009 316.568C268.495 319.013 269.696 321.259 271.458 323.022C273.221 324.785 275.467 325.986 277.913 326.472C280.358 326.958 282.892 326.709 285.196 325.755C287.499 324.801 289.467 323.185 290.853 321.112C292.238 319.039 292.977 316.602 292.977 314.109C292.973 310.767 291.644 307.563 289.281 305.2C286.918 302.837 283.714 301.508 280.372 301.504Z" fill="#E6E6E6"/>
    <path d="M279.367 319.474C279.338 319.474 279.309 319.473 279.281 319.471C279.028 319.459 278.781 319.393 278.556 319.276C278.332 319.159 278.135 318.995 277.98 318.795L275.737 315.912C275.595 315.73 275.491 315.521 275.429 315.299C275.368 315.077 275.351 314.844 275.38 314.616C275.409 314.387 275.482 314.166 275.596 313.965C275.71 313.765 275.862 313.589 276.044 313.447L276.125 313.384C276.307 313.243 276.515 313.138 276.738 313.077C276.96 313.016 277.193 312.999 277.422 313.027C277.65 313.056 277.871 313.129 278.072 313.244C278.273 313.358 278.449 313.51 278.59 313.692C278.703 313.838 278.847 313.957 279.011 314.042C279.174 314.127 279.354 314.176 279.538 314.185C279.723 314.194 279.907 314.163 280.078 314.094C280.249 314.025 280.403 313.921 280.53 313.787L285.084 308.979C285.405 308.641 285.846 308.444 286.312 308.432C286.777 308.419 287.229 308.591 287.567 308.911L287.642 308.982C287.809 309.141 287.944 309.331 288.038 309.542C288.132 309.752 288.184 309.979 288.19 310.21C288.196 310.44 288.157 310.67 288.074 310.885C287.992 311.101 287.868 311.298 287.709 311.465L280.641 318.925C280.477 319.099 280.28 319.237 280.06 319.331C279.841 319.425 279.605 319.474 279.367 319.474Z" fill="#E6E6E6"/>
    <path d="M124.315 136.342C121.499 136.342 118.746 135.507 116.404 133.942C114.062 132.377 112.237 130.153 111.16 127.552C110.082 124.95 109.8 122.087 110.349 119.324C110.899 116.562 112.255 114.025 114.246 112.034C116.238 110.042 118.775 108.686 121.537 108.137C124.299 107.587 127.162 107.869 129.764 108.947C132.366 110.025 134.59 111.85 136.155 114.191C137.719 116.533 138.554 119.286 138.554 122.102C138.55 125.878 137.049 129.497 134.379 132.166C131.71 134.836 128.09 136.338 124.315 136.342ZM124.315 109.497C121.822 109.497 119.385 110.236 117.312 111.622C115.239 113.007 113.623 114.975 112.669 117.279C111.715 119.582 111.466 122.116 111.952 124.562C112.438 127.007 113.639 129.253 115.402 131.016C117.165 132.779 119.411 133.979 121.856 134.465C124.301 134.952 126.836 134.702 129.139 133.748C131.442 132.794 133.411 131.178 134.796 129.105C136.181 127.033 136.92 124.595 136.92 122.102C136.916 118.76 135.587 115.556 133.224 113.193C130.861 110.83 127.657 109.501 124.315 109.497Z" fill="#E6E6E6"/>
    <path d="M123.31 127.467C123.282 127.467 123.253 127.466 123.224 127.464C122.972 127.452 122.724 127.385 122.5 127.269C122.275 127.152 122.079 126.988 121.923 126.788L119.68 123.905C119.538 123.723 119.434 123.514 119.373 123.292C119.312 123.07 119.295 122.837 119.323 122.609C119.352 122.38 119.425 122.159 119.539 121.958C119.653 121.758 119.806 121.582 119.988 121.44L120.069 121.377C120.251 121.235 120.459 121.131 120.681 121.07C120.904 121.009 121.136 120.992 121.365 121.02C121.594 121.049 121.815 121.122 122.016 121.236C122.216 121.351 122.392 121.503 122.534 121.685C122.647 121.831 122.79 121.95 122.954 122.035C123.118 122.12 123.298 122.169 123.482 122.177C123.666 122.186 123.85 122.156 124.021 122.087C124.192 122.018 124.347 121.913 124.473 121.78L129.028 116.972C129.348 116.634 129.79 116.437 130.255 116.424C130.721 116.412 131.172 116.584 131.511 116.904L131.585 116.975C131.753 117.134 131.887 117.324 131.981 117.534C132.075 117.745 132.127 117.972 132.133 118.203C132.139 118.433 132.1 118.663 132.018 118.878C131.935 119.094 131.811 119.291 131.652 119.458L124.585 126.918C124.421 127.091 124.223 127.229 124.004 127.324C123.785 127.418 123.549 127.467 123.31 127.467Z" fill="#E6E6E6"/>
    <path d="M238.315 381.292C205.296 381.292 167.348 344.651 133.774 362.06C32.121 414.771 46.1142 326.567 16.91 293.764L17.8688 291.841C50.0923 320.734 90.3243 344.242 134.216 359.823C173.88 373.905 213.842 380.429 249.766 378.707L249.828 381.019C246.034 381.202 242.197 381.293 238.315 381.292Z" fill="#F2F2F2"/>
    <path d="M193.021 133.554C196.833 133.554 199.923 129.411 199.923 124.299C199.923 119.188 196.833 115.044 193.021 115.044C189.209 115.044 186.119 119.188 186.119 124.299C186.119 129.411 189.209 133.554 193.021 133.554Z" fill="#E6E6E6"/>
    <path d="M272.738 277.936C269.583 280.038 266.353 275.034 269.569 273.025C272.724 270.923 275.954 275.927 272.738 277.936Z" fill="#E6E6E6"/>
    <path d="M254.576 109.473C259.539 109.473 263.563 105.449 263.563 100.486C263.563 95.5219 259.539 91.498 254.576 91.498C249.612 91.498 245.588 95.5219 245.588 100.486C245.588 105.449 249.612 109.473 254.576 109.473Z" fill="#FF6584"/>
    <path opacity="0.3" d="M286.011 149.737L337.153 0.372559L280.996 147.949C280.718 148.299 280.528 148.711 280.441 149.149C280.354 149.587 280.373 150.04 280.496 150.47C280.619 150.9 280.843 151.294 281.149 151.62C281.454 151.946 281.834 152.194 282.255 152.345C282.676 152.495 283.127 152.542 283.57 152.483C284.013 152.424 284.436 152.261 284.803 152.006C285.17 151.751 285.471 151.412 285.681 151.017C285.891 150.623 286.004 150.184 286.011 149.737Z" fill="#F0F0F0"/>
    <path d="M234.389 331.705C239.219 331.705 243.134 327.791 243.134 322.961C243.134 318.132 239.219 314.217 234.389 314.217C229.56 314.217 225.645 318.132 225.645 322.961C225.645 327.791 229.56 331.705 234.389 331.705Z" fill="#F2F2F2"/>
    <path d="M149.698 326.297C149.698 326.297 127.899 340.492 133.663 349.925C133.862 350.25 107.624 384.903 107.624 384.903L58.0926 381.759L56.3475 398.337L100.444 411.108C100.444 411.108 111.231 419.034 119.565 410.302C127.899 401.569 155.658 374.829 155.658 374.829L156.996 428.817L143.062 503.629L163.868 502.309L184.119 427.255L191.594 342.237L149.698 326.297Z" fill="#2F2E41"/>
    <path d="M165.226 241.104L156.059 248.051L145.61 270.351L155.658 283.997C155.658 283.997 164.109 298.644 150.581 312.828C137.053 327.013 126.666 342.163 137.493 341.622C148.321 341.081 192.174 363.386 192.463 345.112C192.751 326.838 193.335 312.828 193.335 312.828L204.833 283.667C204.833 283.667 211.683 266.271 206.873 261.063C202.064 255.856 195.625 249.202 195.625 249.202L183.915 237.492H173.341L165.226 241.104Z" fill="#FF6584"/>
    <path d="M182.339 198.257C202.904 209.959 186.021 240.837 165.072 229.842C144.507 218.139 161.39 187.262 182.339 198.257Z" fill="#A0616A"/>
    <path d="M193.336 204.746C191.895 206.62 188.884 205.741 182.988 207.078C183.001 205.08 182.77 203.087 182.301 201.145C181.862 203.55 180.901 205.83 179.485 207.822C174.365 208.39 180.641 223.943 178.02 235.377C174.642 211.254 167.539 217.574 171.128 222.359C173.425 225.422 171.893 234.611 165.001 230.017C153.63 235.421 137.433 208.575 155.384 195.984C155.063 189.178 162.635 188.103 167.299 190.196C178.615 181.765 191.544 192.567 193.336 204.746Z" fill="#2F2E41"/>
    <path d="M140.569 187.143C135.99 215.294 111.449 181.966 99.91 209.669C96.282 219.702 102.507 226.879 106.444 235.206C107.343 242.05 98.4398 245.522 97.5073 251.822C97.2477 266.264 120.548 265.38 127.062 256.268C133.755 246.73 125.762 233.932 129.785 223.694C135.44 209.479 158.434 209.374 160.437 192.836C156.558 187.312 146.126 180.984 140.569 187.143Z" fill="#2F2E41"/>
    <path d="M159.117 189.894C158.967 189.957 158.817 190.02 158.683 190.091H158.675C158.549 190.154 158.423 190.217 158.297 190.288C158.281 190.296 158.273 190.304 158.258 190.312C158.092 190.154 157.927 189.997 157.753 189.839C157.708 190.096 157.719 190.359 157.785 190.611L157.808 190.706C157.966 190.872 158.131 191.029 158.305 191.195C158.463 191.077 158.612 190.95 158.77 190.832C158.865 190.753 158.959 190.674 159.062 190.596C159.077 190.391 159.101 190.154 159.125 189.894L159.117 189.894ZM163.863 181.127C160.347 180.323 159.211 184.919 158.872 187.135C157.595 179.094 152.282 181.624 154.119 187.111C154.704 188.736 155.626 190.218 156.823 191.463C156.988 191.652 157.17 191.841 157.359 192.03C157.146 193.134 158.218 192.85 159.669 191.833C160.74 191.072 161.73 190.203 162.625 189.24C165.518 186.205 167.773 182.144 163.863 181.127ZM163.973 185.653C162.888 187.051 161.671 188.342 160.339 189.508C159.921 189.886 159.495 190.249 159.062 190.596C159.054 190.667 159.054 190.73 159.046 190.785C159.016 190.861 158.979 190.935 158.936 191.006C158.494 191.802 157.997 191.368 157.808 190.706C157.792 190.682 157.769 190.659 157.753 190.635C157.123 189.984 156.575 189.259 156.121 188.475C152.865 182.83 158.108 178.991 157.848 189.531C157.8 189.628 157.768 189.732 157.753 189.839C157.708 190.096 157.719 190.359 157.785 190.611L157.808 190.706C157.966 190.872 158.131 191.029 158.305 191.195C158.463 191.077 158.612 190.95 158.77 190.832C158.865 190.753 158.959 190.674 159.062 190.596C159.077 190.391 159.101 190.154 159.125 189.894V189.886C159.33 187.773 159.89 183.973 160.922 182.941C163.193 181.198 166.133 183.083 163.973 185.653ZM159.117 189.894C158.967 189.957 158.817 190.02 158.683 190.091H158.675C158.549 190.154 158.423 190.217 158.297 190.288C158.281 190.296 158.273 190.304 158.258 190.312C158.092 190.154 157.927 189.997 157.753 189.839C157.708 190.096 157.719 190.359 157.785 190.611L157.808 190.706C157.966 190.872 158.131 191.029 158.305 191.195C158.463 191.077 158.612 190.95 158.77 190.832C158.865 190.753 158.959 190.674 159.062 190.596C159.077 190.391 159.101 190.154 159.125 189.894L159.117 189.894Z" fill="#2F2E41"/>
    <path d="M349.198 345.1L341.603 364.908L305.973 435.191L337.281 516.951L353.439 512.686L340.121 435.191L378.329 388.766L423.705 419.542C423.705 419.542 443.829 435.252 451.485 420.359C459.141 405.465 508.678 373.787 508.678 373.787L496.422 360.714L439.377 387.41L400.004 331.992L349.198 345.1Z" fill="#2F2E41"/>
    <path d="M387.523 251.667L375.02 238.234L353.573 235.283L327.293 253.681L327.558 274.044L340.549 322.029C340.549 322.029 335.601 356.503 349.422 356.158C363.243 355.812 370.777 348.921 376.406 350.324C382.035 351.727 405.965 357.696 407.482 351.443C408.998 345.19 417.059 349.667 416.705 343.752C416.352 337.837 394.883 295.197 394.883 295.197L400.221 252.554L387.523 251.667Z" fill="#FF6584"/>
    <path d="M466.688 189.832C466.8 190.946 466.666 192.071 466.296 193.128C465.927 194.185 465.329 195.147 464.547 195.948C463.765 196.749 462.816 197.369 461.769 197.764C460.721 198.159 459.6 198.319 458.483 198.234L429.731 252.916L422.011 241.066L451.4 189.458C451.668 187.592 452.611 185.889 454.051 184.672C455.49 183.455 457.326 182.808 459.211 182.854C461.095 182.901 462.897 183.636 464.275 184.922C465.653 186.209 466.512 187.955 466.688 189.832Z" fill="#FFB6B6"/>
    <path d="M376.172 261.835C376.172 261.835 375.031 271.561 385.982 273.969C396.932 276.378 427.269 259.043 432.243 256.395C433.8 255.566 435.913 251.502 438.082 246.311C439.055 243.98 440.04 241.422 440.99 238.828C441.54 237.326 444.173 236.917 444.691 235.428C445.207 233.947 443.607 231.386 444.074 229.991C446.289 223.366 447.859 218.111 447.859 218.111L440.601 204.478C430.451 209.844 425.245 221.664 421.416 235.282L376.172 261.835Z" fill="#FF6584"/>
    <path d="M248.287 202.39C248.458 203.496 248.869 204.552 249.491 205.483C250.114 206.413 250.933 207.196 251.891 207.776C252.849 208.355 253.922 208.718 255.035 208.838C256.148 208.958 257.274 208.833 258.334 208.471L299.856 254.217L304.364 240.812L262.995 198.201C262.269 196.462 260.93 195.049 259.231 194.231C257.533 193.413 255.594 193.246 253.781 193.763C251.968 194.279 250.407 195.442 249.395 197.032C248.382 198.623 247.988 200.529 248.287 202.39Z" fill="#FFB6B6"/>
    <path d="M353.942 249.448C353.942 249.448 357.481 258.58 347.481 263.652C337.482 268.724 303.772 259.533 298.294 258.214C296.579 257.801 293.516 254.395 290.118 249.912C288.592 247.899 286.998 245.669 285.429 243.395C284.521 242.079 281.869 242.341 280.994 241.029C280.125 239.724 281.033 236.845 280.232 235.611C276.429 229.752 273.594 225.056 273.594 225.056L277.209 210.041C288.379 212.696 296.378 222.837 303.493 235.063L353.942 249.448Z" fill="#FF6584"/>
    <path d="M364.724 231.866C375.994 231.866 385.131 222.73 385.131 211.46C385.131 200.189 375.994 191.053 364.724 191.053C353.454 191.053 344.317 200.189 344.317 211.46C344.317 222.73 353.454 231.866 364.724 231.866Z" fill="#FFB6B6"/>
    <path d="M388.019 199.775C385.872 196.454 381.844 194.241 377.939 194.863C377.576 192.371 376.535 190.026 374.932 188.084C373.328 186.142 371.222 184.678 368.844 183.85C366.465 183.022 363.905 182.862 361.442 183.388C358.979 183.915 356.708 185.106 354.875 186.834C354.273 186.41 353.571 186.148 352.837 186.075C352.104 186.002 351.364 186.119 350.69 186.415C349.345 187.026 348.176 187.965 347.289 189.145C345.048 191.939 343.607 195.289 343.119 198.837C342.631 202.386 343.114 206 344.517 209.296C344.04 207.561 345.779 205.929 347.535 205.539C349.292 205.15 351.135 205.518 352.916 205.265C355.2 204.94 357.252 203.615 359.539 203.317C361.478 203.191 363.424 203.441 365.268 204.053C367.112 204.666 369.055 204.927 370.995 204.823C372.92 204.594 375.399 211.888 375.366 217.026C375.359 218 375.56 219.25 376.511 219.456C377.683 219.711 378.362 218.093 379.477 217.653C379.991 217.505 380.542 217.563 381.015 217.814C381.487 218.065 381.843 218.49 382.008 218.998C382.149 219.515 382.164 220.059 382.052 220.582C381.94 221.106 381.705 221.596 381.366 222.011C380.68 222.833 379.867 223.539 378.956 224.102L379.415 224.484C379.851 224.944 380.434 225.239 381.063 225.317C381.693 225.395 382.33 225.252 382.865 224.912C383.918 224.199 384.771 223.228 385.343 222.092C387.495 218.763 389.034 215.075 389.886 211.204C390.605 207.316 390.165 203.096 388.019 199.775Z" fill="#2F2E41"/>
    <path d="M538.987 280.26C512.666 300.196 460.292 293.898 444.04 328.047C394.83 431.441 352.731 352.68 309.645 344.162L309.248 342.05C352.38 345.628 398.645 340.077 443.041 325.997C483.162 313.275 518.957 294.348 546.555 271.286L548 273.091C545.086 275.528 542.082 277.917 538.987 280.26Z" fill="#F2F2F2"/>
    <path d="M427.7 551.062C427.073 552.918 69.1448 552.918 68.4684 551.066C69.0945 549.205 427.023 549.205 427.7 551.062Z" fill="#CCCCCC"/>
</svg>
