<svg width="41" height="40" viewBox="0 0 41 40" fill="none" xmlns="http://www.w3.org/2000/svg">
<rect width="40.3208" height="39.9546" rx="19.9773" fill="#F65D24"/>
<path d="M11.6617 6.9145C11.7895 6.81207 11.994 6.67378 12.1218 6.61744C12.3007 6.5355 12.4541 6.50989 12.8119 6.50989C13.0624 6.50989 13.3742 6.54062 13.502 6.58159C13.6298 6.61744 13.9058 6.73524 14.1154 6.84279C14.325 6.94523 14.647 7.13985 14.831 7.26789C15.0151 7.39593 15.3422 7.67762 15.5671 7.88761C15.7869 8.10272 16.0988 8.44075 16.2572 8.63537C16.4157 8.83512 16.6202 9.09632 16.7071 9.22436C16.794 9.3524 16.9933 9.69555 17.1467 9.99261C17.3051 10.2897 17.5249 10.766 17.6374 11.0579C17.755 11.3447 17.9237 11.8518 18.0208 12.1847C18.1179 12.5125 18.215 12.8761 18.2304 12.9888C18.2457 13.1015 18.2917 13.3319 18.3326 13.5009C18.3684 13.67 18.4246 13.9568 18.4553 14.1411C18.486 14.3255 18.5269 14.807 18.5882 15.944L18.7671 15.9132C18.8642 15.8928 19.1965 15.8569 19.5083 15.8262C19.8201 15.7954 20.0746 15.7886 20.1053 15.7835C20.1308 15.7835 20.4744 15.7954 20.8374 15.8313C21.2003 15.862 21.5326 15.8979 21.5684 15.9081C21.599 15.9235 21.6297 15.9184 21.6348 15.8979C21.6399 15.8723 21.6502 15.7442 21.6604 15.6008C21.6757 15.4625 21.7217 15.0579 21.7626 14.7045C21.8086 14.3511 21.8648 13.9158 21.8904 13.7314C21.916 13.547 21.9569 13.2961 21.9824 13.168C22.008 13.04 22.0744 12.7634 22.1307 12.5534C22.1869 12.3434 22.2789 12.031 22.3351 11.862C22.3965 11.693 22.4885 11.4164 22.5498 11.2474C22.6112 11.0784 22.8156 10.6175 23.0099 10.2231C23.199 9.82872 23.5006 9.30119 23.6795 9.0451C23.8584 8.79414 24.2623 8.3332 24.569 8.02077C24.8808 7.71348 25.2949 7.34984 25.4891 7.21668C25.6885 7.08863 25.9747 6.9145 26.1281 6.83767C26.2814 6.76085 26.537 6.65329 26.6904 6.60208C26.8897 6.5355 27.1146 6.50989 27.4571 6.50989C27.861 6.50989 27.9837 6.53037 28.1983 6.63281C28.3415 6.69939 28.5613 6.86328 28.6993 6.99132C28.8322 7.11936 29.0009 7.32423 29.0776 7.44715C29.1491 7.56495 29.2667 7.81079 29.3332 7.99517C29.4405 8.27174 29.4661 8.45099 29.4865 9.09632C29.5121 9.69043 29.4967 9.99261 29.4252 10.428C29.3792 10.7404 29.3025 11.1194 29.2616 11.273C29.2207 11.4267 29.1696 11.6264 29.144 11.7084C29.1185 11.7954 29.0776 11.9337 29.052 12.0157C29.0213 12.1027 28.9396 12.3332 28.8629 12.5278C28.7913 12.7276 28.6686 13.0246 28.592 13.1936C28.5204 13.3626 28.3313 13.7416 28.1831 14.0386L28.183 14.0387C28.0297 14.3358 27.8916 14.5867 27.8712 14.6021C27.8559 14.6175 27.8099 14.6994 27.769 14.7814C27.7332 14.8633 27.5594 15.1552 27.3805 15.4216C27.2067 15.6879 26.9051 16.1181 26.7108 16.3691C26.5217 16.62 26.2814 16.9222 26.1792 17.0298C26.0821 17.1424 25.9236 17.3166 25.8316 17.4139C25.7396 17.5163 25.668 17.6085 25.668 17.6239C25.668 17.6392 25.7651 17.7109 25.8878 17.7878C26.0054 17.8646 26.3479 18.1616 26.6444 18.4536C26.9408 18.7455 27.2936 19.1091 27.4265 19.2628C27.5594 19.4164 27.815 19.7647 27.9888 20.031C28.1677 20.2974 28.3824 20.6456 28.4642 20.7993C28.5459 20.9529 28.6993 21.2756 28.8015 21.5163C28.9038 21.757 29.0367 22.1002 29.0929 22.2846C29.1491 22.469 29.2309 22.766 29.2718 22.9504C29.3076 23.1348 29.3638 23.4216 29.3945 23.5906C29.4252 23.7596 29.461 24.1181 29.4763 24.3844C29.4967 24.6969 29.4814 25.122 29.4303 25.5624C29.3843 25.9414 29.3178 26.4024 29.2769 26.5868C29.236 26.7711 29.144 27.104 29.0673 27.3294C28.9907 27.5548 28.8271 27.9594 28.7044 28.2257C28.5766 28.492 28.3875 28.8505 28.2852 29.0195C28.183 29.1886 27.9376 29.5471 27.7332 29.8134C27.5287 30.0797 27.1607 30.4997 26.9102 30.7404C26.6648 30.9811 26.3479 31.2731 26.2048 31.3857C26.0667 31.4984 25.7754 31.7084 25.5658 31.8467C25.3562 31.9901 24.9626 32.2206 24.6968 32.3589C24.431 32.5023 23.9556 32.7123 23.6489 32.8249C23.3422 32.9427 22.9128 33.081 22.7032 33.1374C22.4936 33.1886 22.0642 33.2756 21.7575 33.3166C21.4508 33.3627 20.8272 33.419 20.3773 33.4344C19.8508 33.4549 19.3856 33.4446 19.0738 33.4037C18.808 33.3729 18.4604 33.3166 18.307 33.2859C18.1537 33.2551 17.8163 33.1732 17.5658 33.1066C17.3154 33.0349 17.0547 32.9735 16.9933 32.9581C16.9269 32.9479 16.8758 32.9222 16.8758 32.9018C16.8758 32.8761 16.8246 32.8557 16.7633 32.8505C16.6968 32.8454 16.5997 32.8147 16.5435 32.7891C16.4873 32.7635 16.2317 32.6457 15.9812 32.5279C15.7307 32.4101 15.3269 32.2001 15.0866 32.0567C14.8464 31.9082 14.4681 31.6521 14.2432 31.4831C14.0183 31.314 13.6042 30.9402 13.3231 30.6585C13.0368 30.3768 12.6688 29.9619 12.5001 29.7366C12.3314 29.5112 12.0809 29.1322 11.9378 28.8915C11.7998 28.6508 11.6157 28.2974 11.5237 28.0976C11.4368 27.8979 11.3192 27.6111 11.263 27.4574C11.2119 27.3038 11.1403 27.0938 11.1097 26.9965C11.079 26.8992 11.033 26.6789 11.0023 26.5099C10.9716 26.3409 10.9256 26.0183 10.895 25.7929C10.8694 25.5676 10.8438 25.1168 10.8438 24.7942C10.8438 24.4715 10.8796 23.985 10.9256 23.7186C10.9716 23.4523 11.0279 23.0989 11.0534 22.9401C11.079 22.7763 11.171 22.428 11.2528 22.1719C11.3397 21.9107 11.5339 21.4446 11.6822 21.1322C11.8355 20.8198 12.0962 20.3588 12.27 20.1079C12.4438 19.8569 12.633 19.5752 12.6994 19.4882C12.7608 19.4011 13.0828 19.0631 13.41 18.7353C13.7422 18.4075 14.0336 18.136 14.0643 18.136C14.0949 18.136 14.1461 18.0848 14.187 18.0234C14.2278 17.9568 14.3403 17.8492 14.4425 17.7775C14.5448 17.7058 14.6266 17.6392 14.6266 17.6239C14.6266 17.6085 14.5652 17.5266 14.4885 17.4344C14.4068 17.3473 14.2534 17.1732 14.1409 17.0502C14.0285 16.9273 13.8445 16.7122 13.732 16.5739C13.6144 16.4305 13.3844 16.1232 13.2106 15.8825C13.0419 15.6418 12.771 15.2269 12.6074 14.9606C12.4438 14.6943 12.2138 14.2794 12.0962 14.0387C11.9736 13.798 11.7844 13.3934 11.672 13.1424C11.5646 12.8915 11.3806 12.4049 11.2681 12.0669C11.1557 11.7288 11.0381 11.3396 11.0074 11.1962C10.9768 11.0579 10.9256 10.7557 10.8847 10.5304C10.8438 10.2845 10.8183 9.75189 10.8234 9.19875C10.8285 8.36905 10.8387 8.24613 10.9461 7.96956C11.0125 7.80054 11.1454 7.53934 11.2477 7.38569C11.3499 7.23204 11.5339 7.02205 11.6617 6.9145Z" fill="#B24219"/>
</svg>
