<svg width="40" height="40" viewBox="0 0 40 40" fill="none" xmlns="http://www.w3.org/2000/svg">
<g clip-path="url(#clip0_2396_156)">
<path opacity="0.99" d="M18.4555 0.0333577C18.2701 0.0444689 17.7645 0.0944688 17.3319 0.144469C16.8993 0.188913 16.2533 0.288913 15.8993 0.361136C15.5454 0.433358 15.0398 0.544469 14.7757 0.611136C14.5117 0.677802 13.9555 0.844469 13.5398 0.983358C13.1241 1.12225 12.5173 1.34447 12.1915 1.48336C11.8656 1.61669 11.2364 1.91669 10.787 2.14447C10.3375 2.3778 9.6072 2.80558 9.15777 3.10002C8.70833 3.39447 8.02855 3.88336 7.64091 4.18891C7.25327 4.49447 6.48361 5.19447 5.92743 5.75002C5.37125 6.30002 4.68024 7.05002 4.39372 7.41669C4.10158 7.78336 3.62406 8.44447 3.3263 8.88891C3.02855 9.33336 2.61844 9.99447 2.41619 10.3611C2.21956 10.7278 1.87687 11.4278 1.669 11.9167C1.45552 12.4056 1.169 13.1445 1.02855 13.5556C0.893719 13.9667 0.708326 14.6056 0.618438 14.9722C0.528551 15.3389 0.421809 15.8389 0.371247 16.0834C0.326304 16.3278 0.258888 16.7167 0.230798 16.9445C0.19709 17.1722 0.146528 17.65 0.11282 18C0.0847305 18.35 0.0566406 19.2 0.0566406 19.8889C0.0566406 20.5778 0.0734946 21.25 0.0903485 21.3889L0.124056 21.6389C0.747652 21.5278 1.07911 21.4556 1.26451 21.4056C1.4499 21.3556 1.80383 21.2167 2.05102 21.0945C2.29821 20.9722 2.71394 20.7278 2.97799 20.55C3.24203 20.3722 3.69709 20.0056 3.98923 19.7334C4.28136 19.4611 4.66338 19.0556 4.84316 18.8278C5.01732 18.6 5.27574 18.2167 5.42743 17.9722C5.57349 17.7278 6.02293 16.8778 6.42743 16.0834C6.83754 15.2889 7.33754 14.3889 7.54541 14.0834C7.74765 13.7778 8.12968 13.2667 8.3881 12.9445C8.64653 12.6222 9.13529 12.1 9.47237 11.7778C9.80945 11.4556 10.2757 11.0389 10.5061 10.8556C10.7364 10.6722 11.1521 10.3667 11.433 10.1834C11.7083 10 12.1128 9.75002 12.3319 9.6278C12.5454 9.50002 12.8769 9.33891 13.0623 9.26113C13.2477 9.18891 13.5398 9.08891 13.7083 9.05002C13.8769 9.00558 14.2814 8.9778 14.6072 8.9778C14.933 8.9778 15.4668 9.02225 15.7982 9.07225C16.3207 9.15558 16.9162 9.16669 20.0117 9.16669C22.3937 9.16669 23.787 9.14447 24.1016 9.10558C24.3656 9.06669 25.0454 9.03891 25.6184 9.03336C26.5005 9.0278 26.7027 9.04447 26.9387 9.1278C27.0904 9.18891 27.4218 9.33336 27.669 9.45558C27.9162 9.5778 28.3319 9.81669 28.596 9.98336C28.86 10.15 29.096 10.3167 29.1297 10.3556C29.1578 10.3889 29.3375 10.5334 29.5229 10.6778C29.7083 10.8167 30.1915 11.2667 30.596 11.6778C31.0005 12.0834 31.4443 12.5667 31.5847 12.75C31.7252 12.9334 32.0398 13.3834 32.2814 13.75C32.5286 14.1167 32.9611 14.8667 33.2533 15.4167C33.5398 15.9667 33.9443 16.7167 34.1465 17.0834C34.3432 17.45 34.7027 18.0389 34.933 18.3889C35.2308 18.8389 35.5454 19.2111 35.978 19.6445C36.3544 20.0167 36.7926 20.3834 37.0791 20.5667C37.3432 20.7334 37.6802 20.9389 37.8375 21.0111C37.9892 21.0889 38.36 21.2334 38.6521 21.3334C38.9443 21.4278 39.3319 21.5278 39.5117 21.5445C39.8263 21.5834 39.8319 21.5889 39.8319 21.75C39.8319 21.8834 39.8432 21.9056 39.8993 21.8445C39.9555 21.7889 39.9724 21.3667 39.9724 20.0667C39.9724 18.9889 39.9443 18.1445 39.8993 17.7778C39.86 17.4556 39.7757 16.9056 39.7196 16.5556C39.6634 16.2056 39.551 15.6167 39.4668 15.25C39.3825 14.8834 39.2027 14.2222 39.0623 13.7778C38.9274 13.3334 38.6859 12.6611 38.5286 12.2778C38.3713 11.8945 38.0398 11.1834 37.7926 10.6945C37.5454 10.2056 37.2701 9.70002 37.1802 9.56669C37.096 9.43891 37.0229 9.32225 37.0229 9.30558C37.0229 9.28891 36.9948 9.24447 36.9668 9.20558C36.933 9.17225 36.7757 8.93891 36.6128 8.69447C36.4555 8.45002 36.0342 7.88891 35.6802 7.44447C35.3207 7.00002 34.6915 6.30002 34.2701 5.88891C33.8544 5.47225 33.1915 4.87225 32.8038 4.55558C32.4162 4.23336 31.8432 3.80002 31.5398 3.58891C31.2364 3.3778 30.6915 3.0278 30.3375 2.81669C29.9836 2.60558 29.287 2.23891 28.7926 2.00002C28.2982 1.76114 27.6016 1.45558 27.2477 1.31669C26.8937 1.1778 26.2083 0.950024 25.7308 0.816691C25.2533 0.677802 24.478 0.488913 24.0173 0.394469C23.551 0.30558 22.8319 0.188913 22.4162 0.138913C21.9668 0.0833577 21.0679 0.0389133 20.2252 0.0333577C19.4387 0.0222466 18.6409 0.0222466 18.4555 0.0333577Z" fill="#483622"/>
<path opacity="0.99" d="M14.1294 8.97783C14.0676 8.98894 13.8766 9.02783 13.708 9.06117C13.5395 9.0945 13.2474 9.18339 13.062 9.26116C12.8766 9.33894 12.5451 9.50005 12.3316 9.62783C12.1125 9.75005 11.708 10.0001 11.4328 10.1834C11.1519 10.3667 10.7361 10.6723 10.5058 10.8556C10.2755 11.0389 9.80916 11.4556 9.47209 11.7778C9.13501 12.1001 8.64624 12.6223 8.38782 12.9445C8.12939 13.2667 7.74737 13.7778 7.54512 14.0834C7.33725 14.3889 6.83725 15.2889 6.42714 16.0834C6.02265 16.8778 5.57321 17.7278 5.42714 17.9723C5.27546 18.2167 5.01703 18.6001 4.84287 18.8278C4.6631 19.0556 4.28107 19.4612 3.98894 19.7334C3.6968 20.0056 3.24175 20.3723 2.9777 20.5501C2.71366 20.7278 2.29793 20.9723 2.05074 21.0945C1.80355 21.2167 1.38782 21.3723 1.12377 21.4334C0.859726 21.5001 0.533883 21.5723 0.393434 21.6001L0.140625 21.6445C0.151861 22.1556 0.213659 22.6278 0.281074 23.0278C0.34849 23.4223 0.472086 24.0501 0.561973 24.4167C0.651861 24.7834 0.837254 25.4612 0.983322 25.9167C1.12939 26.3778 1.3822 27.0889 1.55636 27.5001C1.72489 27.9112 1.9777 28.4889 2.11815 28.7778C2.26422 29.0667 2.56197 29.6167 2.78107 30.0001C3.00018 30.3834 3.3822 30.9834 3.62377 31.3334C3.86534 31.6834 4.20242 32.1445 4.37658 32.3612C4.55074 32.5723 4.91029 33.0001 5.17433 33.3056C5.444 33.6112 5.94961 34.1389 6.29793 34.4723C6.65186 34.8112 7.24175 35.3389 7.61253 35.6389C7.98332 35.9445 8.37658 36.2612 8.48332 36.3389C8.59006 36.4223 8.92152 36.6445 9.21366 36.8389C9.50579 37.0334 9.87096 37.2723 10.0283 37.3612C10.1856 37.4501 10.4833 37.6223 10.7024 37.7334C10.9159 37.8501 11.3092 38.0445 11.5732 38.1723C11.8373 38.2945 12.2024 38.4612 12.3878 38.5389C12.5732 38.6167 13.0901 38.8056 13.5395 38.9556C13.9889 39.1056 14.708 39.3167 15.1406 39.4167C15.5732 39.5223 16.2024 39.6556 16.5451 39.7167C16.8822 39.7778 17.6069 39.8667 18.1462 39.9167C18.6856 39.9612 19.5732 40.0001 20.1125 40.0001C20.6519 40.0001 21.5114 39.9612 22.0226 39.9167C22.5339 39.8723 23.253 39.7834 23.6238 39.7223C23.9946 39.6612 24.6125 39.5278 25.0002 39.4334C25.3878 39.3389 26.017 39.1556 26.4047 39.0278C26.7923 38.9001 27.2979 38.7167 27.5283 38.6223C27.7586 38.5334 28.2923 38.2945 28.708 38.0945C29.1238 37.8945 29.8148 37.5223 30.2474 37.2667C30.6743 37.0167 31.3485 36.5667 31.7361 36.2778C32.1294 35.9889 32.7249 35.5112 33.062 35.2167C33.4047 34.9223 33.9103 34.4445 34.1856 34.1612C34.4665 33.8723 34.9665 33.3112 35.3035 32.9167C35.635 32.5167 36.1912 31.7667 36.5451 31.2501C36.8934 30.7278 37.3597 29.9667 37.5788 29.5556C37.7923 29.1445 38.1238 28.4556 38.3035 28.0278C38.4889 27.6001 38.753 26.9001 38.8991 26.4723C39.0451 26.0445 39.2642 25.3223 39.3822 24.8612C39.5002 24.4056 39.6631 23.6167 39.7474 23.1112C39.8485 22.4723 39.8878 22.1001 39.8597 21.8889L39.826 21.5834C39.3316 21.5278 38.944 21.4278 38.6519 21.3334C38.3597 21.2334 37.9889 21.0889 37.8373 21.0112C37.6799 20.9389 37.3429 20.7334 37.0788 20.5667C36.7923 20.3834 36.3541 20.0167 35.9777 19.6445C35.5451 19.2112 35.2305 18.8389 34.9328 18.3889C34.7024 18.0389 34.3429 17.4501 34.1462 17.0834C33.944 16.7167 33.5395 15.9667 33.253 15.4167C32.9608 14.8667 32.5283 14.1167 32.2811 13.7501C32.0395 13.3834 31.7249 12.9334 31.5844 12.7501C31.444 12.5667 31.0002 12.0834 30.5957 11.6778C30.1912 11.2667 29.708 10.8167 29.5226 10.6778C29.3373 10.5334 29.1575 10.3889 29.1294 10.3556C29.0957 10.3167 28.8597 10.1501 28.5957 9.98339C28.3316 9.81672 27.9159 9.57783 27.6687 9.45561C27.4215 9.33339 27.0901 9.18894 26.9384 9.12783C26.7024 9.0445 26.5002 9.02783 25.6182 9.03339C25.0451 9.03894 24.3653 9.06672 24.1013 9.10561C23.7867 9.1445 22.3934 9.16672 20.0002 9.16672C17.0957 9.16672 16.2698 9.15005 15.8429 9.08339C15.5507 9.03894 15.0676 8.98894 14.7755 8.97783C14.4833 8.96117 14.1912 8.96117 14.1294 8.97783Z" fill="#735334"/>
<path opacity="0.99" d="M18.8198 12.8389C18.5277 12.8667 18.0052 12.9556 17.6681 13.0389C17.3254 13.1167 16.8704 13.2445 16.6569 13.3167C16.4378 13.3945 15.9715 13.6 15.6176 13.7778C15.2636 13.9556 14.6794 14.3112 14.3254 14.5667C13.9715 14.8167 13.4041 15.2889 13.067 15.6112C12.7355 15.9334 12.2861 16.4167 12.0782 16.6945C11.8704 16.9667 11.5782 17.3945 11.4209 17.6389C11.2636 17.8834 11.067 18.2223 10.9827 18.3889C10.8985 18.5556 10.7187 18.9667 10.5895 19.3056C10.4546 19.6389 10.2749 20.2167 10.1794 20.5834C10.0839 20.9501 9.96588 21.5223 9.91532 21.8612C9.85914 22.2223 9.81981 22.8612 9.81419 23.4167C9.80857 23.9389 9.83666 24.6001 9.87599 24.8889C9.92093 25.1778 10.0221 25.7167 10.1119 26.0834C10.2018 26.4501 10.3423 26.9501 10.4266 27.1945C10.5108 27.4389 10.6625 27.8278 10.7692 28.0556C10.876 28.2834 11.0951 28.6834 11.2524 28.9445C11.4097 29.2056 11.6681 29.5667 11.8254 29.7501C11.9771 29.9334 12.1569 30.1445 12.2187 30.2167C12.2805 30.2889 12.4603 30.4834 12.6119 30.6445L12.8928 30.9389L16.9771 31.0167C17.2299 30.7667 17.303 30.6778 17.303 30.6556C17.303 30.6278 17.1681 30.5445 17.0052 30.4667C16.8479 30.3834 16.5726 30.2112 16.4041 30.0723C16.2355 29.9334 16.0052 29.7167 15.8985 29.5889C15.7917 29.4612 15.6176 29.1889 15.5164 28.9834C15.4209 28.7778 15.2973 28.4445 15.2468 28.2389C15.1794 27.9667 15.1625 27.7167 15.185 27.3334C15.2018 27.0445 15.2692 26.6167 15.3367 26.3889C15.4041 26.1612 15.5614 25.7723 15.685 25.5278C15.8086 25.2834 15.9883 24.9723 16.0839 24.8334C16.185 24.6945 16.4097 24.4278 16.5839 24.2389C16.876 23.9278 16.8985 23.8834 16.8198 23.8223C16.7636 23.7834 16.5726 23.5223 16.3872 23.2501C16.1962 22.9723 15.9546 22.5501 15.8367 22.3056C15.7243 22.0612 15.5558 21.6223 15.4603 21.3334C15.3648 21.0445 15.2524 20.6167 15.2018 20.3889C15.1569 20.1612 15.1007 19.7723 15.0782 19.5278C15.0558 19.2723 15.067 18.9056 15.1063 18.6667C15.14 18.4389 15.2412 18.1167 15.3254 17.9445C15.4153 17.7667 15.5558 17.5889 15.6737 17.5112C15.8142 17.4167 15.9266 17.3834 16.067 17.4001C16.1737 17.4167 16.376 17.4778 16.5164 17.5445C16.6569 17.6112 16.8985 17.7723 17.0558 17.9001C17.2131 18.0334 17.494 18.3389 17.6794 18.5834C17.8704 18.8278 18.0839 19.1556 18.1625 19.3056C18.2355 19.4612 18.3648 19.7556 18.4434 19.9723C18.5221 20.1834 18.6344 20.6112 18.7018 20.9167C18.7636 21.2223 18.8591 21.7723 18.9041 22.1389C18.9546 22.5056 19.0164 22.8278 19.0501 22.8612C19.0839 22.8889 19.4771 22.9389 19.9322 22.9612C20.3872 22.9889 20.8423 22.9945 20.9378 22.9778C21.0389 22.9612 21.1457 22.9001 21.1737 22.8501C21.2018 22.7945 21.2805 22.3889 21.3479 21.9445C21.4153 21.5001 21.5277 20.9001 21.6063 20.6112C21.6794 20.3223 21.7917 19.9445 21.8591 19.7778C21.9209 19.6112 22.0782 19.2723 22.2074 19.0278C22.376 18.7167 22.5782 18.4501 22.8928 18.1334C23.14 17.8834 23.4434 17.6278 23.567 17.5667C23.6906 17.5056 23.8816 17.4389 23.9883 17.4167C24.1288 17.3889 24.2412 17.4056 24.3816 17.4723C24.4883 17.5278 24.6513 17.6334 24.7355 17.7167C24.8198 17.7945 24.9378 17.9889 24.994 18.1389C25.0501 18.2945 25.1176 18.5889 25.1344 18.8056C25.1569 19.0167 25.1513 19.4167 25.1176 19.6945C25.0839 19.9667 24.994 20.4445 24.9153 20.7501C24.831 21.0556 24.6681 21.5556 24.5501 21.8612C24.4266 22.1667 24.2018 22.6278 24.0445 22.8889C23.8872 23.1501 23.6625 23.4945 23.5389 23.6556L23.3142 23.9445C23.5501 24.1389 23.7692 24.3945 23.949 24.6389C24.1344 24.8834 24.3479 25.2112 24.4266 25.3612C24.5052 25.5167 24.6232 25.8001 24.6906 26.0001C24.758 26.2001 24.8479 26.5612 24.8872 26.8056C24.9266 27.0501 24.949 27.4223 24.9322 27.6389C24.9153 27.8501 24.831 28.2223 24.7524 28.4612C24.6737 28.6945 24.5164 29.0278 24.4097 29.1945C24.303 29.3612 24.1176 29.6056 23.994 29.7389C23.876 29.8667 23.6176 30.0778 23.4209 30.2056C23.2243 30.3334 22.9546 30.4778 22.8198 30.5223L22.5839 30.6112L22.8928 30.9501L27.303 30.9445C28.1063 30.0334 28.4771 29.5612 28.6457 29.3112C28.8142 29.0667 29.0501 28.6945 29.1681 28.4889C29.2861 28.2778 29.4659 27.9056 29.5726 27.6556C29.6794 27.4001 29.831 26.9834 29.9041 26.7223C29.9827 26.4612 30.0895 26.0501 30.1457 25.8056C30.2299 25.4223 30.2412 25.1001 30.2299 23.5278C30.2187 21.7056 30.2187 21.6889 30.0445 20.9445C29.949 20.5334 29.7861 19.9445 29.6794 19.6389C29.5726 19.3334 29.3648 18.8334 29.2131 18.5278C29.067 18.2223 28.7917 17.7389 28.6007 17.4612C28.4097 17.1778 28.14 16.8 27.9996 16.6278C27.8535 16.45 27.5445 16.1056 27.3086 15.8612C27.0726 15.6167 26.7187 15.2834 26.5164 15.1167C26.3142 14.9556 26.1007 14.7834 26.0389 14.7334C25.9771 14.6834 25.7243 14.5167 25.4771 14.3556C25.2299 14.2 24.7749 13.9445 24.4659 13.7889C24.1569 13.6334 23.7131 13.4445 23.4827 13.3612C23.2524 13.2834 22.8591 13.1667 22.6119 13.1112C22.3648 13.05 21.9827 12.9612 21.7692 12.9167C21.5277 12.8612 20.9883 12.8223 20.3648 12.8056C19.8086 12.7945 19.1119 12.8112 18.8198 12.8389Z" fill="#483622"/>
<path opacity="0.99" d="M15.6743 17.5111C15.5564 17.5889 15.4159 17.7667 15.326 17.9444C15.2418 18.1167 15.1406 18.4389 15.1069 18.6667C15.0676 18.9055 15.0564 19.2722 15.0788 19.5278C15.1013 19.7722 15.1575 20.1611 15.2024 20.3889C15.253 20.6167 15.3654 21.0444 15.4609 21.3333C15.5564 21.6222 15.7249 22.0611 15.8373 22.3055C15.9552 22.55 16.1968 22.9722 16.3878 23.25C16.5732 23.5222 16.7642 23.7833 16.8204 23.8222C16.8991 23.8833 16.8766 23.9278 16.5845 24.2389C16.4103 24.4278 16.1856 24.6944 16.0845 24.8333C15.9889 24.9722 15.8092 25.2833 15.6856 25.5278C15.562 25.7722 15.4047 26.1611 15.3373 26.3889C15.2698 26.6167 15.2024 27.0444 15.1856 27.3333C15.1631 27.7167 15.18 27.9667 15.2474 28.2389C15.2979 28.4444 15.4215 28.7778 15.517 28.9833C15.6182 29.1889 15.7923 29.4611 15.8991 29.5889C16.0058 29.7167 16.2361 29.9333 16.4047 30.0722C16.5732 30.2111 16.8654 30.4 17.0507 30.4944C17.2361 30.5833 17.5901 30.7111 17.8373 30.7778C18.0845 30.8389 18.5395 30.9111 18.8485 30.9389C19.1575 30.9611 19.7755 30.9722 20.2249 30.9611C20.6743 30.95 21.2811 30.9055 21.5732 30.8611C21.8654 30.8222 22.3204 30.7055 22.5845 30.6111C22.8485 30.5167 23.2249 30.3333 23.4215 30.2055C23.6182 30.0778 23.8766 29.8667 23.9946 29.7389C24.1182 29.6055 24.3036 29.3611 24.4103 29.1944C24.517 29.0278 24.6743 28.6944 24.753 28.4611C24.8316 28.2222 24.9159 27.85 24.9328 27.6389C24.9496 27.4222 24.9272 27.05 24.8878 26.8055C24.8485 26.5611 24.7586 26.2 24.6912 26C24.6238 25.8 24.5058 25.5167 24.4272 25.3611C24.3485 25.2111 24.135 24.8833 23.9496 24.6389C23.7699 24.3944 23.5508 24.1389 23.4665 24.0722L23.3148 23.9444C23.6631 23.4944 23.8878 23.15 24.0451 22.8889C24.2024 22.6278 24.4272 22.1667 24.5508 21.8611C24.6687 21.5555 24.8316 21.0555 24.9159 20.75C24.9946 20.4444 25.0845 19.9667 25.1182 19.6944C25.1519 19.4167 25.1575 19.0167 25.135 18.8055C25.1182 18.5889 25.0508 18.2944 24.9946 18.1389C24.9384 17.9889 24.8204 17.7944 24.7361 17.7167C24.6519 17.6333 24.489 17.5278 24.3822 17.4722C24.2418 17.4055 24.1294 17.3889 23.989 17.4167C23.8822 17.4389 23.6912 17.5055 23.5676 17.5667C23.444 17.6278 23.1406 17.8833 22.8934 18.1333C22.5788 18.45 22.3766 18.7167 22.2081 19.0278C22.0788 19.2722 21.9215 19.6111 21.8597 19.7778C21.7923 19.9444 21.68 20.3222 21.6069 20.6111C21.5283 20.9 21.4159 21.5 21.3485 21.9444C21.2811 22.3889 21.2024 22.7944 21.1743 22.85C21.1463 22.9 21.0395 22.9611 20.9384 22.9778C20.8429 22.9944 20.3878 22.9889 19.9328 22.9611C19.4777 22.9389 19.0845 22.8889 19.0507 22.8611C19.017 22.8278 18.9552 22.5055 18.9047 22.1389C18.8597 21.7722 18.7642 21.2222 18.7024 20.9167C18.635 20.6111 18.5227 20.1833 18.444 19.9722C18.3654 19.7555 18.2361 19.4611 18.1631 19.3055C18.0845 19.1555 17.871 18.8278 17.68 18.5833C17.4946 18.3389 17.2137 18.0333 17.0564 17.9C16.8991 17.7722 16.6575 17.6111 16.517 17.5444C16.3766 17.4778 16.1743 17.4167 16.0676 17.4C15.9272 17.3833 15.8148 17.4167 15.6743 17.5111Z" fill="#F9F2DB"/>
</g>
<defs>
<clipPath id="clip0_2396_156">
<rect width="40" height="40" fill="white"/>
</clipPath>
</defs>
</svg>
