<svg width="512" height="512" viewBox="0 0 512 512" fill="none" xmlns="http://www.w3.org/2000/svg">
<g clip-path="url(#clip0_2187_3)">
<path d="M298.667 -1.52588e-05C334.08 -1.52588e-05 362.667 28.5867 362.667 64V234.667H403.627C428.587 234.667 452.48 247.893 463.36 270.293C475.52 295.467 470.613 323.84 451.2 343.467L316.373 486.827C282.88 520.32 229.12 520.32 196.053 487.253L60.1601 342.827C42.0268 324.907 36.6935 298.24 46.7201 274.133C56.7468 250.027 79.1468 234.88 105.173 234.667H149.12V64C149.12 28.5867 177.707 -1.52588e-05 213.12 -1.52588e-05H298.453H298.667Z" fill="#EDEDED"/>
</g>
<defs>
<clipPath id="clip0_2187_3">
<rect width="512" height="512" fill="white" transform="matrix(-1 0 0 -1 512 512)"/>
</clipPath>
</defs>
</svg>
