<svg width="171" height="44" viewBox="0 0 171 44" fill="none" xmlns="http://www.w3.org/2000/svg">
    <path
        d="M145.805 15.2403C146.135 14.797 146.759 14.2474 147.192 14.0169C147.851 13.6623 148.215 13.6091 149.828 13.6091C151.319 13.6091 151.839 13.68 152.342 13.946C152.706 14.1233 153.295 14.602 153.642 15.0098C154.006 15.3998 154.422 16.0381 154.578 16.4105C154.751 16.8183 154.873 17.6338 154.89 18.5735C154.89 19.4069 154.803 20.843 154.699 21.765C154.578 22.6869 154.387 24.0521 154.283 24.7791C154.179 25.506 154.041 26.5876 153.954 27.1726C153.867 27.7577 153.694 28.9811 153.572 29.8854C153.451 30.7896 153.312 31.5165 153.26 31.5165C153.208 31.5165 153.156 31.7293 153.139 32.013C153.139 32.2789 153.018 32.9172 152.879 33.4314C152.758 33.9456 152.602 34.3533 152.515 34.3533C152.446 34.3533 152.428 34.442 152.48 34.5306C152.532 34.6193 152.359 35.1335 152.116 35.6476C151.873 36.1441 151.457 36.7469 151.215 36.9597C150.868 37.2611 150.521 37.3675 149.88 37.3675C149.082 37.3852 148.961 37.332 148.354 36.6583C148.007 36.2682 147.591 35.6476 147.435 35.293C147.296 34.9207 147.054 34.176 146.898 33.6441C146.759 33.1122 146.586 32.1548 146.499 31.5165C146.43 30.8782 146.169 29.0875 145.909 27.5272C145.667 25.967 145.389 24.0876 145.285 23.3607C145.181 22.6337 145.025 21.4458 144.939 20.7543C144.834 20.0451 144.765 19.07 144.765 18.5735C144.765 18.0948 144.869 17.3147 144.973 16.8714C145.095 16.4282 145.476 15.7013 145.805 15.2403Z"
        fill="#F65D24" />
    <path fill-rule="evenodd" clip-rule="evenodd"
        d="M50.539 6.04874C55.9876 6.04874 57.15 6.10153 58.5484 6.38307C59.4747 6.55903 60.8187 6.98134 61.636 7.36846C62.7257 7.87875 63.4159 8.35385 64.3784 9.28645C65.2684 10.1487 65.8314 10.8877 66.2128 11.6795C66.5216 12.313 66.8666 13.2456 66.9756 13.7559C67.0846 14.2486 67.1754 15.41 67.1754 16.2898C67.1754 17.1872 67.0483 18.4013 66.903 18.982C66.7395 19.5627 66.4126 20.4777 66.1402 21.0056C65.8314 21.6214 65.1594 22.4661 64.2876 23.2931C63.3795 24.1729 62.5259 24.7888 61.7631 25.1407C61.1456 25.4222 60.6371 25.7742 60.6371 25.8797C60.6371 26.0029 62.09 28.1145 63.8699 30.5427C65.6498 32.9886 67.3752 35.3641 67.6839 35.8216C68.0108 36.2967 68.2651 36.7894 68.2651 36.9302C68.2651 37.071 68.138 37.2293 67.9927 37.2821C67.8474 37.3349 66.4489 37.3701 64.9051 37.3701C63.3614 37.3701 61.9447 37.3173 61.7813 37.2293C61.6178 37.1589 59.8198 34.6779 54.0988 26.2844H49.9215V31.5633C49.9215 36.8422 49.9215 36.8422 49.5038 37.1062C49.195 37.3173 48.5412 37.3701 46.6524 37.3701C44.5819 37.3701 44.146 37.3173 43.8736 37.0534C43.5648 36.7718 43.5467 35.892 43.5285 21.727C43.4922 7.38605 43.5103 6.6822 43.8372 6.36547C44.146 6.06633 44.6 6.04874 50.539 6.04874ZM49.9215 21.0056C57.2589 20.9176 57.713 20.8648 58.4576 20.5305C58.9117 20.3369 59.5292 19.897 59.8561 19.5803C60.183 19.2459 60.5644 18.6301 60.7279 18.1902C60.8732 17.7503 61.0003 16.9232 61.0003 16.3426C61.0003 15.5331 60.8913 15.058 60.5099 14.319C60.183 13.7031 59.7108 13.14 59.1841 12.7705C58.7301 12.4362 57.9491 12.0667 57.4587 11.9083C56.8412 11.7323 55.4791 11.6092 53.2633 11.5564L49.9578 11.4684L49.9215 21.0056Z"
        fill="#EDEDED" />
    <path
        d="M148.49 4.18868C148.631 3.81712 148.965 3.35711 149.229 3.16248C149.475 2.96786 149.879 2.80862 150.107 2.80862C150.318 2.80862 150.705 2.89709 150.951 2.98555C151.197 3.07402 151.514 3.42788 151.672 3.74635C151.883 4.15329 151.936 4.57792 151.865 5.19718C151.812 5.69258 151.707 6.24106 151.637 6.43568C151.531 6.73646 151.584 6.71877 152.023 6.32953C152.305 6.06413 152.709 5.76335 152.92 5.65719C153.148 5.55104 153.605 5.46257 153.939 5.46257C154.432 5.46257 154.66 5.58642 155.082 6.08182C155.363 6.41799 155.609 6.86031 155.609 7.05494C155.609 7.24956 155.521 7.58573 155.416 7.81574C155.293 8.02805 154.379 9.05424 153.395 10.0981C152.393 11.1597 151.453 12.6315 151.453 12.6315C151.453 12.6315 151.121 13.3917 150.706 13.5765C150.585 13.6302 150.358 13.6013 150.358 13.6013H149.545C148.965 13.6013 148.807 13.4598 147.172 11.4251C146.187 10.2397 145.168 8.77116 144.887 8.16959C144.57 7.51495 144.359 6.77185 144.359 6.34722C144.359 5.85182 144.482 5.49796 144.781 5.16179C145.133 4.75485 145.361 4.66639 146.029 4.66639C146.732 4.66639 146.926 4.75485 147.312 5.21487C147.576 5.51565 147.875 5.90489 147.998 6.09952C148.174 6.3826 148.209 6.32953 148.209 5.6395C148.209 5.19718 148.332 4.54254 148.49 4.18868Z"
        fill="#0D8B65" fill-opacity="0.97" />
    <path
        d="M1.77401 0.648973C1.98956 0.484676 2.33445 0.262875 2.55 0.172512C2.85177 0.0410742 3.11044 0 3.71399 0C4.13647 0 4.66242 0.0492891 4.87797 0.115008C5.09353 0.172512 5.55912 0.361453 5.91263 0.533965C6.26614 0.698262 6.80933 1.01043 7.11973 1.2158C7.43012 1.42117 7.98194 1.87298 8.36131 2.20979C8.73207 2.55482 9.25801 3.097 9.5253 3.40916C9.79259 3.72954 10.1375 4.1485 10.284 4.35387C10.4306 4.55924 10.7669 5.10963 11.0256 5.58609C11.2928 6.06256 11.6636 6.82654 11.8533 7.29478C12.0516 7.75481 12.3361 8.56808 12.4999 9.10205C12.6638 9.6278 12.8276 10.2111 12.8534 10.3918C12.8793 10.5725 12.9569 10.9422 13.0259 11.2133C13.0862 11.4844 13.1811 11.9444 13.2328 12.2401C13.2845 12.5359 13.3535 13.308 13.457 15.1317L13.7588 15.0825C13.9226 15.0496 14.483 14.9921 15.009 14.9428C15.5349 14.8935 15.9642 14.8826 16.0159 14.8744C16.059 14.8744 16.6386 14.8935 17.2507 14.951C17.8629 15.0003 18.4233 15.0578 18.4837 15.0742C18.5354 15.0989 18.5872 15.0907 18.5958 15.0578C18.6044 15.0167 18.6216 14.8114 18.6389 14.5814C18.6648 14.3595 18.7424 13.7106 18.8113 13.1438C18.8889 12.5769 18.9838 11.8787 19.0269 11.5829C19.07 11.2872 19.139 10.8847 19.1821 10.6793C19.2252 10.4739 19.3373 10.0303 19.4321 9.69352C19.527 9.35671 19.6822 8.8556 19.777 8.58451C19.8805 8.31342 20.0357 7.86982 20.1391 7.59873C20.2426 7.32764 20.5875 6.58831 20.9151 5.95576C21.2341 5.32322 21.7429 4.47709 22.0446 4.06635C22.3464 3.66382 23.0276 2.92448 23.5449 2.42338C24.0708 1.93049 24.7692 1.34723 25.0969 1.13365C25.4331 0.928277 25.916 0.648973 26.1746 0.52575C26.4333 0.402527 26.8644 0.230016 27.1231 0.147867C27.4593 0.0410742 27.8387 0 28.4164 0C29.0975 0 29.3045 0.0328594 29.6666 0.197156C29.908 0.303949 30.2788 0.566824 30.5116 0.772195C30.7357 0.977567 31.0203 1.30616 31.1496 1.50332C31.2703 1.69226 31.4686 2.08657 31.5807 2.38231C31.7618 2.82591 31.8049 3.11343 31.8394 4.1485C31.8825 5.10142 31.8566 5.58609 31.7359 6.28436C31.6583 6.78546 31.529 7.39336 31.46 7.63981C31.391 7.88625 31.3048 8.20663 31.2617 8.33807C31.2186 8.47772 31.1496 8.69952 31.1065 8.83096C31.0548 8.97061 30.9168 9.34028 30.7875 9.65244C30.6668 9.97282 30.4598 10.4493 30.3305 10.7204C30.2098 10.9915 29.8908 11.5994 29.6407 12.0758C29.3821 12.5523 29.1493 12.9548 29.1148 12.9795C29.0889 13.0041 29.0113 13.1355 28.9423 13.267C28.882 13.3984 28.5888 13.8667 28.2871 14.2938C27.9939 14.721 27.4852 15.411 27.1576 15.8136C26.8385 16.2161 26.4333 16.7008 26.2609 16.8733C26.097 17.054 25.8297 17.3333 25.6745 17.4894C25.5193 17.6537 25.3986 17.8016 25.3986 17.8262C25.3986 17.8509 25.5625 17.9659 25.7694 18.0891C25.9677 18.2123 26.5454 18.6888 27.0455 19.157C27.5455 19.6253 28.1405 20.2085 28.3647 20.455C28.5888 20.7014 29.0199 21.26 29.3131 21.6872C29.6149 22.1144 29.977 22.673 30.1149 22.9194C30.2529 23.1659 30.5116 23.6834 30.684 24.0695C30.8564 24.4556 31.0806 25.006 31.1755 25.3017C31.2703 25.5975 31.4083 26.0739 31.4772 26.3697C31.5376 26.6654 31.6324 27.1254 31.6842 27.3965C31.7359 27.6676 31.7963 28.2426 31.8221 28.6698C31.8566 29.1709 31.8307 29.8527 31.7445 30.5592C31.6669 31.1671 31.5548 31.9065 31.4859 32.2022C31.4169 32.4979 31.2617 33.0319 31.1324 33.3933C31.003 33.7548 30.7271 34.4038 30.5202 34.8309C30.3046 35.2581 29.9856 35.8332 29.8132 36.1042C29.6407 36.3753 29.2269 36.9504 28.882 37.3775C28.5371 37.8047 27.9163 38.4783 27.4938 38.8644C27.08 39.2505 26.5454 39.7188 26.304 39.8995C26.0712 40.0802 25.5797 40.417 25.2262 40.6388C24.8727 40.8689 24.2088 41.2385 23.7604 41.4603C23.3121 41.6903 22.5102 42.0271 21.9929 42.2079C21.4756 42.3968 20.7513 42.6186 20.3978 42.709C20.0443 42.7911 19.32 42.9308 18.8027 42.9965C18.2854 43.0704 17.2335 43.1608 16.4747 43.1854C15.5867 43.2183 14.802 43.2019 14.2761 43.1362C13.8277 43.0869 13.2414 42.9965 12.9828 42.9472C12.7241 42.8979 12.155 42.7665 11.7326 42.6597C11.3101 42.5447 10.8704 42.4461 10.7669 42.4215C10.6548 42.405 10.5686 42.364 10.5686 42.3311C10.5686 42.29 10.4824 42.2572 10.3789 42.2489C10.2668 42.2407 10.103 42.1914 10.0081 42.1504C9.9133 42.1093 9.48219 41.9204 9.05971 41.7314C8.63722 41.5425 7.95607 41.2057 7.55083 40.9756C7.14559 40.7374 6.50756 40.3267 6.12818 40.0556C5.74881 39.7845 5.05042 39.1848 4.5762 38.733C4.09336 38.2812 3.47257 37.6158 3.18804 37.2543C2.90351 36.8929 2.48102 36.285 2.2396 35.8989C2.00681 35.5128 1.69641 34.9459 1.54121 34.6256C1.39464 34.3052 1.19633 33.8452 1.10148 33.5987C1.01526 33.3523 0.894552 33.0155 0.842819 32.8594C0.791086 32.7033 0.713487 32.3501 0.661754 32.079C0.610022 31.8079 0.532422 31.2903 0.48069 30.9289C0.437579 30.5674 0.394468 29.8445 0.394468 29.327C0.394468 28.8095 0.454823 28.0291 0.532422 27.6019C0.610022 27.1747 0.704865 26.6079 0.747976 26.3532C0.791086 26.0903 0.946285 25.5317 1.08424 25.121C1.23081 24.702 1.55846 23.9545 1.8085 23.4534C2.06716 22.9523 2.50689 22.2129 2.80004 21.8104C3.09319 21.4079 3.41221 20.9561 3.5243 20.8164C3.62777 20.6768 4.17096 20.1346 4.72278 19.6088C5.28321 19.0831 5.77468 18.6477 5.82641 18.6477C5.87814 18.6477 5.96436 18.5655 6.03334 18.467C6.10232 18.3602 6.292 18.1877 6.46445 18.0727C6.63689 17.9577 6.77484 17.8509 6.77484 17.8262C6.77484 17.8016 6.67138 17.6701 6.54205 17.5223C6.40409 17.3826 6.14543 17.1033 5.95574 16.9062C5.76605 16.709 5.45566 16.364 5.26597 16.1422C5.06766 15.9122 4.67967 15.4193 4.38651 15.0332C4.10198 14.6471 3.64501 13.9817 3.3691 13.5545C3.09319 13.1273 2.7052 12.4619 2.50689 12.0758C2.29996 11.6897 1.98094 11.0408 1.79125 10.6382C1.61019 10.2357 1.29979 9.45529 1.1101 8.91311C0.920418 8.37093 0.722109 7.7466 0.670377 7.51658C0.618644 7.29478 0.532422 6.81011 0.463445 6.44865C0.394468 6.05434 0.351358 5.2 0.35998 4.31279C0.368602 2.98199 0.385846 2.78483 0.566911 2.34123C0.678999 2.07014 0.903174 1.65118 1.07562 1.40474C1.24806 1.15829 1.55846 0.821485 1.77401 0.648973Z"
        fill="#F65D24" />
    <path
        d="M13.9948 30.8519C14.1267 30.7281 14.2834 30.6125 14.3493 30.5878C14.4153 30.563 15.2068 30.5382 16.0972 30.5382C17.4906 30.53 17.7709 30.5547 18.0265 30.6786C18.2327 30.7776 18.3563 30.918 18.447 31.1491C18.5624 31.4546 18.5624 31.5124 18.447 31.8509C18.3728 32.0572 18.1749 32.3544 18.0183 32.5113C17.8534 32.6681 17.5483 32.8993 16.9465 33.2213L16.9217 33.7166C16.9052 34.1046 16.9382 34.2697 17.0949 34.5339C17.2185 34.732 17.4247 34.9301 17.6143 35.021C17.8616 35.1448 18.0513 35.1696 18.4718 35.1365C18.7686 35.1118 19.1313 35.0375 19.2715 34.9632C19.4199 34.8806 19.7827 34.5999 20.0795 34.3275C20.5247 33.9147 20.6649 33.8322 20.904 33.8322C21.1019 33.8322 21.2585 33.8982 21.3987 34.0386C21.5471 34.1872 21.6048 34.3358 21.6048 34.5586C21.6048 34.7485 21.5306 34.9797 21.3987 35.1778C21.2832 35.3429 21.0689 35.5988 20.9287 35.7309C20.7803 35.8713 20.5082 36.0777 20.3268 36.185C20.1455 36.2923 19.7909 36.4657 19.5436 36.5565C19.222 36.672 18.8922 36.7216 18.3893 36.7216C18.0018 36.7216 17.5071 36.672 17.2762 36.606C17.0536 36.54 16.6826 36.3501 16.0395 35.8795L15.7922 36.1272C15.6603 36.2593 15.4129 36.4161 15.2563 36.4739C15.0996 36.5317 14.9347 36.606 14.8852 36.639C14.8358 36.672 14.4483 36.7051 14.0195 36.7133C13.4012 36.7298 13.1291 36.6968 12.7004 36.5565C12.4035 36.4574 11.9995 36.2758 11.7934 36.1437C11.5873 36.0116 11.2493 35.7309 11.0431 35.508C10.837 35.2934 10.6391 35.021 10.6062 34.9054C10.5649 34.7898 10.5649 34.5752 10.5897 34.4348C10.6144 34.2697 10.7298 34.0963 10.8618 33.9973C11.0019 33.8982 11.208 33.8322 11.3812 33.8322C11.6203 33.8404 11.7357 33.9147 12.0408 34.2532C12.2469 34.4843 12.5767 34.7733 12.7828 34.8889C13.0714 35.054 13.2857 35.1118 13.731 35.1283C14.1515 35.1448 14.3823 35.1118 14.5967 35.0044C14.7533 34.9301 14.9677 34.732 15.0749 34.5752C15.215 34.3523 15.2563 34.1706 15.2563 33.2543L14.8275 33.0149C14.5884 32.8828 14.2504 32.6186 14.0772 32.4205C13.9124 32.2224 13.7475 31.9417 13.7227 31.8096C13.698 31.6775 13.698 31.4463 13.7227 31.3142C13.7475 31.1822 13.8711 30.9675 13.9948 30.8519Z"
        fill="#0D1116" />
    <path
        d="M22.2644 25.2382C22.421 25.1061 22.7014 24.9658 22.8828 24.9245C23.0641 24.8832 23.3774 24.8667 23.5836 24.8915C23.7897 24.9163 24.0288 24.9741 24.1195 25.0153C24.2102 25.0649 24.3916 25.1969 24.5152 25.3208C24.6472 25.4364 24.8285 25.7005 24.9275 25.9069C25.0676 26.2041 25.1089 26.4353 25.1089 27.0214C25.1089 27.5828 25.0676 27.8552 24.944 28.1359C24.8615 28.3423 24.6966 28.5899 24.5977 28.6973C24.4905 28.7963 24.2844 28.9449 24.136 29.0192C23.9711 29.11 23.6743 29.1596 23.3362 29.1596C22.9405 29.1596 22.7261 29.11 22.5117 28.9862C22.3551 28.8871 22.1407 28.722 22.0418 28.6147C21.9428 28.5074 21.7862 28.2597 21.6955 28.0533C21.5718 27.7809 21.5224 27.5085 21.5224 27.0462C21.5224 26.5096 21.5636 26.3279 21.745 25.9399C21.8769 25.684 22.1077 25.3621 22.2644 25.2382Z"
        fill="#0D1116" />
    <path
        d="M7.79467 25.2052C7.92659 25.0979 8.15744 24.9823 8.28936 24.9328C8.42128 24.8832 8.6274 24.842 8.74283 24.842C8.85825 24.8337 9.13033 24.8832 9.36119 24.9493C9.60854 25.0236 9.87237 25.1804 10.029 25.3455C10.1774 25.4941 10.3671 25.7666 10.4578 25.9482C10.5484 26.1298 10.6391 26.4435 10.6721 26.6334C10.6969 26.8315 10.7051 27.1865 10.6804 27.4177C10.6556 27.6901 10.5402 28.0121 10.3671 28.301C10.1857 28.6147 9.99604 28.8128 9.73221 28.9532C9.44364 29.1183 9.24576 29.1596 8.82528 29.1596C8.39654 29.1596 8.23165 29.1183 7.9843 28.9532C7.8194 28.8459 7.58855 28.6065 7.46487 28.4248C7.34945 28.2432 7.21753 27.946 7.16806 27.7644C7.11859 27.5828 7.09386 27.1535 7.11859 26.815C7.14607 26.4022 7.22303 26.061 7.34945 25.7913C7.45663 25.5684 7.66275 25.3043 7.79467 25.2052Z"
        fill="#0D1116" />
    <path fill-rule="evenodd" clip-rule="evenodd"
        d="M96.0771 6.04874C97.9328 6.04874 98.7412 6.10077 98.9066 6.25688C99.0719 6.43034 99.127 7.73127 99.127 11.8075C99.127 14.7563 99.1822 17.15 99.274 17.15C99.3475 17.1326 99.7885 16.7857 100.285 16.3694C100.762 15.9358 101.663 15.3634 102.306 15.0685C102.93 14.791 103.904 14.4787 104.455 14.3747C105.007 14.2706 105.962 14.2012 106.568 14.2012C107.175 14.2012 108.167 14.3226 108.773 14.4614C109.379 14.6175 110.335 14.9471 110.886 15.2073C111.492 15.4848 112.448 16.196 113.275 16.9765C114.083 17.7224 114.91 18.7111 115.241 19.3182C115.571 19.8906 116.012 20.9834 116.233 21.7466C116.563 22.8741 116.637 23.6199 116.637 25.7361C116.655 27.7135 116.582 28.6155 116.325 29.4654C116.159 30.0899 115.7 31.1826 115.332 31.8938C114.855 32.7958 114.267 33.559 113.366 34.4263C112.429 35.3109 111.694 35.8313 110.702 36.2823C109.949 36.6292 108.7 37.0455 107.946 37.1843C107.064 37.3577 106.201 37.4097 105.558 37.3404C105.007 37.2883 104.033 37.1322 103.408 36.9934C102.765 36.8547 101.865 36.5598 101.387 36.3343C100.891 36.1088 100.119 35.6058 98.7596 34.4957V35.4497C98.7596 36.2476 98.6861 36.4384 98.3554 36.6639C98.043 36.8547 97.3816 36.9241 95.728 36.9241C94.1846 36.9241 93.4497 36.8547 93.2843 36.7159C93.1006 36.5425 93.0454 33.3335 93.0271 21.4864C92.9903 8.78936 93.0271 6.43034 93.2475 6.25688C93.4129 6.11812 94.35 6.04874 96.0954 6.04874L96.0771 6.04874ZM101.681 19.96C101.222 20.2028 100.634 20.7058 100.358 21.0701C100.082 21.4517 99.715 22.0588 99.5496 22.4404C99.3292 22.9261 99.2005 23.776 99.1454 25.3025C99.0903 26.9329 99.127 27.6962 99.3475 28.4247C99.5129 28.945 99.9171 29.7603 100.248 30.246C100.689 30.8704 101.13 31.252 101.865 31.5989C102.526 31.9112 103.298 32.1193 104.07 32.1887C104.951 32.2581 105.576 32.206 106.458 31.9632C107.285 31.7377 107.891 31.4255 108.479 30.9225C108.938 30.5235 109.508 29.8123 109.765 29.2746C110.188 28.4073 110.225 28.1471 110.225 25.7361C110.225 23.3077 110.188 23.0649 109.747 22.1802C109.49 21.6599 108.994 20.966 108.644 20.6365C108.295 20.3242 107.689 19.8906 107.285 19.6998C106.77 19.457 106.109 19.3355 105.08 19.3008C104.272 19.2662 103.371 19.3008 103.059 19.3702C102.765 19.457 102.14 19.7171 101.681 19.96Z"
        fill="#EDEDED" />
    <path fill-rule="evenodd" clip-rule="evenodd"
        d="M121.615 6.04874C122.906 6.04874 124.127 6.13564 124.319 6.22255C124.65 6.39637 124.668 6.57018 124.668 11.7846C124.668 14.7395 124.72 17.1729 124.807 17.1729C124.877 17.1729 125.121 16.9817 125.366 16.7383C125.61 16.4776 126.238 15.9909 126.761 15.6607C127.284 15.313 128.157 14.8785 128.68 14.7047C129.203 14.5135 130.267 14.3223 131.035 14.2702C131.872 14.2006 132.884 14.2528 133.564 14.3744C134.192 14.4961 135.291 14.8785 135.989 15.2261C136.826 15.6433 137.646 16.2169 138.257 16.8426C138.798 17.3814 139.53 18.32 139.897 18.9284C140.263 19.5367 140.716 20.5449 140.926 21.1706C141.222 22.0744 141.309 22.874 141.362 25.1683C141.432 27.4279 141.379 28.297 141.152 29.253C140.995 29.9308 140.612 31.0433 140.28 31.7211C139.879 32.5728 139.269 33.4071 138.484 34.2241C137.838 34.9019 136.879 35.7189 136.355 36.0317C135.832 36.3446 134.855 36.7791 134.175 36.9877C133.338 37.2658 132.518 37.3701 131.558 37.3701C130.791 37.3701 129.692 37.2832 129.116 37.1615C128.54 37.0399 127.651 36.7617 127.145 36.5358C126.656 36.3098 125.837 35.7536 124.476 34.4674L124.493 35.3712C124.493 36.0665 124.406 36.3794 124.145 36.6401C123.831 36.9529 123.569 36.9877 121.563 36.9877C120.01 36.9877 119.278 36.9356 119.121 36.7791C118.946 36.6053 118.911 33.4245 118.894 21.6399C118.876 10.9329 118.929 6.62232 119.068 6.37898C119.26 6.0835 119.487 6.04874 121.615 6.04874V6.04874ZM127.389 19.8844C127.005 20.0582 126.395 20.5622 126.028 20.9968C125.662 21.4313 125.226 22.1613 125.052 22.648C124.825 23.3085 124.755 24.1081 124.755 25.9679V28.4187C125.854 30.574 126.168 30.939 126.848 31.3909C127.337 31.7037 128.157 32.034 128.68 32.1383C129.203 32.2426 130.076 32.2947 130.599 32.2426C131.122 32.2078 131.977 31.9819 132.5 31.7559C133.024 31.5126 133.721 31.0259 134.053 30.6435C134.402 30.2611 134.838 29.6006 135.03 29.1661C135.344 28.4882 135.396 28.0363 135.396 25.7767C135.396 23.3085 135.378 23.1173 134.925 22.2135C134.681 21.692 134.105 20.9273 133.669 20.5101C133.146 20.0408 132.553 19.6932 131.942 19.5194C131.454 19.3803 130.599 19.2586 130.076 19.276C129.552 19.2934 128.872 19.3455 128.593 19.4151C128.314 19.4846 127.755 19.6932 127.389 19.8844Z"
        fill="#EDEDED" />
    <path
        d="M158.279 20.6653C158.242 10.447 158.261 9.90201 158.593 9.59546C158.889 9.32297 159.24 9.28891 161.348 9.28891C163.381 9.28891 163.825 9.34 164.102 9.59546C164.379 9.85092 164.435 10.2086 164.416 15.2496H167.226C169.259 15.2496 170.128 15.3007 170.294 15.4539C170.442 15.6072 170.516 16.2544 170.516 17.4635C170.516 18.6386 170.442 19.3199 170.294 19.4731C170.128 19.6094 169.259 19.6775 164.416 19.6775V25.0421C164.416 29.7936 164.453 30.4748 164.749 31.0198C164.915 31.3604 165.285 31.7521 165.581 31.8713C165.913 32.0416 166.764 32.1097 168.169 32.1097C169.629 32.0927 170.313 32.1608 170.461 32.3141C170.627 32.4674 170.682 33.1145 170.608 36.4525L169.962 36.742C169.61 36.9123 168.649 37.1337 167.836 37.253C166.708 37.4062 166.006 37.4062 164.878 37.27C164.065 37.1678 162.937 36.9294 162.383 36.725C161.754 36.5206 161.033 36.0949 160.497 35.618C159.998 35.1923 159.407 34.477 159.166 34.0342C158.926 33.5744 158.63 32.808 158.52 32.3311C158.39 31.718 158.298 27.8862 158.279 20.6653Z"
        fill="#EDEDED" />
    <path fill-rule="evenodd" clip-rule="evenodd"
        d="M80.121 14.6891C81.3197 14.6891 82.6418 14.774 83.3821 14.9267C84.0696 15.0794 85.0392 15.3849 85.5504 15.6055C86.044 15.843 86.8372 16.369 87.2956 16.7763C87.7715 17.1835 88.3533 17.9302 88.6177 18.4223C88.8645 18.9313 89.1994 19.9325 89.3581 20.6452C89.5872 21.7312 89.6401 23.2414 89.6401 36.3921L89.2347 36.6466C88.9526 36.8333 88.3533 36.9012 86.9078 36.9012C85.8324 36.9012 84.8453 36.8163 84.7043 36.7315C84.528 36.6297 84.4222 36.2394 84.3869 35.5437C84.3693 34.9837 84.3164 34.5256 84.2636 34.5256C84.2107 34.5256 83.8052 34.831 83.3293 35.2213C82.8709 35.6116 82.2187 36.0527 81.8838 36.2224C81.5488 36.3921 80.7203 36.6806 80.0328 36.8842C79.3453 37.0878 78.1995 37.2915 77.4767 37.3424C76.5953 37.4102 75.7139 37.3537 74.8325 37.1727C74.1098 37.02 73.0345 36.6806 72.4527 36.4091C71.871 36.1376 71.1659 35.6625 70.8839 35.357C70.6018 35.0346 70.1787 34.3559 69.9319 33.8468C69.6146 33.202 69.456 32.5063 69.4031 31.556C69.3678 30.8094 69.4031 29.7913 69.5265 29.2992C69.6323 28.8241 69.9319 27.9926 70.1964 27.4666C70.496 26.8727 71.0601 26.177 71.6595 25.6679C72.1883 25.1928 73.0168 24.6498 73.5104 24.4292C73.9864 24.2086 74.8678 23.9032 75.4495 23.7504C76.2075 23.5468 77.5825 23.428 84.0344 23.2414L83.911 22.4778C83.8581 22.0536 83.6642 21.4427 83.4879 21.1203C83.2764 20.6961 82.9062 20.3906 82.2363 20.0513C81.4078 19.644 81.0552 19.5761 79.6803 19.5592C78.7283 19.5422 77.6001 19.661 76.8598 19.8307C76.1723 19.9834 74.8325 20.4924 73.863 20.9506C72.8935 21.4088 72.0473 21.7312 71.9592 21.6633C71.8887 21.5954 71.6771 20.8148 71.4832 19.9325C71.2893 19.0501 71.1306 18.1168 71.1306 17.8453C71.1306 17.5229 71.2893 17.2684 71.6947 16.9799C72.012 16.7593 72.7524 16.3521 73.3342 16.0636C73.9159 15.7921 74.8678 15.4188 75.4495 15.2661C76.0312 15.0964 76.8598 14.9097 77.3005 14.8419C77.7412 14.774 79.0104 14.7061 80.121 14.6891V14.6891ZM76.9479 28.2641C76.5248 28.4847 75.9784 28.9429 75.7668 29.2653C75.5377 29.5877 75.3614 30.1137 75.3614 30.4022C75.3614 30.7076 75.4495 31.1318 75.5377 31.3354C75.6434 31.556 76.0312 31.9124 76.3838 32.1499C76.8774 32.4554 77.3357 32.5742 78.27 32.6251C79.0985 32.676 79.8565 32.6081 80.5617 32.4045C81.3725 32.1839 81.7956 31.9463 82.4302 31.3354C82.9238 30.8264 83.3293 30.2155 83.5232 29.6895C83.6818 29.2144 83.8757 28.5186 83.9462 28.1114L84.0873 27.3987C81.0729 27.4157 79.6626 27.5175 78.9751 27.6363C78.2876 27.755 77.3886 28.0265 76.9479 28.2641Z"
        fill="#EDEDED" />
</svg>