<svg width="991" height="982" viewBox="0 0 991 982" fill="none" xmlns="http://www.w3.org/2000/svg">
<rect width="991" height="982" rx="491" fill="#657999"/>
<path d="M677.357 252H313.622C280.199 252 253 279.188 253 312.598V655.989H392.896L468.654 719.759C476.374 726.606 486.053 730 495.672 730C505.129 730 514.485 726.707 521.78 720.223L599.538 655.989H738V312.598C738 279.188 710.781 252 677.357 252ZM394.452 494.394C377.721 494.394 364.141 480.819 364.141 464.094C364.141 447.369 377.721 433.795 394.452 433.795C411.184 433.795 424.764 447.369 424.764 464.094C424.764 480.819 411.184 494.394 394.452 494.394ZM495.49 494.394C478.758 494.394 465.179 480.819 465.179 464.094C465.179 447.369 478.758 433.795 495.49 433.795C512.222 433.795 525.801 447.369 525.801 464.094C525.801 480.819 512.222 494.394 495.49 494.394ZM596.527 494.394C579.796 494.394 566.216 480.819 566.216 464.094C566.216 447.369 579.796 433.795 596.527 433.795C613.259 433.795 626.839 447.369 626.839 464.094C626.839 480.819 613.259 494.394 596.527 494.394Z" fill="#EDEDED"/>
</svg>
