<?xml version="1.0" encoding="UTF-8" standalone="no"?>
<!DOCTYPE svg PUBLIC "-//W3C//DTD SVG 1.1//EN" "http://www.w3.org/Graphics/SVG/1.1/DTD/svg11.dtd">
<svg xmlns="http://www.w3.org/2000/svg" version="1.1" viewBox="0 0 876 389">
  <clipPath id="clipping-path-0">
    <path d="
  M 0.00 0.00
  L 876.00 0.00
  L 876.00 389.00
  L 0.00 389.00
  L 0.00 0.00
  Z"/>
  </clipPath>
  <g stroke-width="2.0" fill="none" stroke-linecap="butt" clip-path="url(#clipping-path-0)">
    <path stroke="#fdfcfc" vector-effect="non-scaling-stroke" d="
  M 872.81 0.00
  Q 873.14 186.87 873.00 373.75
  Q 872.99 381.42 872.49 386.45
  A 0.78 0.77 83.6 0 1 871.97 387.11
  Q 869.89 387.81 865.94 387.81
  Q 436.84 388.14 7.75 388.00
  Q 2.37 388.00 0.00 387.69" />
    <path stroke="#a1a09e" vector-effect="non-scaling-stroke" d="
  M 419.53 181.96
  Q 418.97 183.29 418.97 184.75
  Q 418.99 191.18 419.00 197.61
  Q 419.00 201.47 420.36 203.02
  Q 422.29 205.23 426.25 205.25
  Q 437.03 205.30 442.58 204.51
  A 0.99 0.97 63.5 0 1 443.42 204.80
  Q 444.17 205.54 444.91 206.28
  Q 445.37 206.75 445.86 206.85
  Q 447.04 207.10 446.85 205.94
  Q 446.76 205.39 446.23 204.86
  Q 432.51 191.14 418.79 177.41
  A 0.96 0.83 58.5 0 0 417.95 177.14
  Q 416.92 177.38 417.15 178.21
  Q 417.27 178.62 417.94 179.26
  Q 418.82 180.08 419.48 181.08
  A 0.99 0.85 -52.6 0 1 419.53 181.96" />
    <path stroke="#a1a09e" vector-effect="non-scaling-stroke" d="
  M 445.02 200.01
  Q 445.50 192.27 445.11 185.08
  Q 444.99 182.81 444.29 181.57
  Q 443.18 179.63 441.25 179.25
  Q 434.13 177.86 423.99 179.18
  A 0.52 0.45 -10.6 0 0 423.54 179.74
  Q 423.76 180.57 424.93 180.62
  Q 431.34 180.89 437.75 180.75
  Q 440.71 180.68 442.16 182.22
  Q 443.19 183.32 443.21 186.18
  Q 443.27 192.09 443.14 198.00
  Q 443.10 199.76 444.09 200.46
  Q 444.95 201.07 445.02 200.01" />
    <path stroke="#a1a09e" vector-effect="non-scaling-stroke" d="
  M 439.39 187.32
  A 2.69 2.69 0.0 0 0 436.70 184.63
  A 2.69 2.69 0.0 0 0 434.01 187.32
  A 2.69 2.69 0.0 0 0 436.70 190.01
  A 2.69 2.69 0.0 0 0 439.39 187.32" />
    <path stroke="#a1a09e" vector-effect="non-scaling-stroke" d="
  M 420.94 183.51
  L 420.76 199.75
  Q 420.74 201.83 422.24 200.37
  L 430.18 192.70
  A 0.81 0.81 45.2 0 0 430.18 191.55
  L 421.80 183.18
  Q 420.95 182.32 420.94 183.51" />
    <path stroke="#a1a09e" vector-effect="non-scaling-stroke" d="
  M 432.64 194.25
  A 1.15 1.09 -45.4 0 0 431.07 194.30
  L 423.44 201.93
  Q 422.13 203.25 423.99 203.25
  L 440.01 203.25
  Q 441.82 203.25 440.56 202.01
  L 432.64 194.25" />
    <path stroke="#a3a3a2" vector-effect="non-scaling-stroke" d="
  M 436.59 188.06
  Q 437.62 187.52 437.46 186.97
  A 0.77 0.56 -9.1 0 0 436.69 186.58
  Q 435.07 186.73 436.13 187.97
  A 0.38 0.37 -33.4 0 0 436.59 188.06" />
  </g>
  <path fill="#faf9f8" d="
  M 0.00 0.00
  Q 436.41 0.00 872.81 0.00
  Q 873.14 186.87 873.00 373.75
  Q 872.99 381.42 872.49 386.45
  A 0.78 0.77 83.6 0 1 871.97 387.11
  Q 869.89 387.81 865.94 387.81
  Q 436.84 388.14 7.75 388.00
  Q 2.37 388.00 0.00 387.69
  Q 0.00 193.84 0.00 0.00
  Z
  M 419.53 181.96
  Q 418.97 183.29 418.97 184.75
  Q 418.99 191.18 419.00 197.61
  Q 419.00 201.47 420.36 203.02
  Q 422.29 205.23 426.25 205.25
  Q 437.03 205.30 442.58 204.51
  A 0.99 0.97 63.5 0 1 443.42 204.80
  Q 444.17 205.54 444.91 206.28
  Q 445.37 206.75 445.86 206.85
  Q 447.04 207.10 446.85 205.94
  Q 446.76 205.39 446.23 204.86
  Q 432.51 191.14 418.79 177.41
  A 0.96 0.83 58.5 0 0 417.95 177.14
  Q 416.92 177.38 417.15 178.21
  Q 417.27 178.62 417.94 179.26
  Q 418.82 180.08 419.48 181.08
  A 0.99 0.85 -52.6 0 1 419.53 181.96
  Z
  M 445.02 200.01
  Q 445.50 192.27 445.11 185.08
  Q 444.99 182.81 444.29 181.57
  Q 443.18 179.63 441.25 179.25
  Q 434.13 177.86 423.99 179.18
  A 0.52 0.45 -10.6 0 0 423.54 179.74
  Q 423.76 180.57 424.93 180.62
  Q 431.34 180.89 437.75 180.75
  Q 440.71 180.68 442.16 182.22
  Q 443.19 183.32 443.21 186.18
  Q 443.27 192.09 443.14 198.00
  Q 443.10 199.76 444.09 200.46
  Q 444.95 201.07 445.02 200.01
  Z
  M 439.39 187.32
  A 2.69 2.69 0.0 0 0 436.70 184.63
  A 2.69 2.69 0.0 0 0 434.01 187.32
  A 2.69 2.69 0.0 0 0 436.70 190.01
  A 2.69 2.69 0.0 0 0 439.39 187.32
  Z" />
  <path fill="#ffffff" d="
  M 872.81 0.00
  Q 874.41 0.00 876.00 0.00
  Q 876.00 194.50 876.00 389.00
  Q 438.00 389.00 0.00 389.00
  Q 0.00 388.34 0.00 387.69
  Q 2.37 388.00 7.75 388.00
  Q 436.84 388.14 865.94 387.81
  Q 869.89 387.81 871.97 387.11
  A 0.78 0.77 83.6 0 0 872.49 386.45
  Q 872.99 381.42 873.00 373.75
  Q 873.14 186.87 872.81 0.00
  Z" />
  <path fill="#474644" d="
  M 419.48 181.08
  Q 418.82 180.08 417.94 179.26
  Q 417.27 178.62 417.15 178.21
  Q 416.92 177.38 417.95 177.14
  A 0.96 0.83 58.5 0 1 418.79 177.41
  Q 432.51 191.14 446.23 204.86
  Q 446.76 205.39 446.85 205.94
  Q 447.04 207.10 445.86 206.85
  Q 445.37 206.75 444.91 206.28
  Q 444.17 205.54 443.42 204.80
  A 0.99 0.97 63.5 0 0 442.58 204.51
  Q 437.03 205.30 426.25 205.25
  Q 422.29 205.23 420.36 203.02
  Q 419.00 201.47 419.00 197.61
  Q 418.99 191.18 418.97 184.75
  Q 418.97 183.29 419.53 181.96
  A 0.99 0.85 -52.6 0 0 419.48 181.08
  Z
  M 420.94 183.51
  L 420.76 199.75
  Q 420.74 201.83 422.24 200.37
  L 430.18 192.70
  A 0.81 0.81 45.2 0 0 430.18 191.55
  L 421.80 183.18
  Q 420.95 182.32 420.94 183.51
  Z
  M 432.64 194.25
  A 1.15 1.09 -45.4 0 0 431.07 194.30
  L 423.44 201.93
  Q 422.13 203.25 423.99 203.25
  L 440.01 203.25
  Q 441.82 203.25 440.56 202.01
  L 432.64 194.25
  Z" />
  <path fill="#474644" d="
  M 445.02 200.01
  Q 444.95 201.07 444.09 200.46
  Q 443.10 199.76 443.14 198.00
  Q 443.27 192.09 443.21 186.18
  Q 443.19 183.32 442.16 182.22
  Q 440.71 180.68 437.75 180.75
  Q 431.34 180.89 424.93 180.62
  Q 423.76 180.57 423.54 179.74
  A 0.52 0.45 -10.6 0 1 423.99 179.18
  Q 434.13 177.86 441.25 179.25
  Q 443.18 179.63 444.29 181.57
  Q 444.99 182.81 445.11 185.08
  Q 445.50 192.27 445.02 200.01
  Z" />
  <path fill="#faf9f8" d="
  M 420.94 183.51
  Q 420.95 182.32 421.80 183.18
  L 430.18 191.55
  A 0.81 0.81 45.2 0 1 430.18 192.70
  L 422.24 200.37
  Q 420.74 201.83 420.76 199.75
  L 420.94 183.51
  Z" />
  <path fill="#474644" d="
  M 439.39 187.32
  A 2.69 2.69 0.0 0 1 436.70 190.01
  A 2.69 2.69 0.0 0 1 434.01 187.32
  A 2.69 2.69 0.0 0 1 436.70 184.63
  A 2.69 2.69 0.0 0 1 439.39 187.32
  Z
  M 436.59 188.06
  Q 437.62 187.52 437.46 186.97
  A 0.77 0.56 -9.1 0 0 436.69 186.58
  Q 435.07 186.73 436.13 187.97
  A 0.38 0.37 -33.4 0 0 436.59 188.06
  Z" />
  <path fill="#ffffff" d="
  M 436.59 188.06
  A 0.38 0.37 -33.4 0 1 436.13 187.97
  Q 435.07 186.73 436.69 186.58
  A 0.77 0.56 -9.1 0 1 437.46 186.97
  Q 437.62 187.52 436.59 188.06
  Z" />
  <path fill="#faf9f8" d="
  M 432.64 194.25
  L 440.56 202.01
  Q 441.82 203.25 440.01 203.25
  L 423.99 203.25
  Q 422.13 203.25 423.44 201.93
  L 431.07 194.30
  A 1.15 1.09 -45.4 0 1 432.64 194.25
  Z" />
</svg>
