<svg width="44" height="56" xmlns="http://www.w3.org/2000/svg" xmlns:xlink="http://www.w3.org/1999/xlink"
    xml:space="preserve" overflow="hidden">
    <defs>
        <clipPath id="clip0">
            <rect x="43" y="501" width="44" height="56" />
        </clipPath>
    </defs>
    <g clip-path="url(#clip0)" transform="translate(-43 -501)">
        <path
            d="M9.79962 18.8129C9.79962 12.6427 0.151229 2.90359 0.151229 0L11.7353 0C11.7353 0 16.4688 8.09074 19.7354 14.1096 20.3705 15.2892 20.2042 23.6824 19.5841 24.6957 15.9849 30.4423 11.8261 38.0189 11.8261 38.0189L0 38.0189C0 35.4631 9.79962 24.983 9.79962 18.8129Z"
            fill="#004646" transform="matrix(1.02726 0 0 1 43.0023 518.981)" />
        <path
            d="M33.0284 18.8129C33.0284 12.6427 42.6768 2.90359 42.6768 0L31.0926 0C31.0926 0 26.3592 8.09074 23.0926 14.1096 22.4575 15.2892 22.6238 23.6824 23.2439 24.6957 26.8431 30.4423 31.0019 38.0189 31.0019 38.0189L42.828 38.0189C42.828 35.4631 33.0284 24.983 33.0284 18.8129Z"
            fill="#004646" transform="matrix(1.02726 0 0 1 43.0023 518.981)" />
        <path
            d="M28.794 7.37996C28.794 11.4558 25.4898 14.7599 21.414 14.7599 17.3381 14.7599 14.034 11.4558 14.034 7.37996 14.034 3.30412 17.3381-1.15378e-07 21.414-1.15378e-07 25.4898-1.15378e-07 28.794 3.30412 28.794 7.37996Z"
            fill="#004646" transform="matrix(1.02726 0 0 1 43.0023 501)" />
    </g>
</svg>