<?xml version="1.0" encoding="UTF-8" standalone="no"?>
<!DOCTYPE svg PUBLIC "-//W3C//DTD SVG 1.1//EN" "http://www.w3.org/Graphics/SVG/1.1/DTD/svg11.dtd">
<svg xmlns="http://www.w3.org/2000/svg" version="1.1" viewBox="0 0 225 225">
<clipPath id="clipping-path-0">
<path d="
  M 0.00 0.00
  L 225.00 0.00
  L 225.00 225.00
  L 0.00 225.00
  L 0.00 0.00
  Z"/>
</clipPath>
<g stroke-width="2.0" fill="none" stroke-linecap="butt" clip-path="url(#clipping-path-0)">
<path stroke="#cacccf" vector-effect="non-scaling-stroke" d="
  M 200.44 225.00
  Q 201.00 224.55 201.00 223.50
  Q 201.00 215.63 200.97 207.75
  Q 200.91 190.51 190.54 176.92
  Q 183.05 167.11 173.69 160.81
  Q 155.80 148.77 133.77 144.89
  Q 110.27 140.75 87.00 146.00
  Q 62.44 151.55 44.55 166.57
  Q 30.22 178.61 25.73 196.81
  Q 24.73 200.83 24.75 206.75
  Q 24.79 220.84 24.94 225.00"
/>
<path stroke="#cacccf" vector-effect="non-scaling-stroke" d="
  M 113.0800 140.4200
  A 47.42 43.93 90.0 0 0 157.0100 93.0000
  A 47.42 43.93 90.0 0 0 113.0800 45.5800
  A 47.42 43.93 90.0 0 0 69.1500 93.0000
  A 47.42 43.93 90.0 0 0 113.0800 140.4200"
/>
</g>
<path fill="#e4e5e7" d="
  M 0.00 0.00
  Q 112.50 0.00 225.00 0.00
  Q 225.00 112.50 225.00 225.00
  Q 212.72 225.00 200.44 225.00
  Q 201.00 224.55 201.00 223.50
  Q 201.00 215.63 200.97 207.75
  Q 200.91 190.51 190.54 176.92
  Q 183.05 167.11 173.69 160.81
  Q 155.80 148.77 133.77 144.89
  Q 110.27 140.75 87.00 146.00
  Q 62.44 151.55 44.55 166.57
  Q 30.22 178.61 25.73 196.81
  Q 24.73 200.83 24.75 206.75
  Q 24.79 220.84 24.94 225.00
  Q 12.47 225.00 0.00 225.00
  Q 0.00 112.50 0.00 0.00
  Z
  M 113.0800 140.4200
  A 47.42 43.93 90.0 0 0 157.0100 93.0000
  A 47.42 43.93 90.0 0 0 113.0800 45.5800
  A 47.42 43.93 90.0 0 0 69.1500 93.0000
  A 47.42 43.93 90.0 0 0 113.0800 140.4200
  Z"
/>
<ellipse fill="#afb2b7" cx="0.00" cy="0.00" transform="translate(113.08,93.00) rotate(90.0)" rx="47.42" ry="43.93"/>
<path fill="#afb2b7" d="
  M 200.44 225.00
  Q 112.69 225.00 24.94 225.00
  Q 24.79 220.84 24.75 206.75
  Q 24.73 200.83 25.73 196.81
  Q 30.22 178.61 44.55 166.57
  Q 62.44 151.55 87.00 146.00
  Q 110.27 140.75 133.77 144.89
  Q 155.80 148.77 173.69 160.81
  Q 183.05 167.11 190.54 176.92
  Q 200.91 190.51 200.97 207.75
  Q 201.00 215.63 201.00 223.50
  Q 201.00 224.55 200.44 225.00
  Z"
/>
</svg>
